<?xml version="1.0" encoding="UTF-8" standalone="no"?>
<!-- Created with Inkscape (http://www.inkscape.org/) -->

<svg
   xmlns:dc="http://purl.org/dc/elements/1.1/"
   xmlns:cc="http://creativecommons.org/ns#"
   xmlns:rdf="http://www.w3.org/1999/02/22-rdf-syntax-ns#"
   xmlns:svg="http://www.w3.org/2000/svg"
   xmlns="http://www.w3.org/2000/svg"
   xmlns:sodipodi="http://sodipodi.sourceforge.net/DTD/sodipodi-0.dtd"
   xmlns:inkscape="http://www.inkscape.org/namespaces/inkscape"
   id="svg3350"
   version="1.1"
   inkscape:version="0.91 r13725"
   xml:space="preserve"
   width="875"
   height="875"
   viewBox="0 0 875 875"
   sodipodi:docname="ic_menu_yoyoexpert.svg"><metadata
     id="metadata3356"><rdf:RDF><cc:Work
         rdf:about=""><dc:format>image/svg+xml</dc:format><dc:type
           rdf:resource="http://purl.org/dc/dcmitype/StillImage" /><dc:title></dc:title></cc:Work></rdf:RDF></metadata><defs
     id="defs3354"><clipPath
       clipPathUnits="userSpaceOnUse"
       id="clipPath3368"><path
         d="M 0,500 700,500 700,0 0,0 0,500 Z"
         id="path3370"
         inkscape:connector-curvature="0" /></clipPath><clipPath
       clipPathUnits="userSpaceOnUse"
       id="clipPath3420"><rect
         style="fill:#0000ff;fill-rule:evenodd;stroke:#000000;stroke-width:1.09192479px;stroke-linecap:butt;stroke-linejoin:miter;stroke-opacity:1"
         id="rect3422"
         width="840.80975"
         height="264.53857"
         x="-29.515057"
         y="36.162891"
         transform="scale(1,-1)" /></clipPath><clipPath
       clipPathUnits="userSpaceOnUse"
       id="clipPath3444"><rect
         style="fill:#0000ff;fill-rule:evenodd;stroke:#000000;stroke-width:0.80000001px;stroke-linecap:butt;stroke-linejoin:miter;stroke-opacity:1"
         id="rect3446"
         width="805.08484"
         height="334.74576"
         x="-512.29102"
         y="-154.16599"
         transform="scale(1,-1)" /></clipPath></defs><sodipodi:namedview
     pagecolor="#ffffff"
     bordercolor="#666666"
     borderopacity="1"
     objecttolerance="10"
     gridtolerance="10"
     guidetolerance="10"
     inkscape:pageopacity="0"
     inkscape:pageshadow="2"
     inkscape:window-width="1920"
     inkscape:window-height="1017"
     id="namedview3352"
     showgrid="false"
     inkscape:zoom="0.03337544"
     inkscape:cx="-1911.8892"
     inkscape:cy="-607.25166"
     inkscape:window-x="-8"
     inkscape:window-y="-8"
     inkscape:window-maximized="1"
     inkscape:current-layer="g3358" /><g
     id="g3358"
     inkscape:groupmode="layer"
     inkscape:label="YoYoExpert-Vector-BLACK-BACKGROUND"
     transform="matrix(1.25,0,0,-1.25,0,875)"><path
       inkscape:connector-curvature="0"
       id="path3378-6"
       style="fill:#ffffff;fill-opacity:1;fill-rule:nonzero;stroke:none"
       d="m -293.81759,430.11853 -24.321,-41.558 -35.694,-48.656 c -7.828,-10.146 -22.416,-9.476 -34.218,-0.662 0,0 -56.522,44.697 -61.46,48.603 -3.877,3.064 -5.984,6.391 -6.014,10.298 -0.008,0.594 0.007,1.806 0.015,2.634 0,0.166 -0.204,0.309 -0.339,0.263 -0.753,-0.317 -2.04,-0.466 -2.476,-0.466 -0.444,0 -1.731,0.149 -2.484,0.466 -0.128,0.046 -0.324,-0.097 -0.324,-0.263 0,-0.828 0.015,-2.04 0.008,-2.634 -0.046,-3.907 -2.153,-7.234 -6.007,-10.298 -4.961,-3.906 -61.468,-48.603 -61.468,-48.603 -11.802,-8.814 -26.397,-9.484 -34.233,0.662 l -35.687,48.656 -24.305,41.558 c -5.194,6.963 1.122,17.628 13.323,23.779 0,0 49.062,24.794 49.567,25.05 0.707,0.361 0.707,0.361 0.398,1.37 -1.866,6.051 -11.651,37.651 -13.638,43.989 -1.001,3.199 1.987,6.895 8.257,9.326 l 45.178,17.547 c 3.048,1.188 6.767,1.844 10.485,1.844 3.734,0 7.061,-0.656 9.409,-1.844 l 34.76096,-17.555 c 3.493,-1.761 4.946,-4.23 4.313,-6.623 -0.022,-0.075 0.061,-0.204 0.121,-0.204 0.753,0.053 1.573,0.091 2.326,0.091 0.76,0 1.558,-0.038 2.318,-0.091 0.061,0 0.136,0.129 0.128,0.204 -0.64,2.393 0.813,4.862 4.313,6.623 l 34.754,17.555 c 2.355,1.188 5.682,1.844 9.401,1.844 3.719,0 7.445,-0.656 10.486,-1.844 l 45.185,-17.547 c 6.263,-2.431 9.258,-6.127 8.265,-9.326 -2.002,-6.338 -11.773,-37.938 -13.648,-43.989 -0.323,-1.009 -0.323,-1.009 0.393,-1.37 0.512,-0.256 49.573,-25.05 49.573,-25.05 12.194,-6.151 18.51,-16.816 13.339,-23.779 m -9.243,31.908 c 0,0 -42.611,21.528 -42.695,21.565 -0.715,0.354 -0.715,0.354 -0.406,1.356 0.383,1.234 10.681,34.482 11.365,36.634 1.95,6.263 -0.436,15.401 -13.654,20.542 l -45.179,17.538 c -4.124,1.604 -8.896,2.455 -13.781,2.455 -5.186,0 -9.846,-0.972 -13.489,-2.808 0,0 -35.656,-18.005 -36.123,-18.247 -0.949,-0.496 -1.663,-0.496 -2.62,0 -0.451,0.242 -36.115,18.247 -36.115,18.247 -3.643,1.836 -8.303,2.808 -13.497,2.808 -4.885,0 -9.649,-0.851 -13.774,-2.455 l -45.171,-17.538 c -13.225,-5.141 -15.618,-14.279 -13.647,-20.542 0.662,-2.152 10.975,-35.4 11.343,-36.634 0.31,-1.002 0.31,-1.002 -0.391,-1.356 -0.075,-0.037 -42.716,-21.565 -42.716,-21.565 -10.275,-5.201 -17.607,-13.308 -19.586,-21.709 -1.288,-5.441 -0.324,-10.794 2.724,-15.159 l 24.335,-41.596 35.966,-49.048 0.15,-0.18 c 5.45,-7.075 13.549,-10.983 22.792,-10.983 8.1,0 16.651,3.064 24.065,8.605 l 0.203,0.15 c 0,0 56.523,44.682 61.467,48.604 0.888,0.699 1.724,1.429 2.477,2.175 0.241,0.225 1.137,0.225 1.37,0 0.761,-0.746 1.596,-1.476 2.492,-2.175 4.945,-3.922 61.467,-48.604 61.467,-48.604 l 0.181,-0.15 c 7.444,-5.541 15.987,-8.605 24.079,-8.605 9.243,0 17.342,3.908 22.799,10.983 l 0.144,0.18 35.965,49.048 24.344,41.596 c 3.033,4.365 3.997,9.718 2.716,15.159 -1.979,8.401 -9.311,16.508 -19.6,21.709 m -180.631,28.393 -0.098,0.075 c -2.055,1.339 -1.814,3.508 0.534,4.817 l 21.212,11.894 c 2.071,1.151 5.457,1.151 7.536,0 l 0.097,-0.076 c 2.1,-1.175 2.167,-3.116 0.075,-4.336 l -21.234,-12.374 c -2.341,-1.37 -6.029,-1.37 -8.122,0 m 76.189,4.892 -5.531,2.928 c -2.394,1.257 -5.909,1.257 -7.828,0 l -33.097,-21.58 c -2.357,-1.551 -6.255,-1.551 -8.604,0 l -0.098,0.06 c -2.326,1.513 -2.251,3.944 0.091,5.389 l 33.156,20.7 c 1.95,1.212 1.679,3.169 -0.571,4.336 l -24.75,13.037 c -1.957,1.031 -5.125,1.031 -7.068,0 l -47.241,-24.87 c -2.492,-1.309 -2.996,-3.478 -1.076,-4.817 l 47.219,-33.226 c 2.52,-1.791 6.729,-1.791 9.257,-0.007 l 47.212,33.233 c 1.919,1.339 1.415,3.508 -1.071,4.817 m -70.50996,-291.775 c -0.119,0 -0.195,-0.091 -0.195,-0.194 l 0,-21.228 c 0,-0.106 0.076,-0.195 0.195,-0.195 l 2.71,0 c 0.113,0 0.203,0.089 0.203,0.195 l 0,21.228 c 0,0.103 -0.09,0.194 -0.203,0.194 l -2.71,0 z m 80.289,59.192 -6.503,0 c -0.212,0 -0.393,0.181 -0.393,0.406 l 0,15.657 c 0,0.225 0.181,0.398 0.393,0.398 l 6.578,0 c 7.054,0 9.914,-4.47 9.914,-8.264 0,-3.718 -1.875,-8.197 -9.989,-8.197 m 0.896,25.991 -19.677,0 c -0.217,0 -0.398,-0.173 -0.398,-0.399 l 0,-55.189 c 0,-0.211 0.181,-0.392 0.398,-0.392 l 11.495,0 c 0.211,0 0.39,0.181 0.39,0.392 l 0,19.691 c 0,0.219 0.181,0.4 0.393,0.4 l 8.385,-0.008 c 9.831,0 20.399,4.84 20.399,17.711 0,13.775 -11.713,17.794 -21.385,17.794 m -53.436,-64.289 21.972,0 c 0.218,0 0.293,0.15 0.173,0.33 l -24.373,35.634 c -0.12,0.181 -0.12,0.467 0,0.648 l 24.373,35.657 c 0.12,0.18 0.045,0.323 -0.173,0.323 l -21.972,0 c -0.226,0 -0.497,-0.143 -0.625,-0.323 l -12.985,-18.984 c -0.12,-0.181 -0.323,-0.181 -0.443,0 l -12.969,18.984 c -0.121,0.18 -0.408,0.323 -0.625,0.323 l -21.98,0 c -0.219,0 -0.294,-0.143 -0.173,-0.323 l 24.358,-35.657 c 0.121,-0.181 0.121,-0.467 0,-0.648 l -24.358,-35.634 c -0.121,-0.18 -0.046,-0.33 0.173,-0.33 l 21.98,0 c 0.217,0 0.504,0.15 0.625,0.33 l 12.969,18.984 c 0.12,0.181 0.323,0.181 0.443,0 l 12.985,-18.984 c 0.128,-0.18 0.399,-0.33 0.625,-0.33 m 25.559,-31.59 -3.01,0 c -0.114,0 -0.204,0.09 -0.204,0.204 l 0,7.407 c 0,0.105 0.09,0.194 0.204,0.194 l 3.206,0 c 2.017,0 4.426,-0.677 4.426,-3.898 0,-3.402 -2.89,-3.907 -4.622,-3.907 m 0.693,10.696 -6.813,0 c -0.113,0 -0.203,-0.091 -0.203,-0.194 l 0,-21.228 c 0,-0.106 0.09,-0.195 0.203,-0.195 l 2.718,0 c 0.105,0 0.195,0.089 0.195,0.195 l -0.007,7.647 c 0,0.106 0.09,0.181 0.204,0.181 l 3.372,0 c 4.576,0 7.542,2.665 7.542,6.775 0,4.201 -2.762,6.819 -7.211,6.819 m -21.197,0 c -0.105,0 -0.233,-0.082 -0.278,-0.18 l -7.452,-16.634 c -0.046,-0.1 -0.113,-0.1 -0.159,0 l -7.4508,16.634 c -0.045,0.098 -0.173,0.18 -0.279,0.18 l -3.004,0 c -0.104,0 -0.187,-0.091 -0.187,-0.194 l 0,-21.228 c 0,-0.106 0.083,-0.195 0.187,-0.195 l 2.726,0 c 0.105,0 0.196,0.089 0.196,0.195 l 0,14.783 c 0,0.12 0.044,0.12 0.082,0.032 l 6.73,-14.831 c 0.037,-0.097 0.172,-0.179 0.278,-0.179 l 1.595,0 c 0.113,0 0.242,0.082 0.287,0.179 l 6.729,14.951 c 0.038,0.096 0.076,0.09 0.076,-0.016 l 0,-14.919 c 0,-0.106 0.089,-0.195 0.211,-0.195 l 2.709,0 c 0.105,0 0.195,0.089 0.195,0.195 l 0,21.228 c 0,0.103 -0.09,0.194 -0.195,0.194 l -2.996,0 z m 39.88,-18.727 c -0.113,0 -0.204,0.089 -0.204,0.196 l 0,18.337 c 0,0.103 -0.083,0.194 -0.195,0.194 l -2.718,0 c -0.105,0 -0.195,-0.091 -0.195,-0.194 l 0,-21.228 c 0,-0.106 0.09,-0.195 0.195,-0.195 l 12.465,0 c 0.112,0 0.203,0.089 0.203,0.195 l 0,2.499 c 0,0.106 -0.091,0.196 -0.203,0.196 l -9.348,0 z m 41.574,103.91 c -0.216,0 -0.39,-0.173 -0.39,-0.399 l 0,-55.189 c 0,-0.211 0.174,-0.392 0.39,-0.392 l 38.547,0 c 0.22,0 0.393,0.181 0.393,0.392 l 0,9.191 c 0,0.218 -0.173,0.399 -0.393,0.399 l -26.239,0 c -0.225,0 -0.399,0.18 -0.399,0.39 l 0,12.541 c 0,0.218 0.174,0.399 0.399,0.399 l 25.495,0 c 0.218,0 0.399,0.173 0.399,0.392 l 0,9.176 c 0,0.217 -0.181,0.391 -0.399,0.391 l -25.495,0 c -0.225,0 -0.399,0.18 -0.399,0.406 l 0,11.923 c 0,0.212 0.174,0.391 0.399,0.391 l 26.239,0 c 0.22,0 0.393,0.182 0.393,0.4 l 0,9.19 c 0,0.226 -0.173,0.399 -0.393,0.399 l -38.547,0 z m 265.650991,-23.237 -7.797001,0 c -0.106,0 -0.234,-0.083 -0.279,-0.179 l -8.6248,-20.279 c -0.047,-0.091 -0.114,-0.091 -0.159,0 l -8.633,20.279 c -0.046,0.096 -0.166,0.179 -0.273,0.179 l -7.797,0 c -0.106,0 -0.195,-0.09 -0.195,-0.195 l 0,-32.473 c 0,-0.104 0.089,-0.195 0.195,-0.195 l 6.865,0 c 0.104,0 0.195,0.091 0.195,0.195 l 0,18.096 c 0,0.105 0.03,0.112 0.075,0.015 l 7.401,-18.125 c 0.037,-0.098 0.164,-0.181 0.27,-0.181 l 3.951,0 c 0.107,0 0.234,0.083 0.271,0.181 l 7.407,18.486 c 0.038,0.105 0.068,0.099 0.068,-0.015 l 0,-18.457 c 0,-0.104 0.089,-0.195 0.202,-0.195 l 6.858001,0 c 0.113,0 0.204,0.091 0.204,0.195 l 0,32.473 c 0,0.105 -0.091,0.195 -0.204,0.195 m -55.769001,-26.616 c -5.697,0 -8.249,5.119 -8.249,10.186 0,5.073 2.552,10.183 8.249,10.183 5.7,0 8.251,-5.11 8.251,-10.183 0,-5.067 -2.551,-10.186 -8.251,-10.186 m 0,27.204 c -10.508,0 -16.01,-8.566 -16.01,-17.018 0,-8.455 5.502,-17.02 16.01,-17.02 10.508,0 16.018,8.565 16.018,17.02 0,8.452 -5.51,17.018 -16.018,17.018 m -105.78719,22.649 c -0.218,0 -0.398,-0.173 -0.398,-0.399 l 0,-9.19 c 0,-0.218 0.18,-0.4 0.398,-0.4 l 15.431,0 c 0.211,0 0.391,-0.179 0.391,-0.391 l 0,-45.208 c 0,-0.211 0.181,-0.392 0.391,-0.392 l 11.494,0 c 0.219,0 0.4,0.181 0.4,0.392 l 0,45.208 c 0,0.212 0.173,0.391 0.391,0.391 l 15.439,0 c 0.21,0 0.39,0.182 0.39,0.4 l 0,9.19 c 0,0.226 -0.18,0.399 -0.39,0.399 l -43.937,0 z m 77.24399,-44.238 c -0.105,0.008 -0.15,-0.051 -0.256,-0.436 -0.97,-3.147 -3.522,-5.179 -6.51,-5.179 -4.826,0 -7.82099,3.885 -7.82099,10.14 0,6.029 3.14599,10.229 7.64699,10.229 3.463,0 5.924,-2.078 6.752,-5.721 0,0 0.06,-0.203 0.076,-0.292 0.022,-0.083 0.127,-0.174 0.218,-0.181 0.097,-0.008 7.136,0.458 7.136,0.458 0.113,0 0.203,0.091 0.188,0.204 -0.038,0.248 -0.099,0.474 -0.099,0.474 -1.55,7.677 -6.646,11.893 -14.346,11.893 -9.03299,0 -15.33999,-7.001 -15.33999,-17.018 0,-10.501 5.879,-17.02 15.33999,-17.02 6.932,0 12.178,4.08 14.378,11.2 0.044,0.136 0.112,0.362 0.15,0.504 0.044,0.128 -0.075,0.204 -0.182,0.212 l -7.331,0.533 z m -107.42699,19.444 -7.791,0 c -0.219,0 -0.4,0.188 -0.4,0.398 l 0,14.468 c 0,0.225 0.181,0.398 0.4,0.398 l 7.383,0 c 8.852,0 10.975,-3.575 10.975,-7.593 0,-3.569 -2.123,-7.671 -10.567,-7.671 m 11.742,-7.49 c 7.707,2.273 11.125,9.808 11.125,15.612 0,9.303 -7.384,16.672 -20.316,16.672 l -22.634,0 c -0.219,0 -0.4,-0.173 -0.4,-0.399 l 0,-55.189 c 0,-0.211 0.181,-0.392 0.4,-0.392 l 11.494,0 c 0.218,0 0.398,0.181 0.398,0.392 l 0,21.309 c 0,0.219 0.174,0.4 0.392,0.4 l 6.443,0 c 0.248,0 0.467,-0.166 0.572,-0.354 0.083,-0.158 11.667,-21.386 11.667,-21.386 0.091,-0.196 0.347,-0.361 0.565,-0.361 l 13.849,0 c 0.219,0 0.31,0.158 0.205,0.347 0,0 -13.933,22.972 -13.956,23.003 -0.076,0.12 -0.031,0.286 0.196,0.346 m -258.952,22.295 26.24,0 c 0.219,0 0.391,0.182 0.391,0.4 l 0,9.19 c 0,0.226 -0.172,0.399 -0.391,0.399 l -38.525,0 c -0.218,0 -0.398,-0.173 -0.398,-0.399 l 0,-55.189 c 0,-0.211 0.18,-0.392 0.398,-0.392 l 38.525,0 c 0.219,0 0.391,0.181 0.391,0.392 l 0,9.191 c 0,0.218 -0.172,0.399 -0.391,0.399 l -26.24,0 c -0.225,0 -0.399,0.18 -0.399,0.39 l 0,12.541 c 0,0.218 0.174,0.399 0.399,0.399 l 25.503,0 c 0.225,0 0.399,0.173 0.399,0.392 l 0,9.176 c 0,0.217 -0.174,0.391 -0.399,0.391 l -25.503,0 c -0.225,0 -0.399,0.18 -0.399,0.406 l 0,11.923 c 0,0.212 0.174,0.391 0.399,0.391 m 150.662,-75.194 c -0.114,0 -0.203,-0.091 -0.203,-0.194 l 0,-21.228 c 0,-0.106 0.089,-0.195 0.203,-0.195 l 12.126,0 c 0.113,0 0.204,0.089 0.204,0.195 l 0,2.499 c 0,0.106 -0.091,0.196 -0.204,0.196 l -9.026,0 c -0.105,0 -0.195,0.089 -0.195,0.196 l 0,6.359 c 0,0.098 0.09,0.189 0.195,0.189 l 8.755,0 c 0.105,0 0.188,0.09 0.188,0.211 l 0,2.484 c 0,0.106 -0.083,0.195 -0.188,0.195 l -8.755,0 c -0.105,0 -0.195,0.091 -0.195,0.211 l 0,5.797 c 0,0.105 0.09,0.194 0.195,0.194 l 9.026,0 c 0.113,0 0.204,0.091 0.204,0.198 l 0,2.499 c 0,0.103 -0.091,0.194 -0.204,0.194 l -12.126,0 z m -240.126,0 c -0.106,0 -0.188,-0.091 -0.188,-0.194 l 0,-21.228 c 0,-0.106 0.082,-0.195 0.188,-0.195 l 12.141,0 c 0.106,0 0.196,0.089 0.196,0.195 l 0,2.499 c 0,0.106 -0.09,0.196 -0.196,0.196 l -9.025,0 c -0.113,0 -0.203,0.089 -0.203,0.196 l 0,6.359 c 0,0.098 0.09,0.189 0.203,0.189 l 8.74,0 c 0.113,0 0.202,0.09 0.202,0.211 l 0,2.484 c 0,0.106 -0.089,0.195 -0.202,0.195 l -8.74,0 c -0.113,0 -0.203,0.091 -0.203,0.211 l 0,5.797 c 0,0.105 0.09,0.194 0.203,0.194 l 9.025,0 c 0.106,0 0.196,0.091 0.196,0.198 l 0,2.499 c 0,0.103 -0.09,0.194 -0.196,0.194 l -12.141,0 z m -63.97301,0 c -0.107,0 -0.234,-0.082 -0.28,-0.18 l -7.444,-16.634 c -0.052,-0.1 -0.12,-0.1 -0.166,0 l -7.451,16.634 c -0.046,0.098 -0.166,0.18 -0.279,0.18 l -2.996,0 c -0.113,0 -0.195,-0.091 -0.195,-0.194 l 0,-21.228 c 0,-0.106 0.082,-0.195 0.195,-0.195 l 2.718,0 c 0.105,0 0.195,0.089 0.195,0.195 l 0,14.783 c 0,0.12 0.045,0.12 0.083,0.032 l 6.722,-14.831 c 0.053,-0.097 0.174,-0.179 0.286,-0.179 l 1.603,0 c 0.106,0 0.234,0.082 0.279,0.179 l 6.73,14.951 c 0.044,0.096 0.075,0.09 0.075,-0.016 l 0,-14.919 c 0,-0.106 0.09,-0.195 0.202,-0.195 l 2.718,0 c 0.106,0 0.196,0.089 0.196,0.195 l 0,21.228 c 0,0.103 -0.09,0.194 -0.196,0.194 l -2.995,0 z m -55.699,85.183 c -0.226,0 -0.474,-0.159 -0.572,-0.353 l -10.146,-20.806 c -0.091,-0.196 -0.242,-0.196 -0.339,0 l -9.74,20.806 c -0.091,0.194 -0.354,0.353 -0.565,0.353 l -13.534,0 c -0.218,0 -0.316,-0.159 -0.211,-0.353 l 17.81,-32.879 c 0.097,-0.182 0.188,-0.527 0.188,-0.738 l 0,-21.618 c 0,-0.211 0.173,-0.392 0.391,-0.392 l 11.502,0 c 0.218,0 0.391,0.181 0.391,0.392 l 0,21.618 c 0,0.211 0.083,0.556 0.188,0.738 l 17.569,32.879 c 0.105,0.194 0.007,0.353 -0.21,0.353 l -12.722,0 z m 80.02601,-98.039 -5.586,0 c -0.105,0 -0.165,0.09 -0.127,0.188 l 2.853,8.062 c 0.038,0.089 0.098,0.089 0.135,0 l 2.853,-8.062 c 0.038,-0.098 -0.023,-0.188 -0.128,-0.188 m -1.521,12.856 -2.529,0 c -0.112,0 -0.233,-0.091 -0.271,-0.189 l -8.001,-21.24 c -0.037,-0.099 0.022,-0.188 0.128,-0.188 l 3.086,0 c 0.106,0 0.226,0.089 0.264,0.188 l 1.941,5.502 c 0.038,0.105 0.159,0.18 0.264,0.18 l 7.693,0 c 0.113,0 0.226,-0.075 0.264,-0.18 l 1.949,-5.502 c 0.03,-0.099 0.151,-0.188 0.264,-0.188 l 3.078,0 c 0.106,0 0.166,0.089 0.128,0.188 l -7.994,21.24 c -0.038,0.098 -0.158,0.189 -0.264,0.189 m 75.815,0 c -0.106,0 -0.189,-0.091 -0.189,-0.194 l 0,-2.499 c 0,-0.107 0.083,-0.198 0.189,-0.198 l 5.924,0 c 0.113,0 0.203,-0.089 0.203,-0.194 l 0,-18.337 c 0,-0.106 0.083,-0.195 0.188,-0.195 l 2.718,0 c 0.105,0 0.195,0.089 0.195,0.195 l 0,18.337 c 0,0.105 0.098,0.194 0.211,0.194 l 5.917,0 c 0.105,0 0.195,0.091 0.195,0.198 l 0,2.499 c 0,0.103 -0.09,0.194 -0.195,0.194 l -15.356,0 z m -52.811,-10.23 9.356,10.08 c 0.075,0.084 0.046,0.15 -0.059,0.15 l -3.81,0 c -0.104,0 -0.255,-0.066 -0.324,-0.15 l -7.933,-8.958 c -0.068,-0.074 -0.128,-0.06 -0.128,0.061 l 0,8.853 c 0,0.103 -0.091,0.194 -0.196,0.194 l -2.717,0 c -0.106,0 -0.196,-0.091 -0.196,-0.194 l 0,-21.228 c 0,-0.106 0.09,-0.195 0.196,-0.195 l 2.717,0 c 0.105,0 0.196,0.089 0.196,0.195 l 0,9.529 c 0,0.107 0.06,0.135 0.128,0.045 l 7.979,-9.619 c 0.075,-0.083 0.218,-0.15 0.323,-0.15 l 3.862,0 c 0.105,0 0.135,0.067 0.068,0.15 l -9.462,10.945 c -0.076,0.074 -0.076,0.21 0,0.292 m 54.455,48.361 c -11.456,0 -17.192,9.017 -17.192,19.051 0,10.064 5.736,19.066 17.192,19.066 11.487,0 17.215,-9.002 17.215,-19.066 0,-10.034 -5.728,-19.051 -17.215,-19.051 m 0,48.091 c -19.164,0 -29.974,-13.993 -29.974,-29.04 0,-15.017 10.81,-29.025 29.974,-29.025 19.186,0 29.988,14.008 29.988,29.025 0,15.047 -10.802,29.04 -29.988,29.04 m 93.846,-95.254 c -3.847,0.753 -4.336,2.017 -4.336,3.041 0,1.687 1.129,3.486 4.314,3.486 3.018,0 4.328,-1.799 4.328,-3.5 0,-0.084 0.089,-0.197 0.196,-0.197 l 2.792,-0.007 c 0.105,0 0.196,0.082 0.196,0.195 0,0.053 -0.031,0.248 -0.031,0.248 -0.564,4.08 -3.086,6.159 -7.511,6.159 -4.284,0 -7.4,-2.697 -7.4,-6.384 0,-3.893 2.725,-5.224 7.43,-6.202 3.733,-0.783 4.651,-1.446 4.651,-3.381 0,-1.761 -1.437,-3.544 -4.622,-3.544 -2.995,0 -4.546,1.249 -4.945,3.854 -0.023,0.126 -0.09,0.195 -0.203,0.195 l -2.687,0 c -0.121,0 -0.211,0 -0.203,-0.195 0.157,-4.366 3.131,-6.745 7.925,-6.745 5.917,0 8.01,3.582 8.01,6.654 0,4.005 -2.778,5.314 -7.904,6.323 m -205.14401,85.28 c 11.472,0 17.208,-9.002 17.208,-19.066 0,-10.034 -5.736,-19.051 -17.208,-19.051 -11.47,0 -17.199,9.017 -17.199,19.051 0,10.064 5.729,19.066 17.199,19.066 m 0,-48.091 c 19.164,0 29.98901,14.008 29.98901,29.025 0,15.047 -10.82501,29.04 -29.98901,29.04 -19.164,0 -29.973,-13.993 -29.973,-29.04 0,-15.017 10.809,-29.025 29.973,-29.025 m 161.21501,-28.157 c -0.105,0 -0.196,-0.091 -0.196,-0.194 l 0,-21.228 c 0,-0.106 0.091,-0.195 0.196,-0.195 l 12.135,0 c 0.119,0 0.194,0.089 0.194,0.195 l 0,2.499 c 0,0.106 -0.075,0.196 -0.194,0.196 l -9.018,0 c -0.106,0 -0.196,0.089 -0.196,0.196 l 0,6.359 c 0,0.098 0.09,0.189 0.196,0.189 l 8.746,0 c 0.106,0 0.196,0.09 0.196,0.211 l 0,2.484 c 0,0.106 -0.09,0.195 -0.196,0.195 l -8.746,0 c -0.106,0 -0.196,0.091 -0.196,0.211 l 0,5.797 c 0,0.105 0.09,0.194 0.196,0.194 l 9.018,0 c 0.119,0 0.194,0.091 0.194,0.198 l 0,2.499 c 0,0.103 -0.075,0.194 -0.194,0.194 l -12.135,0 z m -14.03,0 c -0.106,0 -0.188,-0.091 -0.188,-0.194 l 0,-8.688 c 0,-0.12 -0.091,-0.211 -0.204,-0.211 l -9.454,0 c -0.105,0 -0.196,0.091 -0.196,0.211 l 0,8.688 c 0,0.103 -0.09,0.194 -0.203,0.194 l -2.717,0 c -0.106,0 -0.196,-0.091 -0.196,-0.194 l 0,-21.228 c 0,-0.106 0.09,-0.195 0.196,-0.195 l 2.717,0 c 0.113,0 0.203,0.089 0.203,0.195 l 0,9.25 c 0,0.098 0.091,0.189 0.196,0.189 l 9.454,0 c 0.113,0 0.204,-0.091 0.204,-0.189 l 0,-9.25 c 0,-0.106 0.082,-0.195 0.188,-0.195 l 2.725,0 c 0.105,0 0.194,0.089 0.194,0.195 l 0,21.228 c 0,0.103 -0.089,0.194 -0.194,0.194 l -2.725,0 z m -80.554,85.183 c -0.218,0 -0.474,-0.159 -0.572,-0.353 l -10.131,-20.806 c -0.091,-0.196 -0.242,-0.196 -0.331,0 l -9.755,20.806 c -0.091,0.194 -0.347,0.353 -0.557,0.353 l -13.55,0 c -0.218,0 -0.316,-0.159 -0.211,-0.353 l 17.817,-32.879 c 0.098,-0.182 0.189,-0.527 0.189,-0.738 l 0,-21.618 c 0,-0.211 0.173,-0.392 0.391,-0.392 l 11.501,0 c 0.219,0 0.391,0.181 0.391,0.392 l 0,21.618 c 0,0.211 0.091,0.556 0.189,0.738 l 17.561,32.879 c 0.105,0.194 0.016,0.353 -0.203,0.353 l -12.729,0 z" /><path
       inkscape:connector-curvature="0"
       id="path3374"
       style="fill:#000000;fill-opacity:1;fill-rule:nonzero;stroke:none"
       d="m 637.85547,335.64763 -82.68185,-100.1072 c -4.59561,-5.55466 -14.99641,-5.5253 -22.89193,0 l -142.19971,100.1072 c -5.56836,3.90666 -5.997,10.25401 -1.04713,14.02562 l 91.66561,70.27487 c 3.69919,2.84388 11.0506,2.84388 16.44281,0 L 630.54712,349.7026 c 7.18896,-3.80096 10.53193,-10.10525 7.30835,-14.05497 M 357.07892,371.6394 c -4.94792,-3.49172 -13.184,-3.49172 -18.11822,0.0137 l -92.41914,65.03141 c -3.75791,2.62075 -2.77146,6.86602 2.106,9.42805 l 92.4622,48.67668 c 3.80292,2.01792 10.00543,2.01792 13.83576,0 l 48.43985,-25.5166 c 4.4038,-2.28411 4.93617,-6.11444 1.11759,-8.48662 l -64.89441,-40.51496 c -4.58387,-2.82627 -4.73066,-7.58628 -0.17811,-10.5476 l 0.19181,-0.11743 c 4.59757,-3.03569 12.22691,-3.03569 16.84014,0 l 64.77893,42.23735 c 3.75595,2.46222 10.63566,2.46222 15.32131,0 l 10.82748,-5.73081 c 4.86375,-2.56203 5.8502,-6.8073 2.09425,-9.42805 L 357.07892,371.6394 Z M 305.91458,335.63393 163.68552,235.51107 c -7.89749,-5.5253 -18.28263,-5.5253 -22.8802,0 L 58.125434,335.63393 c -3.241197,3.92036 0.103734,10.26771 7.308352,14.03932 L 198.83763,419.8894 c 5.42157,2.87324 12.77298,2.87324 16.48588,0 l 91.66756,-70.21615 c 4.92051,-3.77161 4.50557,-10.11896 -1.07649,-14.03932 m -158.90675,171.118 c -2.71078,1.85742 -1.10388,4.93617 3.52304,6.76228 l 89.0429,35.72755 c 3.72659,1.4875 9.08944,1.4875 11.96268,0 l 67.79896,-35.71189 c 3.50542,-1.84177 3.29991,-4.92052 -0.51476,-6.77794 l -92.00616,-45.67035 c -4.78938,-2.38784 -11.59472,-2.38784 -14.98271,0 l -64.82395,45.67035 z m 229.66702,6.76228 67.81462,35.72755 c 2.87324,1.4875 8.22043,1.4875 11.97638,0 l 89.01549,-35.71189 c 4.64063,-1.84177 6.26123,-4.92052 3.53479,-6.77794 l -64.80829,-45.67035 c -3.40169,-2.38784 -10.22465,-2.38784 -15.04143,0 l -91.9768,45.67035 c -3.78531,1.85742 -3.99278,4.93617 -0.51476,6.76228 M 643.78984,365.05523 c 0,0 -96.02439,48.52793 -97.0265,49.02899 -1.40139,0.70656 -1.40139,0.70656 -0.7692,2.68142 3.66984,11.84525 22.79408,73.69222 26.71248,86.0992 1.94354,6.25927 -3.9184,13.49325 -16.17663,18.25131 l -88.4381,34.34377 c -5.95199,2.32521 -13.24468,3.60916 -20.52367,3.60916 -7.27704,0 -13.79075,-1.28395 -18.40006,-3.60916 l -68.02209,-34.35943 c -6.8484,-3.44671 -9.69423,-8.27915 -8.43964,-12.96283 0.0137,-0.1468 -0.13309,-0.39928 -0.25248,-0.39928 -1.48751,0.10569 -3.04939,0.17811 -4.5369,0.17811 -1.4738,0 -3.07874,-0.0724 -4.55255,-0.17811 -0.11743,0 -0.27988,0.25248 -0.23682,0.39928 1.23893,4.68368 -1.60494,9.51612 -8.4416,12.96283 l -68.03579,34.35943 c -4.59561,2.32521 -11.10736,3.60916 -18.41376,3.60916 -7.27899,0 -14.55603,-1.28395 -20.52367,-3.60916 l -88.4244,-34.34377 c -12.27193,-4.75806 -18.12017,-11.99204 -16.16097,-18.25131 3.88904,-12.40698 23.04068,-74.25395 26.6929,-86.0992 0.60479,-1.97486 0.60479,-1.97486 -0.77898,-2.68142 C 148.05496,413.58316 52.026659,365.05523 52.026659,365.05523 28.146315,353.01818 15.784357,332.1422 25.950287,318.51391 l 47.570835,-81.33918 69.848188,-95.2317 c 15.33698,-19.8582 43.90296,-18.54685 67.00237,-1.29569 0,0 110.59803,87.48296 120.30792,95.12796 7.54322,5.997 11.66909,12.50875 11.75717,20.15571 0.0137,1.1626 -0.0157,3.53478 -0.0157,5.15538 0,0.3249 0.38362,0.60479 0.63415,0.51475 1.4738,-0.61848 3.99278,-0.91207 4.86179,-0.91207 0.85336,0 3.37234,0.29359 4.84614,0.91207 0.26619,0.09 0.66351,-0.18985 0.66351,-0.51475 -0.0157,-1.6206 -0.045,-3.99278 -0.0294,-5.15538 0.0587,-7.64696 4.18263,-14.15871 11.77087,-20.15571 9.66487,-7.645 120.29227,-95.12796 120.29227,-95.12796 23.0994,-17.25116 51.65169,-18.56251 66.973,1.29569 l 69.86189,95.2317 47.60215,81.33918 c 10.12092,13.62829 -2.23908,34.50427 -26.10768,46.54132 m -288.21213,104.18806 -0.18985,0.14875 c -4.06716,2.25279 -10.69635,2.25279 -14.7498,0 L 299.1209,446.11257 c -4.59561,-2.56203 -5.0673,-6.8073 -1.04516,-9.42805 l 0.19181,-0.14679 c 4.09651,-2.68143 11.31483,-2.68143 15.89674,0 l 41.56209,24.21894 c 4.0926,2.38784 3.96146,6.18881 -0.14875,8.48662" /></g></svg>