<?xml version="1.0" encoding="UTF-8" standalone="no"?>
<!-- Created with Inkscape (http://www.inkscape.org/) -->

<svg
   xmlns:dc="http://purl.org/dc/elements/1.1/"
   xmlns:cc="http://creativecommons.org/ns#"
   xmlns:rdf="http://www.w3.org/1999/02/22-rdf-syntax-ns#"
   xmlns:svg="http://www.w3.org/2000/svg"
   xmlns="http://www.w3.org/2000/svg"
   xmlns:sodipodi="http://sodipodi.sourceforge.net/DTD/sodipodi-0.dtd"
   xmlns:inkscape="http://www.inkscape.org/namespaces/inkscape"
   width="317.78223mm"
   height="282.22223mm"
   viewBox="0 0 1126 1000"
   id="svg2"
   version="1.1"
   inkscape:version="0.91 r13725"
   sodipodi:docname="ic_menu_yoyotuts.svg">
  <defs
     id="defs4" />
  <sodipodi:namedview
     id="base"
     pagecolor="#ffffff"
     bordercolor="#666666"
     borderopacity="1.0"
     inkscape:pageopacity="0.0"
     inkscape:pageshadow="2"
     inkscape:zoom="0.35"
     inkscape:cx="300.85715"
     inkscape:cy="428.57141"
     inkscape:document-units="px"
     inkscape:current-layer="layer1"
     showgrid="false"
     fit-margin-top="0"
     fit-margin-left="0"
     fit-margin-right="0"
     fit-margin-bottom="0"
     inkscape:window-width="1600"
     inkscape:window-height="837"
     inkscape:window-x="1912"
     inkscape:window-y="-8"
     inkscape:window-maximized="1" />
  <metadata
     id="metadata7">
    <rdf:RDF>
      <cc:Work
         rdf:about="">
        <dc:format>image/svg+xml</dc:format>
        <dc:type
           rdf:resource="http://purl.org/dc/dcmitype/StillImage" />
        <dc:title></dc:title>
      </cc:Work>
    </rdf:RDF>
  </metadata>
  <g
     inkscape:label="Calque 1"
     inkscape:groupmode="layer"
     id="layer1"
     transform="translate(368.71429,39.06637)">
    <path
       style="fill:#000000;fill-opacity:1"
       d="M 0 -126 L 0 -125.71484 L 1126 -125.71484 L 1126 -126 L 0 -126 z M 305.60938 74.244141 C 305.00152 74.21463 305.22719 74.329322 306.25 74.630859 C 308.01207 75.150319 308.72259 77 307.16016 77 C 305.92819 77 303.75937 82.217376 304.70312 82.910156 C 306.0499 83.898766 306.16204 92.327414 304.86133 94.757812 C 303.92293 96.511223 303.91395 97.314313 304.82031 98.220703 C 306.28233 99.682723 306.33515 104.98221 304.9082 107 C 303.96525 108.33333 303.89468 108.33333 304.26562 107 C 304.8305 104.96968 297.61639 100.66984 295.02539 101.49219 C 293.08226 102.10892 289.0638 100.56458 287.875 98.744141 C 287.53116 98.217621 286.2563 98.100618 285.04102 98.486328 C 283.30454 99.037468 282.95908 99.70314 283.43359 101.59375 C 283.88362 103.38686 283.6289 104 282.43164 104 C 280.87255 104 269 114.78657 269 116.20312 C 269 116.84771 267.15552 119.02224 261.92969 124.53516 C 260.86863 125.6545 260 127.28141 260 128.15039 C 260 129.01938 259.1 130.87502 258 132.27344 C 256.9 133.67186 256 135.47676 256 136.28516 C 256 137.09357 255.325 138.31531 254.5 139 C 253.675 139.68469 253 141.0904 253 142.12305 C 253 143.15571 252.55 144 252 144 C 250.66668 144 250.71076 151.70235 252.04883 152.5293 C 252.77798 152.97994 252.77244 153.56986 252.03125 154.46289 C 250.7673 155.98585 251.76322 159.26359 253.2168 158.36523 C 253.77066 158.02293 254.5539 158.2774 254.95703 158.92969 C 255.50314 159.81332 256.63686 159.66345 259.4043 158.34375 C 262.47516 156.87936 263.26452 156.80798 263.95898 157.93164 C 265.07583 159.73873 268.04876 158.52632 268.71094 155.99414 C 268.99788 154.89692 269.63994 154 270.13672 154 C 270.63351 154 272.8113 152.88249 274.97656 151.51562 C 277.34556 150.02015 279.5918 149.29011 280.61719 149.68359 C 281.98315 150.20775 282.20852 149.90639 281.75391 148.16797 C 281.41542 146.87357 281.65355 145.98672 282.34375 145.9668 C 282.97976 145.9485 285.91099 142.77064 288.85742 138.90625 C 293.78924 132.43793 296.54349 130.24631 294.17188 134.67773 C 293.47423 135.98127 293.57098 137.06028 294.49805 138.32812 C 295.70603 139.98013 295.86992 139.86976 296.50195 136.99219 C 296.98934 134.77309 297.62298 134.02569 298.67578 134.42969 C 299.49354 134.74349 300.68951 135.01452 301.33203 135.03125 C 301.97454 135.04795 301.6883 135.53367 300.69531 136.11133 C 299.70232 136.689 298.47465 138.24947 297.96875 139.58008 C 297.46286 140.91068 296.364 142 295.52539 142 C 294.68678 142 294 142.675 294 143.5 C 294 144.325 293.61497 145 293.14453 145 C 292.67409 145 291.88659 146.38474 291.39453 148.07617 C 290.90247 149.7676 290.12079 151.08587 289.6582 151.00781 C 288.43046 150.80064 286.06823 154.21529 286.03125 156.25 C 286.01355 157.22532 285.22532 158.01353 284.25 158.03125 C 281.41838 158.08275 279.45943 160.18957 277.53516 165.25 C 276.54174 167.8625 275.33856 170 274.86328 170 C 274.388 170 274 170.84429 274 171.87695 C 274 172.9096 273.325 174.31531 272.5 175 C 271.675 175.68469 271 177.0904 271 178.12305 C 271 179.15571 270.325 180 269.5 180 C 268.66667 180 268 179.11111 268 178 C 268 175.63228 266.73037 175.41508 265.00977 177.48828 C 264.00955 178.69347 264.08073 179.09454 265.38672 179.5957 C 266.27366 179.93605 267 180.84126 267 181.60742 C 267 183.29977 267.2199 183.31323 270.49219 181.82227 C 271.98934 181.14012 272.8609 180.08114 272.56445 179.30859 C 272.18955 178.33164 272.70398 178.1391 274.48438 178.58594 C 276.07781 178.98586 277.87938 178.52182 279.70898 177.24023 C 281.2445 176.16462 288.35 172.2325 295.5 168.50195 C 302.65 164.77142 309.29315 161.03161 310.26367 160.19141 C 311.2342 159.35121 313.0342 158.55268 314.26367 158.41602 C 315.49315 158.27936 316.83554 158.12982 317.24609 158.08398 C 318.42055 157.95287 326.88901 148.89353 329.71094 144.75 C 331.11559 142.6875 332.69749 141 333.22461 141 C 333.75172 141 331.89201 143.91533 329.0918 147.47852 C 323.7742 154.24504 323.36133 155 324.98828 155 C 325.53216 155 328.26811 151.85 331.06836 148 C 333.86862 144.15 336.57421 141 337.08008 141 C 338.46925 141 338.1832 137.24042 336.75 136.66211 C 336.00643 136.36208 336.21178 136.12508 337.25781 136.07812 C 338.78345 136.00962 338.84966 135.70429 337.75781 133.76953 C 337.06565 132.54302 335.825 130.98373 335 130.30273 C 333.67104 129.20575 333.67628 129.05943 335.04883 129.03125 C 336.22658 129.00705 336.50009 128.1608 336.18945 125.5 C 335.96472 123.575 335.33187 122 334.7832 122 C 334.23452 122 334.03478 121.35435 334.33789 120.56445 C 334.64101 119.77456 334.00964 118.01002 332.93555 116.64453 C 331.86145 115.27903 330.70611 112.77664 330.36719 111.08203 C 330.02827 109.38742 329.1222 108 328.35547 108 C 327.34689 108 327.14591 107.26818 327.62695 105.35156 C 328.04471 103.68706 327.92104 102.93214 327.29297 103.32031 C 326.74318 103.6601 325.69195 102.71401 324.95898 101.21875 L 323.62695 98.5 L 322.98633 102 L 322.34766 105.5 L 321.17383 102.68555 C 320.5283 101.13725 320 99.42165 320 98.875 C 320 98.32835 319.58728 98.136959 319.08203 98.449219 C 318.57679 98.761469 317.87289 97.700657 317.51953 96.091797 C 317.16616 94.482947 316.27403 92.935874 315.53516 92.652344 C 313.97881 92.055114 311.90564 83.462749 312.74805 81.099609 C 313.06166 80.219879 312.92915 79.854833 312.45312 80.289062 C 311.97711 80.723283 310.8919 79.604764 310.04102 77.802734 C 309.14251 75.899824 307.6558 74.439753 306.49609 74.320312 C 306.10708 74.280245 305.81198 74.253978 305.60938 74.244141 z M 453.95703 78 C 452.62628 78 454.21865 82.379951 456.58984 85.244141 C 459.426 88.669971 460.49849 91.901914 459.22266 93.177734 C 458.21645 94.183954 450.42374 92.471211 448.55078 90.832031 C 448.02828 90.374751 445.14285 90 442.13867 90 C 436.2358 90 429.90618 92.907586 424.91602 97.910156 C 423.49462 99.335086 419.32256 103.35885 415.64453 106.85352 C 407.80838 114.29901 396.31035 131.19334 394.21484 138.3418 C 392.8521 142.99054 392.87754 143.43693 394.56641 144.67188 C 395.56557 145.40246 397.98403 146.03735 399.94141 146.08203 C 401.89879 146.12673 404.85 146.28281 406.5 146.42969 C 408.15 146.57657 411.3 146.09684 413.5 145.36328 C 415.7 144.62973 418.74371 144.02168 420.26367 144.01367 C 421.78363 144.00567 423.80863 143.60035 424.76367 143.11133 C 431.47578 139.67441 434.00173 138.66774 434.54688 139.21289 C 434.89069 139.5567 434.1484 140.38574 432.89844 141.05469 C 431.64849 141.72365 429.72585 143.10917 428.625 144.13477 C 427.52414 145.16038 426.06999 146 425.39453 146 C 424.71907 146 424.01732 146.37343 423.83398 146.83008 C 423.65065 147.28673 420.37908 149.12511 416.56445 150.91602 C 406.95704 155.42654 396 162.75012 396 164.66016 C 396 165.86444 395.32813 166.11485 393.23047 165.69531 C 390.93044 165.2353 389.7619 165.8604 386.3418 169.375 C 384.0764 171.70299 382.05994 174.40245 381.86133 175.37305 C 381.46201 177.32439 379.67641 178.43157 369.79492 182.85352 C 364.17015 185.3706 362.83994 186.4494 361.54492 189.54883 C 360.69574 191.58121 360 194.25951 360 195.5 C 360 196.74048 359.38459 198.26475 358.63281 198.88867 C 354.14015 202.61725 350.11832 235.19536 352.50781 248.5 C 355.65353 266.01531 357.66492 269.5192 367.04102 273.81055 C 373.04034 276.55639 373.81135 277.23572 374.27148 280.19141 C 374.55471 282.01084 374.19108 284.85001 373.46484 286.5 C 371.71241 290.48125 369.643 309.20464 370.25977 315.5 C 370.52919 318.25 371.72455 325.45001 372.91602 331.5 C 374.30041 338.52964 375.21083 347.55318 375.4375 356.5 C 375.8388 372.33945 376.47481 376.32371 379.23242 380.27344 C 380.77814 382.48738 381.02093 383.89758 380.43359 387.27344 C 380.02905 389.59858 379.76187 394.15216 379.83984 397.39453 C 379.91784 400.63688 379.3705 405.13688 378.625 407.39453 C 377.83122 409.79837 377.43324 414.08988 377.66406 417.75 C 377.90831 421.62301 377.6672 424 377.0293 424 C 375.74631 424 375.66348 431.25667 376.93164 432.55078 C 378.25335 433.89955 382 448.74219 382 452.62891 C 382 454.41787 382.45189 456.16077 383.00391 456.50195 C 383.55593 456.8431 383.74844 458.15573 383.43164 459.41797 C 383.07533 460.83763 383.46275 462.32018 384.44922 463.30664 C 385.52644 464.38386 386.07246 466.82796 386.12891 470.83789 C 386.18561 474.86572 386.81888 477.69411 388.09961 479.63672 C 389.13774 481.21136 389.99052 483.52965 389.99414 484.78906 C 390.00214 487.4554 386.33694 495.03255 384.33008 496.5 C 382.83606 497.59247 383.51512 504 385.125 504 C 385.60625 504 386.00279 508.1625 386.00586 513.25 C 386.01286 524.62798 387.12853 528.89251 391.00195 532.34375 C 392.65095 533.81302 393.98736 535.57456 393.97266 536.25781 C 393.95796 536.94107 392.13412 539.47799 389.91992 541.89453 C 383.92604 548.43614 384.56409 550.53166 393.97266 555.23438 C 398.08234 557.28854 403.70734 561.00603 406.47266 563.49609 C 409.23797 565.98614 414.3125 569.36913 417.75 571.01172 C 423.20054 573.61623 424 574.35224 424 576.77539 C 424 578.62983 422.97129 580.45749 420.90625 582.26953 C 416.42332 586.20322 416.02612 591.00735 419.51367 599.12109 C 423.42349 608.21724 424.59493 610.97791 426.45312 615.48633 C 427.35677 617.67883 428.90849 620.37884 429.90234 621.48633 C 430.89619 622.59385 432.61392 625.30001 433.71875 627.5 C 435.67671 631.39881 436.37772 633.44884 439.11133 643.25 C 440.0725 646.69621 440.93651 648 442.25977 648 C 443.26291 648 444.62868 648.43396 445.29297 648.96484 C 453.74632 655.72042 454.94916 657.36629 459.3457 668.18359 C 460.23386 670.36885 462.07269 672.50366 463.86719 673.43164 C 465.53089 674.29197 468.10686 676.12184 469.5918 677.49805 C 471.07674 678.87425 472.66553 680 473.12109 680 C 473.57666 680 474.6298 681.31868 475.46289 682.92969 C 476.29598 684.54072 477.76975 686.12989 478.73828 686.46289 C 480.8269 687.181 487.95484 695.98479 489.58398 699.85938 C 490.21345 701.35643 492.33967 704.36348 494.31055 706.54102 C 502.37122 715.44687 508.27117 722.65554 509.62109 725.25 C 510.40806 726.7625 511.43326 728 511.90039 728 C 512.69762 728 514.42714 733.61091 514.13477 735.25 C 514.06117 735.6625 514.69771 736 515.55078 736 C 516.40384 736 517.7694 737.59536 518.58398 739.54492 C 520.40108 743.89385 524.60284 748.73941 527.30078 749.5957 C 530.83938 750.71881 535.98426 756.22105 536.94922 759.91602 C 537.46396 761.88702 538.16112 765.525 538.5 768 C 539.15772 772.80356 540.48751 774.32329 545.66992 776.19727 C 548.99283 777.39885 552 782.55004 552 787.04102 C 552 788.20521 553.04563 789.51899 554.5 790.18164 C 555.875 790.80814 557 791.93743 557 792.69141 C 557 793.44539 557.675 794.32209 558.5 794.63867 C 560.53997 795.42148 560.38783 797.60716 558.18359 799.19336 C 555.38563 801.20679 554.87916 803.77514 556.50977 807.67773 C 558.37957 812.15281 558.39922 814 556.57422 814 C 555.7895 814 554.51535 815.26462 553.74414 816.81055 C 552.53539 819.23355 552.5433 820.04455 553.79688 822.69141 C 555.21677 825.68955 557.58501 826.88424 565.25 828.46875 C 566.7625 828.78142 568 829.70501 568 830.51953 C 568 831.33405 568.45 832 569 832 C 569.55 832 570 832.82241 570 833.82812 C 570 834.83384 571.38388 837.74494 573.07422 840.29688 C 575.53708 844.01512 576.87786 845.06416 579.82422 845.58008 C 581.84638 845.93416 584.49669 846.84806 585.71484 847.61133 C 586.93299 848.3746 589.33257 849 591.04688 849 C 592.7851 849 596.72051 850.49786 599.94336 852.38672 C 605.86946 855.85991 616 858.21142 616 856.11328 C 616 853.88141 620.85969 853.74517 623.59961 855.90039 C 627.03168 858.60006 632.2999 858.60754 639.47266 855.92383 C 643.21269 854.5245 648.06822 853.7367 654.37305 853.50586 C 659.51709 853.31752 665.78019 852.85474 668.28906 852.47852 C 671.32193 852.02371 675.08144 852.35426 679.50977 853.46484 C 684.18824 854.63816 686.96419 854.85947 688.83594 854.20703 C 690.62657 853.58287 693.14003 853.70371 696.5 854.57422 C 702.08422 856.021 711.8814 857.50432 713.6582 857.17188 C 715.26017 856.87212 728 863.05038 728 864.12695 C 728 864.60747 729.35 865 731 865 C 732.65 865 734 864.55 734 864 C 734 862.58384 737.30889 862.76128 740.35156 864.33984 C 742.27201 865.33618 744.52 865.46093 749.13281 864.83008 C 754.39447 864.11051 755.94991 864.28039 759.41602 865.95508 C 766.48248 869.36931 784 872.35051 784 870.13867 C 784 869.06646 788.83071 869.91611 789.57422 871.11914 C 790.59874 872.77684 793.39015 871.99975 796.24805 869.26172 C 797.81979 867.75589 799.64439 866.48169 800.30273 866.42969 C 803.10787 866.20809 808 864.69515 808 864.04883 C 808 862.74993 814.48788 864.19697 815.73242 865.77344 C 817.40429 867.8912 822.97518 867.79717 824.1875 865.63086 C 824.86301 864.4238 826.23445 863.99137 828.89648 864.14844 C 832.16382 864.34123 832.59751 864.65356 832.23633 866.54297 C 831.89713 868.31737 832.40918 868.83222 835.03516 869.35742 C 836.80301 869.71099 839.55344 870 841.14648 870 C 843.26559 870 844.34826 870.67093 845.18164 872.5 C 845.89301 874.06129 847.10524 874.97118 848.41016 874.92188 C 849.55937 874.87847 849.9375 874.6153 849.25 874.33789 C 848.5625 874.06048 848 872.94867 848 871.86719 C 848 868.47219 845.10199 864 842.90234 864 C 841.77718 864 840.22741 863.36999 839.45703 862.59961 C 838.25611 861.39868 838.26984 861.02173 839.55273 859.95703 C 840.37569 859.27403 841.33804 859.00404 841.69141 859.35742 C 842.04479 859.71079 841.80768 860 841.16602 860 C 840.52427 860.00004 840 860.45001 840 861 C 840 861.55 841.33398 862 842.96484 862 C 844.85604 862 847.21255 863.1245 849.46875 865.10547 C 853.03078 868.23297 856.50892 868.48698 855.37695 865.53711 C 855.05238 864.6913 855.02159 864 855.31055 864 C 856.53482 864 864 871.44325 864 872.66406 C 864 873.39884 864.75845 874 865.68555 874 C 866.61266 874 869.50616 875.8 872.11523 878 C 874.7243 880.20001 877.51283 882 878.3125 882 C 880.48503 882 881.09169 878.08053 879.41992 874.84766 C 878.56399 873.19247 878.37825 872 878.97461 872 C 879.53873 872 880 872.41866 880 872.92969 C 880 874.16721 888.67912 879.98689 889.41992 879.24609 C 890.31034 878.35568 890.10693 874.20965 889.1543 873.83398 C 888.68939 873.65065 888.01947 872.31733 887.66602 870.87305 L 887.02344 868.24805 L 893.73438 871.50781 C 897.42475 873.30052 901.02737 874.54308 901.74023 874.26953 C 902.4531 873.99597 904.39302 874.33487 906.05078 875.02148 C 909.87654 876.60617 910.61184 875.86267 908.46484 872.58594 C 906.82308 870.0803 906.83664 870 908.91797 870 C 910.09977 870 912.31665 871.2375 913.84375 872.75 C 915.37085 874.2625 918.61869 877.40385 921.06055 879.73047 C 923.50241 882.05709 925.95 884.44956 926.5 885.04688 C 927.39964 886.02391 928.91893 887.06925 935.49609 891.23633 C 936.59373 891.93176 938.80912 893.37314 940.41992 894.44141 C 942.29791 895.68687 945.06761 896.38477 948.14062 896.38477 C 951.1648 896.38477 953.11889 896.8662 953.43555 897.69141 C 953.71155 898.41064 955.30148 899 956.96875 899 C 958.63601 899 960 899.40615 960 899.90234 C 960 901.04975 965.9362 903.15837 967.11523 902.42969 C 968.91758 901.31577 967.90274 900.20477 964.5 899.56641 C 960.55583 898.82648 960.66945 899.0003 961.94531 895.64453 C 963.26766 892.16649 966.11373 893.14544 972.1543 899.1543 C 976.99265 903.96725 977.13119 904.39773 973.72852 904.04883 C 970.98658 903.76769 961 906.04333 961 906.94922 C 961 907.39315 961.96215 908.39461 963.13867 909.17578 L 965.27734 910.59766 L 962.88672 913.17773 C 961.57129 914.59713 959.59664 915.94376 958.49805 916.17188 C 956.59665 916.56667 956.6118 916.64898 958.81445 917.86328 C 960.60346 918.84948 961.45141 918.87108 962.55469 917.95508 C 963.50158 917.16918 965.56606 917.00816 968.68945 917.47656 C 972.94967 918.11546 973.26789 918.02821 972.05469 916.56641 C 970.07801 914.18461 971.44306 913.58846 974.41406 915.53516 C 977.11088 917.30216 978.04329 920.33739 975.60156 919.40039 C 974.83219 919.10519 973.92014 919.32096 973.57422 919.88086 C 973.21261 920.46596 974.52836 921.19556 976.67188 921.59766 C 979.15211 922.06296 980.52842 921.91274 980.7832 921.14844 C 981.37289 919.37934 984.51947 919.7848 987.13867 921.9668 C 990.18462 924.50433 993.19366 924.52031 994.76367 922.00781 C 995.89398 920.19741 995.60714 919.82661 991.61719 917.95117 C 986.24282 915.42487 979 909.36551 979 907.39648 C 979 906.15582 979.42915 906.17056 982 907.5 C 983.65 908.35325 985 909.44619 985 909.92773 C 985 913.2997 1003.623 918.0386 1005.4238 915.125 C 1005.8108 914.4987 1005.4223 913.71662 1004.5625 913.38672 C 1003.7026 913.05673 1003 912.33288 1003 911.7793 C 1003 910.63719 1005.8993 911.05296 1014.3926 913.41211 C 1021.3476 915.34401 1022.838 914.80428 1017.373 912.33398 C 1015.2424 911.37091 1012.4778 909.69015 1011.2285 908.59766 C 1008.4299 906.15039 1006.1299 905.70317 1003.4316 907.08398 C 1001.7059 907.96709 1000.8121 907.62674 998.02734 905.02539 C 995.70275 902.8539 995.00878 901.59083 995.73828 900.86133 C 996.46778 900.13183 997.40384 900.14701 998.82617 900.9082 C 999.94906 901.50915 1001.6849 901.99963 1002.6836 901.99805 C 1004.2995 901.99505 1014.9084 905.8811 1019.0898 908.00781 C 1019.964 908.45244 1021.223 908.47984 1021.8887 908.06836 C 1022.6927 907.57148 1021.2371 905.88297 1017.5508 903.03906 C 1014.4984 900.6841 1012 898.4457 1012 898.06445 C 1012 897.25267 1005.4498 894 1003.8145 894 C 1002.6284 894 995.03761 886.022 995.01367 884.75 C 994.96757 882.30326 1001.6032 886.63919 1009.4004 894.15039 C 1011.5456 896.21697 1014.5138 898.17443 1015.9961 898.5 C 1017.4784 898.82558 1019.6736 900.41997 1020.875 902.04492 C 1023.2465 905.25261 1026 905.97137 1026 903.38281 C 1026 902.24717 1026.6078 901.92548 1028.043 902.30078 C 1029.3851 902.65175 1030.4965 902.17774 1031.2832 900.91797 C 1031.9419 899.86328 1033.4975 899 1034.7402 899 C 1037.3485 899 1037.6554 897.78881 1035.5 896 C 1032.9573 893.88972 1033.8155 892.87541 1037.5508 893.57617 C 1040.3463 894.1006 1041.3867 893.85184 1042.4395 892.41211 C 1043.1751 891.40615 1043.5916 890.09678 1043.3633 889.50195 C 1043.135 888.90713 1044.5352 887.84779 1046.4746 887.14648 C 1050.665 885.63123 1051.1284 882.94164 1047.5332 881.01758 C 1044.5203 879.40513 1045.1541 878 1048.8926 878 C 1052.2494 878 1053.3309 877.10499 1051.9648 875.45898 C 1051.247 874.59408 1051.3977 874.06168 1052.4746 873.64844 C 1053.5314 873.24291 1054 871.67036 1054 868.53125 C 1054 866.03899 1054.45 864 1055 864 C 1055.55 864 1056 864.47613 1056 865.05859 C 1056 865.64105 1056.4418 865.84467 1056.9805 865.51172 C 1058.4125 864.62673 1055.939 861.08663 1054.3223 861.70703 C 1053.5518 862.00269 1053 861.51831 1053 860.54492 C 1053 859.55344 1053.7109 858.94703 1054.75 859.05273 C 1058.7647 859.46111 1059 859.10077 1059 852.55859 C 1059 849.01605 1059.3982 845.87103 1059.8848 845.57031 C 1060.3714 845.26958 1061.0029 843.78095 1061.2891 842.26172 C 1061.5753 840.74249 1062.5153 837.61849 1063.377 835.31836 C 1064.5855 832.09227 1064.7013 830.44399 1063.8867 828.10742 C 1063.0022 825.5701 1063.2775 823.97612 1065.5742 818.28906 C 1068.2077 811.76806 1068.3074 810.8684 1068.1074 795.5 C 1067.9928 786.7 1067.6982 775.675 1067.4531 771 C 1067.208 766.325 1066.8229 751.025 1066.5977 737 C 1066.3726 722.975 1065.4623 703.85 1064.5762 694.5 C 1063.69 685.15 1062.7335 674.83632 1062.4492 671.58008 C 1062.165 668.32384 1061.1835 664.04884 1060.2676 662.08008 C 1058.2189 657.67687 1046.3583 641.28671 1044.8594 640.78711 C 1044.26 640.5873 1042.9356 638.22233 1041.9141 635.53125 C 1039.8351 630.05452 1040.2419 628.96058 1045.3477 626.32031 C 1047.5851 625.1633 1051.2645 624.79892 1059.9199 624.875 C 1074.1946 625.0005 1075.0296 624.60803 1072.4902 618.97656 C 1071.4548 616.68034 1069.2321 613.75957 1067.5527 612.48438 C 1064.5566 610.20946 1047.3611 602.88356 1037.5 599.68164 C 1034.75 598.7887 1029.6858 597.14521 1026.2461 596.0293 C 1022.8064 594.9134 1019.3377 594 1018.5391 594 C 1017.7405 594 1014.7984 592.65 1012 591 C 1009.2016 589.35 1006.5724 588 1006.1582 588 C 1005.1267 588 998.73577 581.11405 996.67773 577.78516 C 995.7546 576.29204 995 574.37952 995 573.53516 C 995 572.69081 994.4665 572 993.81445 572 C 993.1624 572 991.69036 571.11892 990.54297 570.04102 C 989.35953 568.92923 983.70635 566.8442 977.47852 565.22461 L 966.5 562.37109 L 958.5 554.05078 C 954.1 549.47495 945.25226 540.42088 938.83789 533.92969 C 932.42351 527.43852 926.84978 521.08485 926.45312 519.8125 C 925.35794 516.29943 913.7975 502.15106 901.39453 489.14453 C 895.28679 482.73956 888.57949 475.56743 886.48828 473.20508 C 879.78709 465.63506 853.89692 446.08056 842.83789 440.23633 C 839.72391 438.59074 833.37458 434.71445 828.72852 431.62305 C 824.08246 428.53168 814.25559 422.91326 806.89062 419.13672 C 799.52567 415.36018 789.05594 409.94125 783.625 407.09375 C 778.19406 404.24623 773.51891 402.14904 773.23438 402.43359 C 772.94981 402.71814 771.88713 410.92015 770.87305 420.66211 C 768.61213 442.38223 766.71984 453.95948 762.92188 469.32031 C 761.31457 475.82097 760 481.40783 760 481.73633 C 760 482.06481 759.75485 482.08885 759.45508 481.78906 C 759.15532 481.4893 759.34493 479.27549 759.87695 476.87109 C 763.17966 461.94502 767.42549 432.54816 768.66797 416 C 769.62033 403.31595 769.34085 383.41911 767.98828 367.5 C 766.84085 353.99516 761.86196 325.42835 759.55664 319.12305 C 758.8282 317.13071 756.97758 311.22501 755.44336 306 C 752.81769 297.05788 751.23717 292.99849 745.4082 280.2207 C 744.08354 277.3169 742.99258 274.61691 742.98438 274.2207 C 742.96018 273.05462 728.91107 249.67147 723.79883 242.28906 C 721.21316 238.55521 714.65501 231 709.22461 225.5 C 697.28447 213.40684 695.32116 211.68115 687 205.96484 C 683.425 203.50896 680.34935 201.1625 680.16602 200.75 C 679.98268 200.3375 679.30768 200.00583 678.66602 200.01367 C 677.47854 200.02817 664.91223 193.96524 664 192.9375 C 663.3901 192.25038 653.49327 188.80457 646 186.67188 C 637.77569 184.33112 620.55041 182.7531 611.5 183.50977 C 577.74294 186.33206 547.15521 201.58097 519.42773 229.41406 C 507.21002 241.67831 493.7472 261.44239 485.98828 278.5 C 477.8884 296.30721 478.04762 296.04608 475.96289 294.74414 C 473.32475 293.0966 463.61476 268.57347 463.6875 263.74219 C 463.7458 259.86918 463.93175 259.53478 474.70898 244 C 477.95225 239.325 483.1266 231 486.20703 225.5 C 502.1519 197.031 505.19749 184.56814 505.39258 147 C 505.48198 129.78309 505.20767 125.5391 503.67188 120.5 C 499.72728 107.55753 489.26807 94.618638 478.95703 89.923828 C 476.02926 88.590758 469.3807 85.3625 464.18164 82.75 C 458.98258 80.1375 454.38094 78 453.95703 78 z M 314.36523 107.3457 C 314.45618 107.35947 314.56389 107.51335 314.68359 107.8125 C 314.97246 108.53437 314.93577 109.39622 314.60352 109.72852 C 314.27123 110.06081 314.03472 109.47018 314.07812 108.41602 C 314.10812 107.68792 314.21367 107.32275 314.36523 107.3457 z M 312.82617 111.50781 C 313.1525 111.58681 312.72039 113.7319 311.55078 116.53125 C 310.75384 118.43858 309.66015 120 309.11914 120 C 308.57814 120 307.8655 120.84619 307.53711 121.88086 C 307.20872 122.91553 306.05437 124.78568 304.9707 126.03516 C 302.90285 128.41941 302.2056 132.60828 304.06836 131.45703 C 304.65586 131.09393 304.94561 130.28031 304.71289 129.64844 C 304.48016 129.01657 305.34931 127.38491 306.64453 126.02148 C 307.93976 124.65805 309 123.89207 309 124.32031 C 309 125.65335 305.7793 131.46164 304.61133 132.23438 C 302.49377 133.63531 300 133.03642 300 131.12695 C 300 130.09705 302.30924 126.38455 305.13086 122.87695 C 307.95249 119.36935 310.85995 115.15 311.5918 113.5 C 312.15783 112.22386 312.54276 111.61787 312.75 111.51953 C 312.7785 111.50601 312.80442 111.50255 312.82617 111.50781 z M 305.36523 115.3457 C 305.45618 115.35947 305.56389 115.51335 305.68359 115.8125 C 305.97246 116.53437 305.93577 117.39622 305.60352 117.72852 C 305.27123 118.06081 305.03472 117.47018 305.07812 116.41602 C 305.10812 115.68792 305.21367 115.32275 305.36523 115.3457 z M 303.78516 115.72852 C 304.16679 115.78122 303.82612 116.97581 302.75 119.29297 C 301.48758 122.01128 300.50621 122.62889 299.65039 121.24414 C 299.39341 120.82833 300.26727 119.22736 301.5918 117.6875 C 302.75421 116.33612 303.48833 115.68752 303.78516 115.72852 z M 298.54102 123.38672 C 298.83707 123.37142 299.32741 123.58471 300.02148 124.01367 C 301.09233 124.67549 301.18681 125.21358 300.375 126.02539 C 299.56319 126.8372 299.08988 126.676 298.60938 125.42383 C 298.09031 124.07117 298.04759 123.41222 298.54102 123.38672 z M 298.07422 128.14258 C 298.94168 128.16794 299.25949 129.1409 298.29688 130.10352 C 297.57869 130.8217 297.01782 130.83928 296.5957 130.15625 C 296.24965 129.59633 296.45522 128.83683 297.05078 128.46875 C 297.43515 128.2312 297.78507 128.13413 298.07422 128.14258 z M 332.65039 132 C 333.37377 132 331.04501 135.8549 329.89062 136.56836 C 329.28653 136.94171 329.56642 136.06577 330.51172 134.62305 C 331.45703 133.18034 332.4193 132 332.65039 132 z M 325 146 C 325.05162 146.05162 324.74889 146.45697 324.12695 147.25 C 322.82058 148.91575 322 149.44609 322 148.62305 C 322 148.4154 322.7875 147.6279 323.75 146.87305 C 324.54303 146.25111 324.94838 145.94838 325 146 z M 334.55859 146.96094 C 333.94572 146.92261 332.77396 148.13989 331.55859 150.25 L 329.6875 153.5 L 332.34375 151.07617 C 333.80472 149.74279 335 148.28029 335 147.82617 C 335 147.25628 334.83717 146.97836 334.55859 146.96094 z M 248.18555 157.625 C 247.74162 157.63086 247.24391 157.74842 246.67383 157.97461 C 245.4781 158.44905 243.6 159.16119 242.5 159.55664 C 240.6285 160.22945 240.66063 160.32344 243 161.03711 C 244.375 161.45658 245.58386 161.84557 245.68555 161.90039 C 245.78725 161.95519 247.07239 161.54348 248.54297 160.98438 C 250.71165 160.15985 250.99404 159.6968 250.0332 158.53906 C 249.51548 157.91525 248.92543 157.61523 248.18555 157.625 z M 282.64258 160.29883 C 282.9029 160.32503 282.68002 160.68072 282.01953 161.47656 C 280.5794 163.2118 280 163.39338 280 162.10742 C 280 161.61626 280.73784 160.93041 281.64062 160.58398 C 282.15531 160.38648 282.48639 160.28311 282.64258 160.29883 z M 251.00977 180.03711 C 250.24724 180.03636 249.84334 180.27868 250.51953 180.76562 C 251.08073 181.1697 252.08353 182.7375 252.74805 184.25 C 254.25286 187.67512 254.46125 187.67533 254.66016 184.25195 C 254.74796 182.74156 254.29793 181.17338 253.66016 180.76758 C 252.89482 180.28061 251.77229 180.03785 251.00977 180.03711 z M 248.37305 182.00781 C 248.33816 181.9992 248.29992 182.07999 248.25781 182.26172 C 248.03329 183.23097 247.4322 183.76731 246.92383 183.45312 C 246.40384 183.13176 246 185.13056 246 188.02344 C 246 195.60553 248.39868 194.10386 248.54883 186.42773 C 248.60067 183.77874 248.52423 182.04512 248.37305 182.00781 z M 251.46875 185.46484 C 250.94715 185.34751 250.16297 187.14354 249.69141 190.25977 C 249.19637 193.53107 249.30884 193.83375 250.56055 192.58203 C 251.35189 191.79071 252 189.67037 252 187.87109 C 252 186.29414 251.78171 185.53525 251.46875 185.46484 z M 303.40039 195.49805 C 302.81865 195.48047 301.85096 196.1367 300.73047 197.3457 C 299.37739 198.8057 297.7592 200 297.13477 200 C 296.51034 200 296 200.675 296 201.5 C 296 202.33735 295.10987 203 293.98438 203 C 292.66949 203 291.39352 204.20241 290.31836 206.45703 C 289.41163 208.35848 288.29531 209.68235 287.83594 209.39844 C 287.37657 209.11454 287 209.3428 287 209.90625 C 287 210.46975 285.65 212.31207 284 214 C 281.04556 217.02235 280.04151 221.28959 282 222.5 C 282.55 222.83992 283 224.16301 283 225.44141 C 283 228.26636 280.67827 229.03815 275.19336 228.03516 C 271.20461 227.30577 268 228.22215 268 230.0918 C 268 231.14626 267.04938 232.42306 262.93555 236.89844 C 261.52521 238.43273 259.80124 241.22071 259.10352 243.09375 C 258.40581 244.9668 257.19028 247.99243 256.40234 249.81641 C 255.13457 252.75111 255.15693 253.52795 256.60156 256.57227 C 257.91046 259.33058 257.98852 260.30851 256.99805 261.50195 C 256.00596 262.69735 256.08137 263.47489 257.375 265.44922 C 258.73296 267.52173 259.65297 267.8619 263.24219 267.61914 C 265.58382 267.46076 269.15113 266.61965 271.16992 265.75 C 273.61376 264.69725 276.52789 261.88423 279.88672 257.33398 C 282.66136 253.57515 284.94577 250.0019 284.96484 249.39258 C 285.04634 246.78794 292.43569 234.20601 295.81641 230.91602 C 300.48866 226.36917 305.03381 218.91068 305.67773 214.73242 C 305.95168 212.9548 307.06465 210.05154 308.15039 208.28125 C 309.43655 206.18417 310.01593 203.74484 309.8125 201.28125 C 309.5509 198.11307 309.09465 197.44238 307 197.14844 C 305.625 196.9555 304.20569 196.32368 303.8457 195.74414 C 303.74633 195.58416 303.5943 195.50391 303.40039 195.49805 z M 624.09766 223.17383 C 631.41055 223.23709 642.72207 224.3782 646.76953 225.82422 C 649.66784 226.85968 652.32969 227.99766 652.68555 228.35352 C 653.04141 228.70937 653.95848 229 654.72266 229 C 657.17071 229 668.18544 234.94134 672.41016 238.54102 C 683.1977 247.73259 694.67572 260.48241 697.96289 266.92578 C 699.18495 269.3212 701.04244 272.20372 702.0918 273.33008 C 703.14115 274.45643 704 275.93519 704 276.61719 C 704 277.2992 704.5625 278.45095 705.25 279.17773 C 706.40877 280.40272 709.74065 288.55621 710.49023 292 C 711.29577 295.70084 712.30306 298 713.11719 298 C 713.60304 298 714.00247 298.7875 714.00586 299.75 C 714.00886 300.7125 714.61313 302.65108 715.34766 304.05859 C 716.08219 305.46611 716.99673 308.57287 717.37891 310.96289 C 717.76109 313.35291 718.37192 315.79393 718.73828 316.38672 C 719.10465 316.97951 719.50755 318.14775 719.63281 318.98242 C 719.75806 319.81709 720.76391 325 721.86719 330.5 C 725.70139 349.61393 726.50479 359.64215 726.35547 386.5 C 726.2475 405.92134 725.79034 414.77722 724.55078 421.5 C 723.63808 426.45 722.25454 434.65192 721.47461 439.72656 C 720.69469 444.80121 719.342 451.32621 718.46875 454.22656 C 717.59549 457.12692 716.41078 461.3 715.83789 463.5 C 715.26501 465.7 713.94267 470.02205 712.89844 473.10352 C 711.8542 476.18499 711 479.44749 711 480.35352 C 711 481.25955 710.55 482 710 482 C 709.45 482 709 483.03578 709 484.30078 C 709 485.56578 708.6282 487.02828 708.17383 487.55078 C 707.71946 488.07328 706.74603 490.4183 706.00977 492.76367 C 705.2735 495.10905 704.07031 497.52725 703.33594 498.13672 C 702.60157 498.74619 702 500.0623 702 501.0625 C 702 502.06269 701.52142 503.17818 700.9375 503.53906 C 700.35357 503.89995 699.40477 505.38859 698.82812 506.84766 C 697.84275 509.34097 697.73123 509.37971 696.96094 507.5 C 696.14136 505.5 696.13987 505.5 695.91406 507.5 C 695.78987 508.6 695.77642 510.5125 695.88281 511.75 C 695.98917 512.9875 695.60793 514 695.03711 514 C 694.46629 514 694 514.5335 694 515.18555 C 694 515.83761 693.15695 517.30011 692.12695 518.43555 C 691.09696 519.571 689.78361 521.85 689.20703 523.5 C 688.46268 525.63009 688.13418 525.92788 688.07812 524.52734 C 688.00342 522.66123 687.9161 522.67471 686.44336 524.77734 C 685.58717 525.99972 684.23717 527 683.44336 527 C 682.61148 527 682 527.95749 682 529.25977 C 682 530.50247 681.06204 532.1046 679.91602 532.82031 C 678.76278 533.54052 678.07418 534.75044 678.37305 535.5293 C 678.67006 536.30328 678.48301 537.20227 677.95703 537.52734 C 677.43101 537.85241 677 536.91231 677 535.4375 C 677 533.17618 676.76741 532.9481 675.51172 533.99023 C 674.69278 534.6699 674.31661 535.70205 674.67578 536.2832 C 675.08263 536.9415 674.70078 537.09901 673.66406 536.70117 C 672.74884 536.34997 672 536.53127 672 537.10352 C 672 537.67577 668.175 542.04776 663.5 546.81836 C 658.38746 552.03545 655 554.82798 655 553.82812 C 655 552.91386 654.4375 551.93952 653.75 551.66211 C 652.8357 551.29318 652.82258 551.13587 653.69922 551.07812 C 656.05926 550.92267 660 546.2671 660 543.63477 C 660 542.18534 660.39939 541 660.88672 541 C 661.37405 541 662.50972 539.44461 663.41211 537.54297 C 664.31449 535.64133 665.49206 533.81519 666.02734 533.48438 C 666.56262 533.15355 667 532.06269 667 531.0625 C 667 530.0623 667.72246 528.64494 668.60547 527.91211 C 671.42304 525.57373 678.20608 509.69915 677.3457 507.45703 C 677.07038 506.73957 677.77922 505.65255 678.92188 505.04102 C 680.06453 504.42949 680.99279 503.38299 680.98438 502.71484 C 680.97437 501.9517 680.60895 502.05771 680 503 C 679.20088 504.23654 679.02825 504.13916 679.01562 502.44922 C 679.00762 501.32172 679.40643 499.97172 679.9043 499.44922 C 680.40216 498.92672 681.47428 496.025 682.28516 493 C 683.09604 489.975 684.73558 483.9 685.92969 479.5 C 687.1238 475.1 688.22348 469.025 688.37305 466 C 688.52262 462.975 689.0211 459.65255 689.48047 458.61719 C 689.96014 457.53608 689.89602 456.04615 689.33008 455.11719 C 688.69377 454.07272 688.66957 449.9572 689.25977 443.5 C 690.65677 428.21643 688.36338 400.67497 684.34766 384.5 C 679.56594 365.23969 667.12237 342.88629 654.84375 331.5 C 646.98984 324.21685 637.46923 316.03714 634.47461 314 C 627.64365 309.35313 624.05783 307.22428 620.25 305.55664 C 617.91253 304.53294 616 303.31412 616 302.84766 C 616 302.38119 615.12613 302 614.05859 302 C 612.99105 302 611.85242 301.56895 611.52734 301.04297 C 611.20227 300.51699 610.27614 300.34057 609.46875 300.65039 C 608.66137 300.96021 608 300.76444 608 300.21484 C 608 299.0251 594.56795 295.55085 591.02539 295.82422 C 589.66438 295.92924 587.18938 295.36979 585.52539 294.58203 C 581.2709 292.56789 561.68762 290.86422 557.91406 292.17969 C 556.29155 292.7453 553.84465 292.92589 552.47461 292.58203 C 550.98843 292.20902 548.72328 292.60845 546.85938 293.57227 C 544.47606 294.80474 543.55597 294.90144 542.98438 293.97656 C 542.42272 293.06777 541.76751 293.18383 540.36719 294.44336 C 537.08938 297.39163 530.78675 301.12073 530.15234 300.48633 C 529.3838 299.71778 535.71899 287.35171 540.72656 279.8457 C 547.56046 269.60216 559.98168 255.09256 567.33594 248.76172 C 581.10721 236.90685 600.04413 226.68265 610.5 225.45703 C 613.8 225.07021 617.02314 224.33732 617.66211 223.82812 C 618.27578 223.33908 620.77361 223.14507 624.09766 223.17383 z M 534.75 306.26562 C 541.38997 306.10398 550.11358 307.61138 555.5 310.42188 C 559.17062 312.3371 556.93533 312.28384 551.5 310.32617 C 546.79921 308.63306 535.38902 308.15339 529 309.38086 C 524.68075 310.21069 524.56812 310.17387 526.21875 308.43945 C 527.53066 307.06094 530.76602 306.36262 534.75 306.26562 z M 562.58398 314.45508 C 562.66124 314.43959 562.75898 314.43945 562.87695 314.45703 C 563.03425 314.48048 563.2248 314.53377 563.44727 314.61914 C 565.17969 315.28393 565.49702 316 564.05859 316 C 563.54105 316 562.84383 315.55542 562.50781 315.01172 C 562.31075 314.69286 562.35222 314.50155 562.58398 314.45508 z M 545.58008 351.4375 C 549.11262 351.41583 555.23987 353.06931 561.33203 355.92383 L 567.37891 358.75781 L 562.43945 359.95508 C 556.41285 361.4164 555.06296 361.49764 552.5 360.55078 C 550.90046 359.95984 550.80035 360.02767 552 360.89062 C 552.825 361.48411 553.05 362.02847 552.5 362.09961 C 547.24201 362.77964 545.96422 362.74866 545.46289 361.9375 C 544.90411 361.03337 545.63408 360.61883 547.29297 360.89648 C 547.72903 360.96948 547.60071 360.12153 547.00781 359.01367 C 546.41491 357.90582 545.38299 356.98625 544.71484 356.96875 C 544.03387 356.95095 544.29604 356.33363 545.31055 355.56445 C 546.67637 354.52892 546.81308 354.0033 545.86914 353.41992 C 545.16162 352.98265 544.44576 353.16077 544.22266 353.83008 C 544.00572 354.48088 543.43799 354.77065 542.95898 354.47461 C 542.47998 354.17856 542.32667 353.31295 542.61914 352.55078 C 542.90564 351.80418 543.97438 351.44735 545.58008 351.4375 z M 582 362.02344 C 595.93323 362.00314 596.73898 362.1144 602.60742 364.89062 C 617.99851 372.17191 625.83603 388.16711 624.71094 410 C 623.66903 430.21877 615.87792 444.48859 602.20703 451.21875 C 596.67486 453.94223 594.3691 454.5053 588.5293 454.55664 C 582.36579 454.61084 581.46994 454.85545 581.2207 456.55859 C 581.06447 457.62613 580.29401 460.975 579.50781 464 C 578.7216 467.025 577.81754 471.02542 577.5 472.88867 C 576.80851 476.94625 575.29034 480 573.96484 480 C 573.43419 480 573 480.57654 573 481.28125 C 573 483.15805 562.29755 493.31678 556.5 496.94336 C 548.89792 501.69874 540.23227 504.00661 530.14453 503.96094 C 524.98343 503.93754 520.19034 503.35312 518.25 502.50977 C 516.4625 501.73285 515 500.40039 515 499.54883 C 515 497.72544 515.471 497.64613 518.06641 499.03516 C 519.39974 499.74874 520 499.74874 520 499.03516 C 520 498.46581 521.35 498 523 498 C 524.65 498 526 498.45905 526 499.01953 C 526 499.61 527.15658 499.78512 528.75 499.4375 C 530.86756 498.97555 531.15503 499.08378 530 499.9043 C 528.81429 500.74661 529.19291 500.97226 531.80859 500.98438 C 534.083 500.99487 534.89152 500.63423 534.39453 499.83008 C 533.90684 499.04099 534.21932 498.86944 535.35352 499.30469 C 537.30892 500.05505 553 496.08318 553 494.83789 C 553 494.37652 553.65919 494 554.46484 494 C 556.14149 494 558.27542 490.60747 557.24609 489.57812 C 556.8697 489.20175 557.40935 489.21961 558.44531 489.61719 C 559.67311 490.08835 560.09825 489.96769 559.66797 489.27148 C 559.30492 488.68405 555.74359 487.893 551.75391 487.51367 C 540.3389 486.42837 533.42761 480.5862 527.05273 466.63281 C 525.32729 462.85614 522.19648 457.23114 520.0957 454.13281 C 514.28969 445.56981 510.99056 438.44878 509.43945 431.13086 C 507.80408 423.41543 507.52308 406.41268 509.01562 405.49023 C 509.5746 405.14477 509.80229 404.48951 509.52148 404.03516 C 509.24066 403.58078 509.57148 402.99626 510.25586 402.73633 C 511.99515 402.07568 518 403.06008 518 404.00586 C 518 404.43458 518.65223 405.03597 519.44922 405.3418 C 520.41774 405.71347 520.71346 405.41773 520.3418 404.44922 C 519.61791 402.56279 522.85122 402.57154 525.34766 404.46289 C 526.36362 405.23262 527.82612 405.62029 528.59766 405.32422 C 529.3739 405.02635 530.00716 405.39171 530.01562 406.14258 C 530.02814 407.25178 530.18368 407.26035 530.86523 406.18555 C 531.38321 405.36871 532.15907 408.23894 532.91406 413.76367 C 533.64074 419.08121 535.11609 424.63529 536.58398 427.57812 C 537.9342 430.28506 538.76941 431.6 538.43945 430.5 C 538.10949 429.39999 537.60493 423.55 537.31836 417.5 C 536.36873 397.4515 541.64298 382.17444 553.21484 371.46094 C 562.59502 362.77654 564.81867 362.04853 582 362.02344 z M 580.62109 376.58789 C 578.05919 376.69461 572.53042 382.01746 569.29297 388.40625 C 567.17176 392.59227 566.84463 394.34306 567.2793 399.13672 C 567.86088 405.55054 568.4646 407 570.55859 407 C 571.35113 407 572 406.87478 572 406.7207 C 572 406.56664 574.25 400.61685 577 393.5 C 579.75 386.38315 582 379.57563 582 378.37305 C 582 377.09557 581.47506 376.55232 580.62109 376.58789 z M 604.52734 382.37305 C 599.55743 382.16981 594 388.29557 594 394.88672 C 594 397.62444 593.66466 398 591.22266 398 C 585.18849 398 580.71484 404.17362 580.71484 412.5 C 580.71484 421.4311 585.43475 426.7516 595.95117 429.67578 C 599.87642 430.76723 608.18448 430.61362 610.13477 429.41406 C 611.66143 428.4697 613.48689 414.58875 613.41016 404.5 C 613.31456 391.93575 611.10614 384.91676 606.60352 382.86523 C 605.93543 382.56083 605.23733 382.40208 604.52734 382.37305 z M 605.0625 404.58984 C 605.11756 404.5905 605.16486 404.6021 605.20508 404.62695 C 606.82984 405.6311 605.85281 407.64104 601.16406 412.9375 C 597.91132 416.6118 596.1065 417.98228 595.59961 417.16211 C 594.77945 415.83508 603.35574 404.56958 605.0625 404.58984 z M 187.94922 428.07227 C 187.16106 428.00519 186.93591 428.64955 187.28906 430 C 187.677 431.4835 187.32032 432 185.90625 432 C 184.72431 432 184 432.69732 184 433.83398 C 184 434.84231 183.4375 435.70989 182.75 435.76172 C 182.0625 435.81352 180.54756 436.14981 179.38281 436.50977 C 177.69352 437.03184 176.81671 436.43941 175.05078 433.58203 C 173.83317 431.61192 172.53561 430.01375 172.16797 430.03125 C 170.61229 430.10525 168 432.85025 168 434.41016 C 168 437.19246 170.83955 441.81436 172.96289 442.48828 C 174.05457 442.83477 175.81119 444.2161 176.86719 445.55859 C 177.9232 446.90108 179.37541 448 180.09375 448 C 180.99567 448 181.07949 448.3209 180.36328 449.03711 C 179.00078 450.39961 175.9369 449.20258 167.31055 443.93945 C 162.39155 440.93825 159.17356 439.69127 155.72461 439.44727 C 153.09823 439.26146 151.18059 439.48271 151.46289 439.93945 C 152.01851 440.83847 150.09091 447.18232 149.01367 448 C 147.86353 448.873 144.82581 461.107 145.39258 462.58398 C 145.72119 463.44031 145.30861 464 144.34766 464 C 142.9848 464 142.82936 465.13919 143.26562 471.97266 C 143.69394 478.68163 144.18996 480.43583 146.38867 483.04883 C 147.82563 484.75658 149.25741 487.35606 149.57031 488.82617 C 149.88321 490.29627 150.54672 492.5125 151.04688 493.75 C 151.86864 495.78327 151.67017 496 148.97852 496 C 146.48726 496 146 496.39978 146 498.44141 C 146 501.57739 147.31095 502.32684 152.65234 502.24609 C 156.52473 502.18759 157.44951 502.66107 161.24414 506.64258 C 164.44844 510.0047 165.98932 510.94958 167.49805 510.47656 C 168.59916 510.13135 170.84746 509.5274 172.49414 509.13477 C 176.54547 508.16877 176.73074 505.81719 173.17773 500.45312 C 169.29714 494.59452 169.82261 491.54795 174.58203 492.32031 C 178.6757 492.98462 180.48276 491.09672 180.17188 486.48047 C 179.99166 483.80451 180.74166 482.28866 183.96094 478.82227 C 186.16864 476.4451 187.98143 473.9375 187.98828 473.25 C 187.99528 472.5625 188.68987 472 189.5332 472 C 191.15699 472 198.09827 465.59191 197.90039 464.27539 C 197.6417 462.55427 199.28552 459.05873 200.11328 459.57031 C 200.60075 459.87158 201 459.19106 201 458.05859 C 201 456.92613 201.43 456 201.95508 456 C 202.92295 456 204.59022 449.48197 204.17383 447.32617 C 204.04904 446.68007 204.78713 445.55507 205.81445 444.82617 C 206.84176 444.09725 208.14927 442.6 208.7207 441.5 C 209.87086 439.28597 209.19644 432.06523 208.01758 433.97266 C 207.48582 434.83306 206.86909 434.72651 205.7168 433.57422 C 204.85116 432.70858 203.52075 432 202.75977 432 C 201.99879 432 199.43081 431.05913 197.05273 429.91016 C 194.26861 428.56502 192.50027 428.19018 192.08789 428.85742 C 191.67994 429.5175 190.91133 429.5565 189.97266 428.96289 C 189.09708 428.40918 188.42211 428.11251 187.94922 428.07227 z M 207.36523 429.3457 C 207.21366 429.32275 207.10811 429.68792 207.07812 430.41602 C 207.03474 431.47018 207.27122 432.0608 207.60352 431.72852 C 207.93581 431.39622 207.9725 430.53438 207.68359 429.8125 C 207.56389 429.51335 207.45618 429.35947 207.36523 429.3457 z M 190.93555 435.00977 C 191.55854 434.93858 191.85879 435.94975 192.15234 438.41211 C 192.59649 442.13762 190.30086 443.0469 189.41016 439.49805 C 189.03141 437.98899 189.22388 436.37767 189.85742 435.74414 C 190.30327 435.29829 190.65237 435.04212 190.93555 435.00977 z M 292.95898 445.20898 C 291.4809 445.2057 290.42024 446.07373 290.17969 447.75977 C 290.00394 448.99166 289.21644 450 288.42969 450 C 287.55995 450 287 451.00879 287 452.57227 C 287 453.98655 286.325 455.81757 285.5 456.64258 C 284.50322 457.63936 284 460.13697 284 464.08594 C 284 473.46972 288.89138 479.25654 299.55664 482.49219 C 302.27539 483.31702 305.175 484.4368 306 484.98047 C 308.72378 486.77541 315.31021 486.0888 318.13086 483.71484 C 323.47898 479.21367 326.28868 469.36411 323.6582 464.33984 C 320.57205 458.44525 311.88869 452.08451 304.10352 450.01367 C 301.6859 449.37057 298.47872 447.93482 296.97656 446.82422 C 295.51046 445.74028 294.1086 445.21154 292.95898 445.20898 z M 195.4668 457.02734 C 196.25092 457.05831 197.1364 457.41173 197.54102 458.06641 C 198.38437 459.43099 197.93229 459.7276 195.75 459.24219 C 194.7875 459.02811 194 458.43546 194 457.92578 C 194 457.28709 194.68267 456.99638 195.4668 457.02734 z M 252.26367 464.64062 C 246.88833 464.58821 242.50727 464.89041 241.85547 465.67578 C 240.28325 467.57019 242.56154 470 245.91016 470 C 247.37628 470 250.58502 471.06407 253.03906 472.36523 C 258.55561 475.29017 267.59252 475.76274 272.59961 473.38672 C 276.09741 471.72689 277.028 469.06677 274.75 467.24414 C 272.94132 465.79703 261.22258 464.72798 252.26367 464.64062 z M 758.71094 483.28516 C 759.18554 483.41929 758.9492 484.53122 758 486 C 757.1646 487.29269 757.02882 487.26587 757.01562 485.80859 C 757.00762 484.87856 757.45 483.83991 758 483.5 C 758.3164 483.30446 758.55274 483.24044 758.71094 483.28516 z M 706 484 C 705.45 484 705 484.9 705 486 C 705 487.1 705.45 488 706 488 C 706.55 488 707 487.1 707 486 C 707 484.9 706.55 484 706 484 z M 297.20898 506 C 295.53589 506 294.53804 506.89658 293.5957 509.25 C 290.70375 516.47248 288.53554 520.20351 287.70898 519.37695 C 287.37234 519.04031 286.80084 519.94291 286.43945 521.38281 C 286.07806 522.82271 285.36519 524 284.85547 524 C 284.3343 524 284.39808 524.87531 285 526 C 285.5887 527.1 285.8271 528 285.5293 528 C 285.2315 528 286.31099 529.82674 287.92773 532.05859 C 290.65327 535.8211 291.25448 537.38238 292.49414 543.92578 C 292.86342 545.87498 294.46297 547.89382 295.71094 547.98438 C 295.82702 547.99236 296.83952 547.01426 297.96094 545.81055 C 299.17836 544.50381 300 542.26253 300 540.24609 C 300 536.79536 301.48833 533.02665 303.32422 531.83203 C 303.88824 531.46501 304.38465 528.93018 304.42578 526.19727 C 304.48778 522.07687 304.08142 520.88823 302.04492 519.23828 C 299.77619 517.40018 299.67577 516.96285 300.73438 513.51367 C 302.12365 508.98697 300.72212 506 297.20898 506 z M 652 554 C 652.55 554 653 554.675 653 555.5 C 653 556.32501 652.55 557 652 557 C 651.45 557 651 556.32501 651 555.5 C 651 554.675 651.45 554 652 554 z M 712.33789 579.38086 C 712.60818 579.38768 712.63698 579.77986 712.38086 580.44727 C 711.71607 582.17968 711 582.49702 711 581.05859 C 711 580.54105 711.44458 579.84383 711.98828 579.50781 C 712.13 579.42023 712.2478 579.37859 712.33789 579.38086 z M 709.56055 582.92383 C 709.69127 582.90898 709.78465 582.96044 709.83008 583.08398 C 710.01177 583.57816 709.48225 584.66033 708.65234 585.49023 C 706.30711 587.83546 705.70646 587.2672 707.70312 584.5918 C 708.44425 583.59871 709.16837 582.96838 709.56055 582.92383 z M 705.75391 588 C 706.59557 588 703.68585 592.15205 700.66406 595.26367 C 698.80289 597.18016 696.99512 599.88434 696.64648 601.27344 C 696.29784 602.66255 694.04379 605.3077 691.63672 607.15039 C 689.22966 608.99309 684.47798 612.8625 681.07812 615.75 C 677.67827 618.63751 674.35622 620.98617 673.69727 620.96875 C 673.03833 620.95135 671.24754 620.00307 669.7168 618.86133 C 666.3859 616.37691 667.11766 615.00857 673.38281 612 C 675.64765 610.91241 679.075 608.99928 681 607.75 C 682.925 606.5007 686.03165 604.58445 687.9043 603.49023 C 689.77696 602.39602 694.48836 598.4625 698.37305 594.75 C 702.25775 591.0375 705.57942 588 705.75391 588 z M 959.31445 870.10352 C 959.93202 870.17032 961.42622 871.3903 963.5 873.55469 C 965.975 876.13783 968 878.64385 968 879.125 C 968 879.60614 968.65221 880 969.44922 880 C 971.32957 880 976.36832 886.59629 975.52734 887.95703 C 975.17273 888.5308 975.56776 889 976.40625 889 C 977.24475 889 979.31207 890.35 981 892 C 984.0902 895.02077 986.40421 895.77122 987.44336 894.08984 C 988.42503 892.50146 986.93623 890.20175 984.53711 889.59961 C 983.26258 889.27972 981.95237 888.31991 981.625 887.4668 C 981.12738 886.17002 981.64312 886.02482 984.76562 886.58008 C 989.33259 887.39222 994.65614 890.48909 996.08984 893.16797 C 997.5399 895.87743 996.46845 898.40026 994.24219 897.51758 C 991.04631 896.25045 986.12876 895.98258 985.47461 897.04102 C 984.50411 898.61132 986.85505 900.90518 990.375 901.82031 C 992.34694 902.33297 993.50229 903.26824 993.50781 904.35742 C 993.51281 905.30652 993.96262 906.40155 994.50781 906.79102 C 996.44739 908.17659 996.17675 911 994.10352 911 C 993.01187 911 991.83992 910.55 991.5 910 C 991.16008 909.45001 991.34496 909 991.91016 909 C 992.47536 909 992.69756 908.37555 992.4043 907.61133 C 992.09603 906.80799 991.05452 906.43394 989.93555 906.72656 C 988.81154 907.02049 988 906.72794 988 906.02734 C 988 904.36727 984.40751 901.42772 978.75 898.45898 C 976.1375 897.08809 974 895.60888 974 895.17188 C 974 893.71028 969.89217 889.94829 968.93945 890.53711 C 968.42223 890.85676 968 889.82524 968 888.24609 C 968 884.98592 964.44671 877 962.99609 877 C 962.46941 877 961.75527 875.875 961.41016 874.5 C 961.06506 873.125 960.38101 872 959.89062 872 C 959.40026 872 959 871.292 959 870.42773 C 959 870.18634 959.1086 870.08125 959.31445 870.10352 z M 955.74805 884 C 956.91514 884 959.03597 884.4426 960.46094 884.98438 C 963.07147 885.9769 967.7212 889.7563 966.92773 890.24023 C 961.63266 893.46961 959 893.82252 959 891.30469 C 959 890.37228 957.7904 888.34728 956.3125 886.80469 C 953.74401 884.12376 953.71971 884 955.74805 884 z M 1030.7734 884.06055 C 1031.2811 884.06055 1032.0306 884.37354 1033 885 C 1034.213 885.78387 1034.0694 885.97199 1032.25 885.98438 C 1031.0125 885.99238 1030 885.55 1030 885 C 1030 884.37354 1030.2658 884.06055 1030.7734 884.06055 z M 937.54883 885.23242 C 938.21739 885.24076 939.11756 885.3383 940.25 885.52539 C 945.28902 886.35788 945.93616 886.79606 943.9707 888.03906 C 941.93851 889.32426 939.81727 889.17671 937.75 887.60742 C 935.62025 885.99071 935.54316 885.20741 937.54883 885.23242 z M 892.76758 887.5293 C 892.36339 887.50886 891.96014 887.63947 891.625 887.97461 C 890.5335 889.06611 891.53588 892 893 892 C 893.58452 892 894.33985 891.27894 894.67773 890.39844 C 895.20833 889.01573 893.98015 887.59062 892.76758 887.5293 z M 1027.5 898 C 1028.325 898 1029 898.42387 1029 898.94141 C 1029 900.20239 1027.4376 901.10557 1026.6387 900.30664 C 1025.5125 899.18046 1025.9536 898 1027.5 898 z M 937.5 899.90039 L 940.63086 901.35156 C 942.35234 902.14947 944.06596 903.29609 944.43945 903.90039 C 944.81293 904.50471 946.01719 905 947.11719 905 C 948.21719 905 948.83992 904.55 948.5 904 C 948.16008 903.45001 947.04514 903 946.02344 903 C 945.00173 903 944.01732 902.58355 943.83398 902.07422 C 943.65065 901.56489 942.15 900.86828 940.5 900.52539 L 937.5 899.90039 z M 902.05859 903.03125 C 900.81233 903.05665 900.88955 903.35748 902.44141 904.53125 C 903.50903 905.33876 905.08403 905.98624 905.94141 905.96875 C 907.18767 905.94335 907.11045 905.64252 905.55859 904.46875 C 904.49097 903.66125 902.91597 903.01376 902.05859 903.03125 z M 909.75 907.00391 C 908.00519 906.99491 909.20741 909.0006 911.75 910.33984 C 914.61555 911.84919 917 912.36825 917 911.48438 C 917 910.84974 910.78499 907.00907 909.75 907.00391 z M 952.05859 910 C 951.47613 910 951 910.45001 951 911 C 951 911.55 951.19887 912 951.44141 912 C 951.68395 912 952.16008 911.55 952.5 911 C 952.83992 910.45001 952.64105 910 952.05859 910 z M 1004.9688 925.43555 C 1003.278 925.44518 1001 926.25551 1001 927.11719 C 1001 928.16139 1002.745 928.15602 1005.4336 927.10352 L 1005.4336 927.10156 C 1006.505 926.68206 1006.917 926.0665 1006.3574 925.7207 C 1006.0305 925.51863 1005.5322 925.43234 1004.9688 925.43555 z M 943.7832 927.00586 C 943.37267 927.00955 942.90747 927.34214 942.4707 928.04883 C 941.63884 929.39483 942.62663 932 943.96875 932 C 944.53601 932 945 930.875 945 929.5 C 945 927.90431 944.46743 926.99971 943.7832 927.00586 z "
       transform="translate(-368.71429,-39.06637)"
       id="rect4151" />
  </g>
</svg>
