<?xml version="1.0" encoding="UTF-8" standalone="no"?>
<svg
   xmlns:dc="http://purl.org/dc/elements/1.1/"
   xmlns:cc="http://creativecommons.org/ns#"
   xmlns:rdf="http://www.w3.org/1999/02/22-rdf-syntax-ns#"
   xmlns:svg="http://www.w3.org/2000/svg"
   xmlns="http://www.w3.org/2000/svg"
   xmlns:sodipodi="http://sodipodi.sourceforge.net/DTD/sodipodi-0.dtd"
   xmlns:inkscape="http://www.inkscape.org/namespaces/inkscape"
   width="1098"
   height="1098"
   id="svg2"
   version="1.1"
   inkscape:version="0.91 r13725"
   sodipodi:docname="ic_menu_blackhop.svg">
  <metadata
     id="metadata22">
    <rdf:RDF>
      <cc:Work
         rdf:about="">
        <dc:format>image/svg+xml</dc:format>
        <dc:type
           rdf:resource="http://purl.org/dc/dcmitype/StillImage" />
        <dc:title />
      </cc:Work>
    </rdf:RDF>
  </metadata>
  <defs
     id="defs20">
    <clipPath
       clipPathUnits="userSpaceOnUse"
       id="clipPath5070">
      <path
         inkscape:connector-curvature="0"
         id="path5072"
         d="m -2215.0623,-917.16042 0,65 c 9.425,-2.214 17.795,-9.446 27,-12.816 21.871,-8.006 49.767,-7.657 71,2.125 52.017,23.965 79.337,87.95199 49.572,139.69099 -13.793,23.974 -33.921,37.378 -58.572,48 l 0,2 c 36.33,14.007 63.434,42.687 69.561,82 2.594,16.645 0.439,35.156 0.439,52 l 0,46 c 0,5.762 1.754,14.253 -6.005,14.941 -8.189,0.727 -16.773,0.115 -24.995,0.058 -3.564,-0.024 -7.549,0.07 -8.682,-4.058 -2.178,-7.931 -0.318,-18.725 -0.318,-26.941 l 0,-59 c 0,-13.032 0.484,-26.743 -6.669,-38.285 -18.559,-29.948 -57.584,-42.185 -87.331,-20.426 -7.825,5.724 -13.94,12.971 -18.869,21.287 -9.39,15.844 -7.131,36.813 -7.131,54.424 l 0,73 -28,0 c -3.101,0 -7.971,0.822 -10.397,-1.603 -2.07,-2.071 -1.598,-5.738 -1.603,-8.397 l 0,-19 0,-77 c 0,-108.709 1,-217.346 1,-325.99999 -11.019,2.2277 -18.2924,15.9384 -20.9398,26 -2.4752,9.407 -1.0602,20.337 -1.0602,30 l 0,55.99999 0,361 0,100 c 0,8.24 -0.1317,16.224 3.0046,24 1.3811,3.424 2.2964,6.922 5.9954,8 3.808,-14.634 23.944,-18.825 33.292,-6.957 7.025,8.92 4.138,16.514 0.708,25.957 l 78,0 c -3.495,-4.077 -8.592,-6.022 -13,-9.029 -6.374,-4.347 -12.639,-9.504 -17.92,-15.145 -24.447,-26.113 -33.391,-63.626 -22.875,-97.826 11.404,-37.088 47.288,-66.104 85.795,-69.83 21.863,-2.116 43.902,3.512 63,13.911 9.06,4.933 17.223,11.169 24.996,17.918 4.18,3.629 8.627,6.919 11.004,12.001 -9.171,3.358 -17.624,9.801 -26,14.799 -3.171,1.893 -8.143,6.069 -11.999,5.899 -3.254,-0.144 -5.479,-3.501 -7.425,-5.695 -3.417,-3.852 -7.236,-7.129 -11.576,-9.913 -15.659,-10.041 -38.826,-12.905 -56,-4.967 -9.379,4.334 -17.157,11.071 -23.829,18.878 -5.702,6.67 -9.417,15.418 -11.077,23.999 -5.122,26.481 6.046,51.43 29.621,65.447 24.549,14.597 64.554,7.022 78.285,-19.447 11.558,5.756 20.2,16.749 32,22 -2.371,7.147 -8.416,12.745 -14,17.575 -8.421,7.283 -17.435,14.527 -28,18.425 3.959,1.661 8.74,1 13,1 l 23,0 83,0 c -5.256,-5.313 -13.064,-8.154 -19,-12.819 -14.307,-11.243 -25.466,-25.39 -32.572,-42.181 -17.943,-42.402 -1.912,-91.257 34.572,-118.116 11.174,-8.226 25.815,-16.236 40,-16.884 l 0,-2 c -20.276,0 -39.457,-3.182 -57,-14.066 -52.103,-32.323 -65.58,-104.542 -23.829,-150.934 16.766,-18.63 38.638,-31.393 63.829,-33.83 11.048,-1.069 22.013,0.739 33,0.83 -5.081,-3.257 -10.865,-5.43 -16,-8.695 -14.18,-9.017 -27.543,-21.482 -35.688,-36.305 -9.946,-18.099 -15.213,-38.278 -13.141,-59 4.101,-41.023 36.449,-78.45099 76.829,-87.76499 19.741,-4.553 41.25,-2.519 60,4.932 8.063,3.204 14.91,8.871 23,11.833 l 0,-19 39,0 1,210.99999 c 11.436,-4.335 20.946,-12.002 33,-15.441 15.352,-4.381 29.434,-2.569 45,-2.559 -5.708,-5.344 -13.706,-8.141 -20,-12.898 -14.11,-10.666 -25.398,-23.931 -32.688,-40.102 -5.761,-12.777 -9.822,-27.878 -9.272,-42 1.931,-49.557 41.51,-94.45599 91.96,-97.91099 25.267,-1.73 49.998,5.341 71,19.43 5.192,3.483 10.412,7.32 15,11.571 3.891,3.606 7.144,7.645 12,9.91 -3.851,4.91899 -9.702,7.62199 -15,10.79999 -8.245,4.947 -16.705,11.517 -26,14.2 -10.599,-22.86099 -45.559,-31.97999 -68,-23.75699 -24.514,8.98299 -42.729,34.19699 -40.911,60.75699 2.87,41.912 49.187,69.225 86.911,50.24 8.686,-4.371 18.116,-11.066 22,-20.24 12.543,4.16 20.877,16.875 33,22 -2.896,6.841 -8.794,11.854 -14,16.996 -15.715,15.522 -37.949,25.403 -60,26.915 -9.419,0.645 -18.637,-0.885 -28,-0.911 5.762,5.185 14.486,8.137 21,12.721 13.344,9.389 24.836,22.52 31.88,37.279 4.66,9.763 8.508,20.211 9.834,31 4.997,40.667 -15.854,78.971 -50.714,99.597 -11.13,6.586 -24.963,11.835 -38,12.403 4.249,2.259 9.39,2.352 14,3.721 8.831,2.621 17.604,6.663 25,12.175 3.572,2.662 10.192,10.721 14.985,9.849 2.793,-0.509 5.139,-3.412 7.185,-5.169 3.713,-3.19 7.63,-6.287 11.83,-8.816 14.103,-8.491 33.545,-13.098 50,-10.435 31.152,5.042 58.884,27.579 67.076,58.675 4.357,16.54 2.924,34.053 2.924,51 l 0,82 77,0 c 16.434,0 32.069,0.92 44.985,-11.104 13.469,-12.538 13.015,-27.959 13.015,-44.896 l 0,-56 0,-273 -39,0 c -5.507,0 -12.811,1.234 -18,-0.858 -7.696,-3.103 -14.743,-11.39 -21,-16.721 -13.628,-11.61 -27.399,-23.051 -41,-34.692 -7.398,-6.332 -14.96,-14.901 -24,-18.729 l 0,71 -40,0 0,-245.99999 -325,0 -79,0 c -6.666,0 -13.334,-0.0452 -20,8e-4 -2.209,0.0153 -5.417,-0.3615 -6.972,1.6026 -2.807,3.5442 -1.028,13.0768 -1.028,17.3966 l 0,46 0,180.99999 -40,0 0,-245.99999 -176,0 m 688,0 0,117.99999 c 8.655,-2.942 16.087,-11.734 23,-17.576 14.644,-12.37199 29.2,-24.85499 44,-37.03899 5.829,-4.799 11.308,-11.366 18,-14.951 5.053,-2.708 12.44,-1.434 18,-1.434 l 40,0 c 0,-4.949 0.477,-10.167 -0.761,-15 -4.321,-16.8693 -18.046,-27.1699 -34.239,-31.24 -11.05,-2.7773 -24.639,-0.76 -36,-0.76 l -72,0 m 143,241.99999 0,-189.99999 c -11.31,4.381 -21.684,16.056 -31,23.75 -18.498,15.27799 -37.296,30.22499 -56,45.24899 -8.815,7.081 -23.388,15.053 -22.941,28.001 0.406,11.8 15.728,19.744 23.941,26.211 19.082,15.024 38.036,30.219 57,45.389 8.884,7.107 18.309,17.287 29,21.4 m -782,-154.56099 c -40.418,6.36199 -61.566,55.21699 -40.91,89.56099 14.273,23.73 39.66,32.189 65.91,27.855 34.334,-5.669 54.266,-47.718 42.536,-78.855 -10.327,-27.413 -38.944,-43.06099 -67.536,-38.56099 m 272,10e-4 c -7.121,1.144 -13.982,4.36099 -20,8.25899 -22.217,14.39 -33.753,42.532 -26.022,68.301 3.563,11.875 11.633,21.903 21.023,29.714 6.563,5.459 13.751,8.916 21.999,10.785 6.339,1.437 12.457,3.007 19,2.073 11.515,-1.645 21.496,-4.484 31,-11.496 6.61,-4.878 12.305,-11.101 16.627,-18.076 17.693,-28.556 5.993,-66.601 -22.627,-82.826 -11.99,-6.79799 -27.449,-8.91199 -41,-6.73399 m 70,139.55999 c -13.975,10.741 -31.36,17.703 -49,18.911 -10.415,0.713 -20.648,-0.882 -31,-0.911 6.054,5.405 15.165,8.306 22,13.026 13.4,9.252 25.033,22.706 32.421,37.259 19.368,38.155 10.491,86.106 -20.436,115.625 -15.049,14.366 -32.974,22.461 -52.985,27.09 5.713,2.397 12.885,0.486 19,1.439 15.665,2.441 29.641,7.167 43,15.905 10.026,6.558 18.989,14.884 25.96,24.656 4.059,5.69 7.216,15.185 13.04,19 l 0,-190 c 0,-21.406 1.793,-43.746 -0.714,-65 -0.65,-5.503 0.87,-11.862 -1.286,-17 m -391,1 c 0,9.788 -2.769,21.632 0,31 9.94,-5.534 19.505,-13.021 31,-15 -2.314,-3.083 -6.539,-4.091 -10,-5.706 -6.915,-3.227 -13.566,-8.589 -21,-10.294 m 305,15 c 1.248,0.685 1.548,0.749 3,1 -1.248,-0.685 -1.548,-0.749 -3,-1 m -36,36.428 c -9.042,1.296 -17.338,3.825 -25,8.935 -7.419,4.948 -14.601,11.993 -19.239,19.637 -16.117,26.562 -8.956,61.992 16.239,80.215 12.478,9.024 28.843,12.47 44,10.496 8.174,-1.065 16.109,-4.102 23,-8.576 21.791,-14.148 32.515,-40.832 26.497,-66.135 -6.602,-27.755 -37.272,-48.615 -65.497,-44.572 m 212,0.09 c -8.611,1.826 -16.981,5.696 -23.996,10.96 -18.205,13.662 -28.269,37.933 -23.486,60.522 6.429,30.364 38.419,53.661 69.482,46.985 9.801,-2.106 19.223,-5.833 27,-12.311 16.926,-14.099 25.262,-35.73 21.675,-57.674 -5.168,-31.622 -39.081,-55.182 -70.675,-48.482 m -48,140.482 0,50 c 8.038,-4.29 13.368,-13.363 21,-18.619 9.94,-6.845 20.784,-8.818 32,-12.381 -3.172,-1.331 -6.608,-0.895 -10,-1.44 -5.316,-0.854 -10.927,-2.463 -16,-4.259 -9.492,-3.36 -17.506,-10.296 -27,-13.301 m -145,59.464 c -8.039,1.421 -15.384,4.854 -22,9.576 -18.177,12.974 -27.977,33.776 -25.83,55.96 2.943,30.417 33.207,58.488 64.83,53.561 11.187,-1.743 21.958,-4.969 31,-12.079 7.019,-5.519 13.383,-12.471 17.392,-20.482 22.095,-44.156 -16.758,-95.133 -65.392,-86.536 m 168,151.536 80,0 0,-89 c 0,-14.534 2.521,-31.06 -5.468,-44 -15.941,-25.819 -56.946,-25.502 -70.268,3 -6.446,13.792 -4.264,30.221 -4.264,45 l 0,85 m 120,0 80,0 0,-90 c 0,-15.231 2.123,-31.721 -6.915,-45 -18.046,-26.514 -58.263,-20.545 -70.487,8 -5.152,12.03 -2.598,28.206 -2.598,41 l 0,86 m -236,-1 c 6.678,2.802 16.784,1 24,1 l 53,0 0,-73 c -4.648,0 -14.581,-1.885 -18.411,1.028 -3.019,2.295 -3.64,9.516 -4.794,12.972 -2.611,7.819 -6.804,15.264 -11.516,22 -11.082,15.839 -25.191,27.22 -42.279,36 z"
         style="fill:#030303;stroke:none" />
    </clipPath>
  </defs>
  <sodipodi:namedview
     pagecolor="#ffffff"
     bordercolor="#666666"
     borderopacity="1"
     objecttolerance="10"
     gridtolerance="10"
     guidetolerance="10"
     inkscape:pageopacity="0"
     inkscape:pageshadow="2"
     inkscape:window-width="1920"
     inkscape:window-height="1017"
     id="namedview18"
     showgrid="false"
     fit-margin-top="0"
     fit-margin-left="0"
     fit-margin-right="0"
     fit-margin-bottom="0"
     inkscape:zoom="1.125149"
     inkscape:cx="536.46647"
     inkscape:cy="487.85785"
     inkscape:window-x="-8"
     inkscape:window-y="-8"
     inkscape:window-maximized="1"
     inkscape:current-layer="svg2" />
  <path
     style="fill:#000000;stroke:none"
     clip-path="none"
     d="M 952.18359 230.24414 C 943.51914 230.33015 934.86525 231 927 231 L 772 231 L 332 231 L 191 231 L 146 231 C 138.213 231 129.675 230.0283 122 231.4668 C 107.645 234.1575 93.419863 246.8654 89.539062 261 C 86.261363 272.9377 88 286.736 88 299 L 88 369 L 88 735 L 88 820 C 88 837.638 86.763844 854.27494 100.08984 867.96094 C 116.61454 884.93194 141.541 881 163 881 L 314 881 L 767 881 L 906 881 L 948 881 C 957.712 881 967.526 881.50125 977 878.90625 C 991.204 875.01425 1002.7971 863.201 1006.5391 849 C 1009.6991 837.031 1008 823.271 1008 811 L 1008 741 L 1008 371 L 1008 291 C 1008 271.7582 1008.409 253.8476 991.99805 240.4668 C 981.0943 231.57673 966.62436 230.1008 952.18359 230.24414 z M 945.74805 239.29883 C 950.35451 239.35106 954.85625 239.71828 959 240.75977 C 975.193 244.82987 988.91728 255.1307 993.23828 272 C 994.47628 276.833 994 282.051 994 287 L 954 287 C 948.44 287 941.053 285.72559 936 288.43359 C 929.308 292.01859 923.829 298.58577 918 303.38477 C 903.2 315.56877 888.644 328.05183 874 340.42383 C 867.087 346.26583 859.655 355.058 851 358 L 851 240 L 923 240 C 930.10063 240 938.07062 239.21178 945.74805 239.29883 z M 385.19727 239.98242 C 385.83295 239.98491 386.44775 240.00383 387 240 C 393.666 239.954 400.334 240 407 240 L 486 240 L 811 240 L 811 486 L 851 486 L 851 415 C 860.04 418.828 867.602 427.39652 875 433.72852 C 888.601 445.36952 902.372 456.81187 916 468.42188 C 922.257 473.75288 929.304 482.03958 937 485.14258 C 942.189 487.23458 949.493 486 955 486 L 994 486 L 994 759 L 994 815 C 994 831.937 994.45337 847.35848 980.98438 859.89648 C 968.06837 871.92048 952.434 871 936 871 L 859 871 L 859 789 C 859 772.053 860.43317 754.54 856.07617 738 C 847.88417 706.904 820.152 684.36622 789 679.32422 C 772.545 676.66122 753.103 681.26877 739 689.75977 C 734.8 692.28877 730.88292 695.38617 727.16992 698.57617 C 725.12392 700.33317 722.77738 703.23514 719.98438 703.74414 C 715.19137 704.61614 708.572 696.55848 705 693.89648 C 697.604 688.38448 688.831 684.3417 680 681.7207 C 675.39 680.3517 670.249 680.259 666 678 C 679.037 677.432 692.87 672.18366 704 665.59766 C 738.86 644.97166 759.71184 606.667 754.71484 566 C 753.38884 555.211 749.54086 544.763 744.88086 535 C 737.83686 520.241 726.344 507.1097 713 497.7207 C 706.486 493.1367 697.762 490.185 692 485 C 701.363 485.026 710.581 486.55516 720 485.91016 C 742.051 484.39816 764.285 474.51809 780 458.99609 C 785.206 453.85409 791.104 448.841 794 442 C 781.877 436.875 773.543 424.16 761 420 C 757.116 429.174 747.686 435.86923 739 440.24023 C 701.276 459.22523 654.95984 431.912 652.08984 390 C 650.27184 363.44 668.486 338.22519 693 329.24219 C 715.441 321.01919 750.401 330.139 761 353 C 770.295 350.317 778.755 343.74778 787 338.80078 C 792.298 335.62278 798.149 332.919 802 328 C 797.144 325.735 793.891 321.69584 790 318.08984 C 785.412 313.83884 780.192 310.00253 775 306.51953 C 753.998 292.43053 729.267 285.35984 704 287.08984 C 653.55 290.54484 613.97006 335.443 612.03906 385 C 611.48906 399.122 615.5515 414.223 621.3125 427 C 628.6025 443.171 639.89 456.43556 654 467.10156 C 660.294 471.85856 668.292 474.656 674 480 C 658.434 479.99 644.352 478.17759 629 482.55859 C 616.946 485.99759 607.436 493.665 596 498 L 595 287 L 556 287 L 556 306 C 547.91 303.038 541.063 297.37197 533 294.16797 C 514.25 286.71697 492.741 284.68138 473 289.23438 C 432.62 298.54837 400.27287 335.977 396.17188 377 C 394.09988 397.722 399.3665 417.901 409.3125 436 C 417.4575 450.823 430.82 463.28769 445 472.30469 C 450.135 475.56969 455.919 477.743 461 481 C 450.013 480.909 439.048 479.10092 428 480.16992 C 402.809 482.60692 380.93788 495.37 364.17188 514 C 322.42087 560.392 335.897 632.61059 388 664.93359 C 405.543 675.81759 424.724 679 445 679 L 445 681 C 430.815 681.648 416.174 689.65877 405 697.88477 C 368.516 724.74377 352.48473 773.598 370.42773 816 C 377.53373 832.791 388.693 846.93864 403 858.18164 C 408.936 862.84664 416.744 865.687 422 871 L 339 871 L 316 871 C 311.74 871 306.959 871.661 303 870 C 313.565 866.102 322.579 858.85722 331 851.57422 C 336.584 846.74422 342.629 841.147 345 834 C 333.2 828.749 324.558 817.756 313 812 C 299.269 838.469 259.26384 846.04427 234.71484 831.44727 C 211.13984 817.43027 199.97175 792.481 205.09375 766 C 206.75375 757.419 210.46988 748.67195 216.17188 742.00195 C 222.84387 734.19495 230.621 727.45705 240 723.12305 C 257.174 715.18505 280.341 718.04884 296 728.08984 C 300.34 730.87384 304.15917 734.15191 307.57617 738.00391 C 309.52217 740.19791 311.74795 743.55327 315.00195 743.69727 C 318.85795 743.86727 323.829 739.69183 327 737.79883 C 335.376 732.80083 343.829 726.358 353 723 C 350.623 717.918 346.17609 714.62705 341.99609 710.99805 C 334.22309 704.24905 326.06 698.01308 317 693.08008 C 297.902 682.68108 275.863 677.05392 254 679.16992 C 215.493 682.89592 179.60908 711.912 168.20508 749 C 157.68908 783.2 166.63308 820.71317 191.08008 846.82617 C 196.36108 852.46717 202.626 857.6237 209 861.9707 C 213.408 864.9777 218.505 866.923 222 871 L 144 871 C 147.43 861.557 150.31797 853.96297 143.29297 845.04297 C 133.94497 833.17497 113.808 837.366 110 852 C 106.301 850.922 105.38501 847.424 104.00391 844 C 100.86761 836.224 101 828.24 101 820 L 101 720 L 101 359 L 101 303 C 101 293.337 99.585347 282.407 102.06055 273 C 104.70795 262.9384 111.981 249.2277 123 247 C 123 355.654 122 464.291 122 573 L 122 650 L 122 669 C 122.005 671.659 121.53352 675.32548 123.60352 677.39648 C 126.02952 679.82148 130.899 679 134 679 L 162 679 L 162 606 C 162 588.389 159.74086 567.42017 169.13086 551.57617 C 174.05986 543.26017 180.175 536.01306 188 530.28906 C 217.747 508.53006 256.77108 520.76684 275.33008 550.71484 C 282.48308 562.25684 282 575.968 282 589 L 282 648 C 282 656.216 280.14036 667.01041 282.31836 674.94141 C 283.45136 679.06941 287.436 678.97405 291 678.99805 C 299.222 679.05505 307.80514 679.66841 315.99414 678.94141 C 323.75314 678.25341 322 669.762 322 664 L 322 618 C 322 601.156 324.15455 582.645 321.56055 566 C 315.43355 526.687 288.33 498.007 252 484 L 252 482 C 276.651 471.378 296.77927 457.974 310.57227 434 C 340.33727 382.261 313.017 318.27359 261 294.30859 C 239.767 284.52659 211.871 284.17759 190 292.18359 C 180.795 295.55359 172.425 302.786 163 305 L 163 240 L 339 240 L 339 486 L 379 486 L 379 305 L 379 259 C 379 254.6802 377.22034 245.14772 380.02734 241.60352 C 381.19359 240.13044 383.2902 239.97497 385.19727 239.98242 z M 994 292 L 994 482 C 983.309 477.887 973.884 467.70661 965 460.59961 C 946.036 445.42961 927.082 430.23494 908 415.21094 C 899.787 408.74394 884.46459 400.8 884.05859 389 C 883.61159 376.052 898.185 368.07905 907 360.99805 C 925.704 345.97405 944.502 331.028 963 315.75 C 972.316 308.056 982.69 296.381 994 292 z M 494.4375 326.61719 C 505.0642 326.61156 516.0075 329.07533 525 334.17383 C 553.62 350.39883 565.31995 388.444 547.62695 417 C 543.30495 423.975 537.61 430.19817 531 435.07617 C 521.496 442.08817 511.515 444.92727 500 446.57227 C 493.457 447.50627 487.339 445.93505 481 444.49805 C 472.752 442.62905 465.56495 439.17384 459.00195 433.71484 C 449.61195 425.90384 441.54152 415.875 437.97852 404 C 430.24752 378.231 441.783 350.08922 464 335.69922 C 470.018 331.80122 476.879 328.58345 484 327.43945 C 487.38775 326.89495 490.89527 326.61906 494.4375 326.61719 z M 222.6875 326.67969 C 247.46057 327.03495 270.49903 342.01362 279.53516 366 C 291.26516 397.137 271.334 439.18647 237 444.85547 C 210.75 449.18947 185.36284 440.73 171.08984 417 C 150.43384 382.656 171.582 333.80145 212 327.43945 C 215.574 326.87695 219.14849 326.62894 222.6875 326.67969 z M 554 467 C 556.156 472.138 554.63516 478.497 555.28516 484 C 557.79216 505.254 556 527.594 556 549 L 556 739 C 550.176 735.185 547.01994 725.69 542.96094 720 C 535.98994 710.228 527.026 701.90175 517 695.34375 C 503.641 686.60575 489.665 681.88045 474 679.43945 C 467.885 678.48645 460.713 680.397 455 678 C 475.011 673.371 492.93538 665.27616 507.98438 650.91016 C 538.91137 621.39116 547.78988 573.44016 528.42188 535.28516 C 521.03387 520.73216 509.4 507.27739 496 498.02539 C 489.165 493.30539 480.054 490.405 474 485 C 484.352 485.029 494.585 486.62316 505 485.91016 C 522.64 484.70216 540.025 477.741 554 467 z M 163 468 C 170.434 469.705 177.085 475.06792 184 478.29492 C 187.461 479.90992 191.686 480.917 194 484 C 182.505 485.979 172.94 493.466 163 499 C 160.231 489.632 163 477.788 163 468 z M 468 483 C 469.452 483.251 469.752 483.315 471 484 C 469.548 483.749 469.248 483.685 468 483 z M 655.89648 518.38086 C 683.62381 518.83425 710.15378 540.33075 714.67578 568 C 718.26278 589.944 709.926 611.57483 693 625.67383 C 685.223 632.15183 675.801 635.87838 666 637.98438 C 634.937 644.66038 602.94658 621.364 596.51758 591 C 591.73458 568.411 601.79891 544.14052 620.00391 530.47852 C 627.01891 525.21452 635.389 521.34358 644 519.51758 C 647.94925 518.68008 651.93544 518.31609 655.89648 518.38086 z M 439.98047 518.93359 C 465.76366 519.35775 491.51303 538.84703 497.49609 564 C 503.51409 589.303 492.791 615.98677 471 630.13477 C 464.109 634.60877 456.174 637.64594 448 638.71094 C 432.843 640.68494 416.478 637.23884 404 628.21484 C 378.805 609.99184 371.64472 574.562 387.76172 548 C 392.39972 540.356 399.581 533.31128 407 528.36328 C 414.662 523.25328 422.958 520.72373 432 519.42773 C 434.64609 519.0487 437.31324 518.88972 439.98047 518.93359 z M 596 660 C 605.494 663.005 613.508 669.94078 623 673.30078 C 628.073 675.09678 633.684 676.70655 639 677.56055 C 642.392 678.10555 645.828 677.669 649 679 C 637.784 682.563 626.94 684.53586 617 691.38086 C 609.368 696.63686 604.038 705.71 596 710 L 596 660 z M 462.19531 718.50781 C 505.333 718.79009 536.76141 765.29369 516.39258 806 C 512.38358 814.011 506.019 820.96342 499 826.48242 C 489.958 833.59242 479.187 836.81755 468 838.56055 C 436.377 843.48755 406.11292 815.417 403.16992 785 C 401.02292 762.816 410.823 742.01306 429 729.03906 C 435.616 724.31706 442.961 720.88584 451 719.46484 C 454.79953 718.7932 458.53958 718.48389 462.19531 718.50781 z M 779.86914 719.02344 C 792.05086 719.01803 804.19081 724.40013 812.08594 736 C 821.12394 749.279 819 765.769 819 781 L 819 871 L 739 871 L 739 785 C 739 772.206 736.44566 756.03 741.59766 744 C 748.47366 727.94344 764.20693 719.03039 779.86914 719.02344 z M 657.41602 719.12891 C 671.32514 718.71428 685.56075 725.0905 693.53125 738 C 701.52025 750.94 699 767.466 699 782 L 699 871 L 619 871 L 619 786 C 619 771.221 616.81767 754.792 623.26367 741 C 629.92467 726.749 643.50689 719.54353 657.41602 719.12891 z M 567.87109 797.42188 C 572.12473 797.26294 577.095 798 580 798 L 580 871 L 527 871 C 519.784 871 509.678 872.802 503 870 C 520.088 861.22 534.1973 849.839 545.2793 834 C 549.9913 827.264 554.18392 819.819 556.79492 812 C 557.94892 808.544 558.57084 801.32234 561.58984 799.02734 C 563.02609 797.93497 565.31891 797.51724 567.87109 797.42188 z "
     id="path6" />
  <path
     style="fill:#000000;stroke:none"
     d="M 682.99805 903.19141 C 674.22005 903.58941 671.14813 916.99 671.07812 924 C 671.05112 926.598 671.91142 929.42964 670.73242 931.89062 C 669.55242 934.35465 667.383 935.17 665 936 C 665.009 932.816 666.75616 926.24405 664.78516 923.62305 C 661.14216 918.77905 656.823 930.911 656 933 C 652.562 931.104 652.35608 922.63672 649.08008 922.63672 C 645.62008 922.63672 644.47427 941.38503 638.57227 932.83203 C 638.01627 932.02603 637.79583 930.92014 637.54883 929.99414 C 637.20283 928.70014 637.23317 927.32686 637.32617 926.00586 C 637.46617 923.99986 637.842 922.008 638 920 C 642.176 919.863 644.272 919.362 645 915 L 639 915 C 638.993 913.087 639.20564 910.91969 638.68164 909.05469 C 637.93964 906.41269 635.14973 904.52489 633.17773 907.33789 C 631.70173 909.44389 632.022 912.571 632 915 C 628.122 915.125 625.928 915.502 624 919 C 630.829 921.564 631.65 925.065 630 932 C 628.56 929.616 627.20531 927.77689 624.94531 926.08789 C 622.53431 924.28589 617.58425 919.38878 614.28125 920.80078 C 611.37325 922.04378 612.63272 926.56009 611.76172 928.99609 C 609.41972 935.55509 602.339 937.991 596 937 C 599.024 935.207 603.12095 933.54594 604.37695 929.96094 C 606.86695 922.85394 596.63891 921.23214 592.00391 922.99414 C 586.67091 925.02214 585.81534 928.6265 583.02734 932.9375 C 581.70734 934.9775 579.58348 936.63305 577.14648 935.24805 C 570.27548 931.34405 576.93222 918.578 577.69922 913 C 578.06822 910.317 578.25194 904.9518 574.08594 905.4668 C 569.78094 905.9998 570.12275 912.905 569.71875 916 C 568.69075 923.887 568.711 933.895 560 937 C 559.189 932.631 559 928.436 559 924 C 556.976 924.066 554.45348 923.83952 553.02148 925.60352 C 550.54648 928.65152 548.26005 939.88175 541.37305 934.96875 C 538.79205 933.12775 540.81553 930.001 542.01953 928 C 545.31653 922.523 549.1847 916.74895 548.7207 910.00195 C 548.4587 906.18895 546.13014 902.91803 541.99414 903.20703 C 537.66814 903.50903 534.8272 907.304 533.2832 911 C 530.3552 918.012 528.91334 930.48308 533.65234 936.95508 C 539.42934 944.84508 544.632 939.44205 552 939.87305 C 557.565 940.19905 561.147 942.086 567 941 C 567 946.244 565.88397 953.02355 568.41797 957.81055 C 571.36897 963.38255 578.93581 962.86847 581.25781 956.98047 C 583.06181 952.40347 580.89 946.589 580 942 C 586.76 940.117 592.145 942.28594 599 941.96094 C 603.143 941.76494 606.70384 939.46778 610.71484 939.17578 C 613.22184 938.99378 615.54891 940.4512 618.00391 940.7832 C 624.65291 941.6822 627.621 938.128 632 934 C 634.702 943.179 641.31 939.61061 648 938.09961 C 651.538 937.29961 655.375 937.671 659 937 C 656.008 942.773 648.38917 944.28195 646.57617 951.00195 C 644.41517 959.01095 653.97548 963.17166 659.77148 958.34766 C 665.91548 953.23566 663.12595 943.65786 671.00195 939.63086 C 675.12895 937.52086 677.94865 941.40248 682.01562 941.77148 C 685.91363 942.12548 689.213 939.72153 693 939.76953 C 695.765 939.80353 698.282 941.37911 701 941.78711 C 709.797 943.10711 721.881 940.019 723 930 C 715.791 932.131 712.407 937.915 704 937 C 706.901 935.141 711.13795 933.43822 712.37695 929.94922 C 714.71095 923.37822 705.59895 921.31534 701.00195 922.65234 C 694.13395 924.64934 693.87942 930.75648 688.85742 934.39648 C 686.92642 935.79548 683.47494 936.49648 681.71094 934.39648 C 680.04394 932.41048 681.65414 929.837 682.70312 928 C 685.64315 922.848 689.8455 917.216 689.8125 911 C 689.7915 906.836 687.58505 902.98341 682.99805 903.19141 z M 556.14453 907.2207 C 555.2501 907.21553 554.36889 907.46284 553.60352 908.04297 C 548.91752 911.59597 556.06648 918.3797 560.39648 914.9707 C 564.16405 912.00508 560.02038 907.2431 556.14453 907.2207 z M 541 909 L 543 909 C 542.952 914.739 542.021 919.698 538 924 C 538.222 918.823 538.97 913.782 541 909 z M 684 909 C 683.886 914.476 683.088 919.118 679 923 C 679.221 917.846 679.112 911.695 684 909 z M 435.97266 921.94727 C 433.84066 922.04627 431.72113 922.57653 430.01562 923.45703 C 424.01463 926.55503 423.185 933.753 417 937 C 417.03 933.329 418.49553 928.68044 417.64453 925.14844 C 417.17753 923.21344 415.44483 921.94194 413.54883 923.08594 C 409.63783 925.44794 409.653 930.705 405 933 C 404.711 930.987 404.71558 929.02562 404.51758 927.01562 C 404.23658 924.16162 401.45034 920.86889 399.02734 924.33789 C 396.62834 927.77389 397.99542 934.7617 401.48242 936.9707 C 404.24942 938.7247 408.041 937.549 411 937 C 408.144 942.811 400.65966 944.52191 398.72266 951.00391 C 396.43766 958.65391 406.28116 963.04833 411.78516 958.48633 C 418.03616 953.30633 415.18995 942.99836 424.00195 939.69336 C 428.82995 937.88236 434.785 940.98066 440 939.34766 C 443.761 938.17066 446.96294 933.64177 450.96094 933.63477 C 453.79494 933.62977 455.57984 936.48648 458.08984 937.39648 C 460.93984 938.43148 464.14 937.531 467 937 C 463.878 943.024 455.11227 944.8 453.57227 952 C 451.82127 960.185 463.00316 962.40448 467.78516 957.77148 C 473.01916 952.69948 471.22953 944.18119 478.01953 940.36719 C 482.12653 938.06019 487.479 940.29325 492 939.90625 C 496.592 939.51325 499.216 936.9667 503 934.7207 C 507.827 931.8557 512.244 932.105 514 926 C 511.163 926.48 507.876 928.01259 505 927.30859 C 498.491 925.71459 494.50363 920.11812 487.01562 922.70312 C 480.19063 925.05912 479.25 932.99 473 936 C 473.007 933.495 475.25581 919.63594 469.25781 923.08594 C 465.85681 925.04294 464.436 930.44 461 933 C 460.427 930.594 460.58947 921.47195 456.35547 922.75195 C 453.31547 923.66995 452.93747 928.09905 448.98047 927.24805 C 446.29047 926.67005 444.417 924.18644 442 923.02344 C 440.2485 922.18094 438.10466 921.84827 435.97266 921.94727 z M 491.05859 928.6582 C 493.34594 928.87123 494.89441 932.30294 492.58203 933.95312 C 489.07903 936.45312 485.74953 931.36494 489.39453 929.08594 C 489.96266 928.73063 490.53074 928.60904 491.05859 928.6582 z M 595.83008 928.73438 C 596.46866 928.74281 597.188 928.8425 598 929 C 596.012 931.061 594.843 931.579 592 932 C 592.73125 929.5025 593.91434 928.70906 595.83008 928.73438 z M 704.03516 928.81445 C 704.58166 928.79837 705.227 928.8695 706 929 C 704.283 930.84 703.435 931.349 701 932 C 701.645 929.68925 702.39566 928.86269 704.03516 928.81445 z M 435.41992 928.88477 C 437.96973 928.8696 439.55905 933.14614 436.68555 934.33789 C 433.25455 935.76089 430.9833 930.84278 434.2793 929.17578 C 434.67255 928.97691 435.05566 928.88693 435.41992 928.88477 z M 616 930 C 622.95 930.531 622.95 935.469 616 936 L 616 930 z M 574 943 C 577.543 947.457 576.418 951.7 576 957 C 571.718 953.975 572.66 947.533 574 943 z M 410 948 C 409.665 952.394 408.444 954.291 404 955 C 404.633 950.939 406.034 949.15 410 948 z M 466 948 C 465.821 948.975 465.7727 950.16056 465.3457 951.10156 C 462.7577 956.81556 457.24442 952.77973 462.10742 949.17773 C 463.24742 948.33373 464.679 948.27 466 948 z M 658 948 C 657.85 948.934 657.81173 950.17956 657.42773 951.10156 C 655.02773 956.84856 649.14242 952.85473 654.10742 949.17773 C 655.24742 948.33373 656.679 948.27 658 948 z "
     id="path10" />
</svg>
