<?xml version="1.0" encoding="UTF-8" standalone="no"?>
<!-- Created with Inkscape (http://www.inkscape.org/) -->

<svg
   xmlns:dc="http://purl.org/dc/elements/1.1/"
   xmlns:cc="http://creativecommons.org/ns#"
   xmlns:rdf="http://www.w3.org/1999/02/22-rdf-syntax-ns#"
   xmlns:svg="http://www.w3.org/2000/svg"
   xmlns="http://www.w3.org/2000/svg"
   xmlns:sodipodi="http://sodipodi.sourceforge.net/DTD/sodipodi-0.dtd"
   xmlns:inkscape="http://www.inkscape.org/namespaces/inkscape"
   width="433.86465mm"
   height="433.86465mm"
   viewBox="0 0 1537.3157 1537.3157"
   id="svg4203"
   version="1.1"
   inkscape:version="0.91 r13725"
   sodipodi:docname="ic_menu_yoyothrower.svg">
  <defs
     id="defs4205" />
  <sodipodi:namedview
     id="base"
     pagecolor="#ffffff"
     bordercolor="#666666"
     borderopacity="1.0"
     inkscape:pageopacity="0.0"
     inkscape:pageshadow="2"
     inkscape:zoom="0.35"
     inkscape:cx="1076.2743"
     inkscape:cy="716.73788"
     inkscape:document-units="px"
     inkscape:current-layer="layer1"
     showgrid="false"
     fit-margin-top="0"
     fit-margin-left="0"
     fit-margin-right="0"
     fit-margin-bottom="0"
     inkscape:window-width="1920"
     inkscape:window-height="1017"
     inkscape:window-x="-8"
     inkscape:window-y="-8"
     inkscape:window-maximized="1" />
  <metadata
     id="metadata4208">
    <rdf:RDF>
      <cc:Work
         rdf:about="">
        <dc:format>image/svg+xml</dc:format>
        <dc:type
           rdf:resource="http://purl.org/dc/dcmitype/StillImage" />
        <dc:title></dc:title>
      </cc:Work>
    </rdf:RDF>
  </metadata>
  <g
     inkscape:label="Calque 1"
     inkscape:groupmode="layer"
     id="layer1"
     transform="translate(805.03011,1091.2429)">
    <path
       style="fill:#000000;fill-opacity:1"
       d="m -293.22597,-630.67956 c -1.29203,0 -2.75473,0 -4.48828,0.12 -14.1238,0.67 -25.11261,7 -28.31641,16.3 -1.2027,3.49 -1.79329,4.01 -4.77929,4.25 -7.22061,0.58 -18.95084,3.36 -24.55274,5.82 -10.5529,4.64 -24.6201,14.82 -33.30468,24.1 -9.7344,10.41 -16.17932,19.95 -23.51172,34.81 -11.7423,23.8 -16.73183,46.94 -16.91993,78.5 -0.065,10.95 0.54257,26.08 1.38477,34.5 2.9969,29.97 1.43507,57.51 -4.64453,81.9 -8.7595,35.15 -20.54204,56.89 -42.86524,79.1 -13.58088,13.51 -22.64789,19.58 -37.65429,25.22 -14.2809,5.36 -21.77897,6.49 -44.16797,6.64 l -19.83008,0.14 -2.66992,-3.12 c -1.4681,-1.72 -4.91797,-7.08 -7.66797,-11.92 -10.7376,-18.9 -29.00694,-33.65 -50.89062,-41.09 -21.025,-7.16 -50.96608,-7.24 -72.60938,-0.21 -42.42589,13.79 -76.15337,47.59 -88.94727,89.15 -4.78159,15.53 -5.42293,19.57 -5.36523,33.69 0.092,22.44 5.96749,41.76 17.48828,57.5 2.4157,3.3 5.6781,8.25 7.25,11 10.8454,18.970004 31.0638,35.600004 52.1875,42.910004 5.9624,2.06 15.86012,4.48 24.38672,5.96 6.4759,1.13 30.98462,0.15 39.41992,-1.57 27.0894,-5.52 49.09239,-17.02 69.21289,-36.15 5.4812,-5.21 12.80133,-13.450004 16.26563,-18.310004 8.203,-11.51 16.35596,-28.31 19.81836,-40.84 2.5321,-9.16 2.75909,-11.43 2.71289,-27 -0.047,-15.88 -0.23618,-17.56 -2.85938,-25.5 -1.5449,-4.68 -5.00525,-12.88 -7.68945,-18.23 -2.6842,-5.36 -4.88086,-9.88 -4.88086,-10.07 0,-0.18 4.0214,-0.2 8.9375,0 10.4586,0.35 27.21872,-1.09 37.23242,-3.2 8.1337,-1.71 23.39978,-8.12 32.83008,-13.79 15.9344,-9.58 30.87261,-25.03 43.66211,-45.17 22.1452,-34.87 32.46423,-87.87 26.76953,-137.5 -1.9943,-17.38 -1.98296,-47.1 0.0234,-61.37 3.7681,-26.79 11.45474,-47.26 25.58594,-68.13 10.15078,-14.99 23.67788,-27.03 39.17578,-34.88 9.0908,-4.6 16.48419,-6.59 24.5332,-6.61 5.9342,0 6.44597,0.19 10.13477,3.87 9.61368,9.62 28.7131,10.82 42.5957,2.68 5.1274,-3 8.75126,-7.44 10.47656,-12.82 1.0624,-3.32 0.94841,-4.3 -0.96289,-8.25 -2.644,-5.46 -5.43804,-7.76 -12.82812,-10.55 -3.46733,-1.3 -5.80166,-1.81 -9.67774,-1.84 z m -3.77148,9.92 c 4.9985,0 11.91543,3.24 12.76953,5.94 2.1655,6.82 -12.3843,13.55 -21.4668,9.92 -5.8925,-2.35 -7.95942,-7.81 -4.23242,-11.19 2.7977,-2.53 8.78499,-4.69 12.92969,-4.67 z m -256.70703,69.21 c -0.94415,0 -2.1026,0.12 -3.24805,0.31 -10.373,1.75 -25.96478,25.16 -41.11328,61.72 -3.4741,8.38 -8.0432,20.41 -10.1543,26.74 -2.1111,6.32 -4.13003,11.85 -4.48633,12.27 -0.3562,0.42 -1.92628,-2.95 -3.48828,-7.5 -7.1802,-20.91 -16.5853,-40.23 -28.8457,-59.27 -17.192,-26.69 -22.43213,-31.3 -31.11133,-27.35 -5.2001,2.37 -8.91849,14.64 -12.99219,42.88 -4.3604,30.22 -6.34018,67 -6.86328,127.54 l -0.20703,24.07 2.70312,4.09 c 3.6352,5.49 8.82856,7.37 12.65626,4.56 1.45238,-1.06 3.43566,-3.48 4.40624,-5.36 1.6295,-3.17 1.71357,-6.26 1.10547,-40.43 -0.6737,-37.85 0.26989,-64.88 3.15039,-90.29 1.8187,-16.04 4.44813,-30.21 5.60743,-30.21 1.6456,0 8.80281,12.12 17.41601,29.5 9.3006,18.76 16.46091,39.08 20.97461,59.5 3.5867,16.23 6.62717,20.91 13.62695,20.97 4.6623,0 8.93755,-4.53 10.81055,-11.55 10.6305,-39.87 17.86625,-61.1 27.15625,-79.7 5.0971,-10.21 10.78556,-19.72 11.78906,-19.72 0.4162,0 1.28685,5.51 1.93555,12.25 0.6487,6.74 1.73722,16.52 2.41992,21.75 0.8276,6.33 1.24219,24.33 1.24219,54 0,44.18 -1.21395,69.8 -3.62305,76.46 -1.5062,4.17 -0.61781,7.53 3.01367,11.42 3.9384,4.22 9.05677,4.33 13.10547,0.28 1.5631,-1.57 3.30565,-4.6 3.87305,-6.75 3.3659,-12.75 4.99076,-58.15 3.97656,-111.13 -1.1242,-58.72 -5.9523,-96.52 -12.875,-100.8 -0.28705,-0.18 -1.01678,-0.26 -1.96093,-0.25 z m 285.1914,5.78 c -5.1852,0 -7.78494,2.57 -11.68164,11.69 -13.6146,31.88 -29.24373,58.63 -46.39453,79.4 -7.89401,9.57 -11.125,12.28 -11.125,9.33 0,-0.82 -2.63993,-5.87 -5.86523,-11.21 -13.6957,-22.7 -21.33081,-42.03 -27.09571,-68.61 -1.6568,-7.63 -3.83981,-15.28 -4.84961,-17 -1.6962,-2.87 -2.23932,-3.11 -7.14062,-3.06 -6.5546,0.1 -8.20867,1.78 -10.04297,10.42 -1.1252,5.3 -1.07122,7.28 0.39258,14.73 5.1794,26.36 24.83773,71.2 40.76953,92.98 2.0829,2.84 4.24835,5.46 4.81055,5.81 1.4739,0.91 1.40188,74.16 -0.0742,75.07 -1.3601,0.84 -0.30036,8.77 1.68554,12.61 3.2364,6.26 9.748,7.64 14.34571,3.05 4.6056,-4.61 5.27264,-11.7 5.15234,-54.88 l -0.10742,-38.15 7.58789,-8.27 c 27.82468,-30.3 58.43162,-83.25 58.43162,-101.08 0,-7.03 -3.94943,-12.79 -8.79883,-12.83 z m 411.56836,4.99 c -8.8823,0 -9.95803,4.17 -15.35351,59.5 -0.9138,9.37 -1.75897,30.71 -2.03907,51.5 -0.2631,19.52 -0.49853,36.17 -0.52343,37 -0.182,6.03 1.1851,25.79 2.1914,31.69 0.913,5.34 1.98998,8.11 4.20508,10.8 2.7267,3.31 3.36097,3.58 7.51367,3.31 3.6332,-0.24 4.95197,-0.86 6.63477,-3.14 1.896,-2.56 2.07432,-3.97 1.82812,-14.5 -0.15,-6.41 -0.71184,-17.51 -1.24804,-24.66 -0.5361,-7.15 -0.97527,-25.63 -0.97657,-41.07 0,-33.93 0.41417,-36.08 8.52345,-44 2.9703,-2.9 7.3626,-5.99 9.8906,-6.95 5.6437,-2.16 13.6079,-1.6 17.4082,1.23 3.6704,2.72 7.8925,11.52 9.1387,19.04 0.5698,3.44 1.5996,9.06 2.2871,12.5 1.5581,7.79 1.5411,39.8 -0.025,48.75 -0.6262,3.57 -2.1063,12.02 -3.2891,18.76 -1.1827,6.74 -2.5519,12.5 -3.0429,12.81 -3.7029,2.28 2.8845,12.94 8.6758,14.03 11.4397,2.15 19.4455,-26.54 19.4218,-69.59 -0.015,-28.04 -3.5998,-49.36 -10.6425,-63.3 -2.5943,-5.13 -8.4869,-12.18 -11.5586,-13.82 -3.3112,-1.77 -16.1496,-4.84 -20.3575,-4.87 -6.1432,0 -13.8077,2.62 -18.9882,6.57 -2.55234,1.95 -4.78011,3.4 -4.95121,3.23 -0.1711,-0.18 0.0676,-2.57 0.53125,-5.32 1.3804,-8.19 2.97656,-22.92 2.97656,-27.48 0,-2.51 -0.8901,-5.83 -2.18359,-8.13 -1.9491,-3.47 -2.60268,-3.89 -6.04728,-3.89 z m -234.46289,22.02 c -1.2076,0 -2.49129,0.53 -3.85156,1.42 -3.8628,2.53 -5.0861,6.08 -7.9336,23.06 -4.1325,24.64 -9.15513,47.35 -11.24023,50.83 -0.7866,1.31 -10.4711,-20.33 -16.70898,-37.33 -8.768,-23.9 -8.85198,-24.09 -12.58008,-28.07 -2.9458,-3.15 -3.9865,-3.66 -6.5,-3.2 -4.0098,0.72 -5.3016,1.89 -7.6543,6.89 l -1.99023,4.24 2.54492,9.32 c 2.8372,10.39 9.16634,26.7 15.64844,40.32 6.39298,13.44 14.98385,28.89 16.56445,29.8 0.7666,0.44 1.39453,1.59 1.39453,2.55 0,0.96 -3.9794,10.5 -8.8418,21.2 -4.8624,10.7 -10.07629,22.82 -11.58789,26.95 -1.5116,4.12 -3.64132,9.84 -4.73242,12.69 -1.8931,4.96 -1.9052,5.36 -0.2832,8.78 3.6923,7.78 10.13478,9.69 15.30078,4.52 1.9627,-1.96 4.75524,-7.44 8.02344,-15.75 2.757,-7.01 8.66274,-21.74 13.12304,-32.74 17.3502,-42.79 28.1318,-81.55 29.625,-106.5 0.5229,-8.74 0.37359,-9.86 -1.85351,-14 -1.71319,-3.18 -3.69484,-4.84 -5.95313,-4.97 -0.16937,0 -0.34116,0 -0.51367,0 z m 527.24416,4.98 c -11.6733,0 -15.3406,14.38 -15.8125,62 -0.223,22.5 -0.1127,24.05 2.5879,36.5 3.4741,16.01 9.9006,30.09 17.707,38.79 6.7555,7.52 11.6797,10.09 19.5352,10.16 7.3673,0.1 12.3879,-2.81 18.1718,-10.4 2.0672,-2.71 4.047,-4.84 4.3985,-4.74 0.3515,0.11 2.6015,3.07 5,6.58 7.2767,10.67 14.2684,14.98 24.4336,15.07 2.7895,0 7.1966,-0.68 9.7949,-1.57 6.6948,-2.28 13.5864,-9.37 17.9726,-18.49 7.3329,-15.25 10.243,-35.82 9.336,-65.98 -0.9538,-31.71 -5.08,-53.1 -11.8223,-61.28 -2.406,-2.92 -3.691,-3.64 -6.4922,-3.64 -4.7489,0 -6.9752,1.38 -8.959,5.56 -1.6006,3.37 -1.5565,4.33 0.9375,20.74 1.4377,9.46 2.905,20.35 3.2598,24.2 0.3547,3.85 1.2635,9.46 2.0215,12.46 1.8412,7.3 1.7893,29.71 -0.092,39.55 -1.3965,7.29 -4.8718,16.11 -7.7207,19.58 -3.1486,3.84 -12.2306,6.29 -15.3945,4.14 -0.5969,-0.4 -2.2991,-3.4 -3.7832,-6.67 -4.5648,-10.06 -5.703,-20.27 -5.9922,-53.79 -0.2243,-25.98 -0.4961,-30.72 -1.9258,-33.43 -2.8865,-5.46 -4.3901,-6.41 -9.0352,-5.7 -5.2269,0.79 -7.3422,1.86 -8.6953,4.39 -2.7039,5.05 -3.9601,28.31 -1.8281,33.84 0.5559,1.45 1.2641,8.52 1.5723,15.73 0.4908,11.47 0.2992,13.96 -1.543,20.02 -3.4133,11.24 -10.203,17.49 -17.0449,15.71 -2.7394,-0.72 -9.2454,-13.83 -12.0723,-24.33 -3.9266,-14.59 -5.114,-37.95 -3.0254,-59.5 2.5252,-26.06 2.512,-27.07 -0.4082,-31.48 -1.8889,-2.85 -3.3636,-4.02 -5.082,-4.02 z m -359.09963,1 c -0.7764,0 -3.16173,0.7 -5.30273,1.56 -4.426,1.77 -7.5356,6.63 -11.1543,17.44 -2.7384,8.18 -3.19293,8.7 -8.30273,9.5 -13.6715,2.16 -22.77038,6.88 -26.26758,13.65 -2.0185,3.9 -3.12638,3.58 -3.92578,-1.15 -1.3137,-7.78 -9.06559,-21.76 -15.77149,-28.43 -5.6316,-5.61 -7.05336,-6.46 -14.87304,-8.89 -24.4593,-7.59 -46.29015,1.17 -57.68555,23.14 -6.4247,12.38 -8.28041,20.79 -10.13281,45.89 -0.9971,13.52 -0.92629,14.8 1.44531,26 2.7936,13.2 6.21293,20.96 13.04883,29.6 8.141,10.29 17.7068,14.69 31.9707,14.69 26.101,0 45.23415,-17.39 52.71875,-47.9 1.7413,-7.1 2.12391,-11.87 2.19531,-27.37 0.05,-10.8 0.43651,-17.99 0.91211,-16.92 1.1975,2.68 5.95801,5.19 9.84961,5.19 1.852,0 6.45758,-0.86 10.23438,-1.91 l 6.86718,-1.9 -0.65429,7.65 c -2.809,32.86 -2.81968,35.99 -0.14649,48.53 1.4545,6.83 3.69704,14.05 5.27344,17 3.8723,7.24 12.75426,15.94 18.25586,17.89 6.4917,2.29 20.35596,2.21 25.53516,-0.14 10.00128,-4.54 13.57896,-16.61 7.29296,-24.6 -1.831,-2.33 -2.58973,-2.6 -5.67773,-2.02 -1.9601,0.36 -5.25411,1.53 -7.32031,2.58 -4.2685,2.18 -11.67268,2.53 -14.04688,0.67 -2.3165,-1.82 -7.44162,-14.29 -8.70312,-21.18 -2.1523,-11.76 -0.61901,-44.8 2.24609,-48.41 1.6737,-2.11 10.96345,-0.52 20.37305,3.49 4.5508,1.94 9.40754,3.35 10.90234,3.17 9.4058,-1.12 8.37878,-21.03 -1.26562,-24.54 -6.3567,-2.31 -14.16585,-4.25 -19.64453,-4.89 -4.7985,-0.56 -5.68547,-0.95 -5.13477,-2.28 1.9396,-4.68 3.5583,-12.98 3.0918,-15.85 -0.6334,-3.91 -4.22083,-9.26 -6.20313,-9.26 z m -290.39258,1 c -19.11588,0 -33.47072,9.36 -42.16992,27.5 -6.6072,13.78 -8.79923,25.92 -9.11523,50.5 -0.1689,13.14 0.13944,16.85 2.02734,24.38 2.7475,10.97 6.80126,18.73 13.83984,26.51 9.8335,10.87 15.80938,13.26 31.85938,12.74 8.2188,-0.26 12.3905,-0.89 16.5,-2.49 15.8774,-6.18 28.538,-21.97 34.1875,-42.64 1.9088,-6.99 2.18555,-10.54 2.18555,-28 0,-17.3 -0.28409,-21.03 -2.11719,-27.64 -3.8523,-13.9 -12.17428,-27.76 -19.85938,-33.08 -6.34818,-4.4 -18.22959,-7.78 -27.33789,-7.78 z m 575.73831,0.1 c -1.4533,0 -3.0969,0.1 -5.0977,0.18 -14.9723,0.83 -25.4162,6.28 -34.0371,17.75 -9.1577,12.18 -12.8943,25.67 -14.6016,52.73 -0.9332,14.79 -0.8446,17.13 0.9961,26.31 2.5471,12.71 4.9586,18.82 10.4571,26.53 6.5129,9.13 13.8969,14.87 22.4863,17.49 5.2615,1.61 20.5667,1.01 27.2949,-1.07 27.451,-8.48 43.2111,-40.89 39.6778,-81.58 -1.3699,-15.78 -4.0644,-25.62 -9.6954,-35.41 -6.8671,-11.94 -12.822,-16.86 -25.0136,-20.66 -5.4582,-1.7 -8.107,-2.28 -12.4668,-2.27 z m 245.541,0.2 c -9.5729,0.38 -20.8594,6.64 -28.625,16.23 -11.4685,14.16 -18.1872,34.07 -19.9024,59 -1.4249,20.7 -1.3731,23.79 0.5665,33.5 2.0283,10.15 6.1065,18.99 11.6757,25.32 8.6025,9.77 15.9387,12.82 29.9473,12.44 8.3445,-0.23 10.3355,-0.66 16.373,-3.52 4.7209,-2.23 8.831,-5.25 13.1211,-9.62 10.0034,-10.2 11.8619,-18.35 5.9532,-26.1 -4.5603,-5.98 -9.2767,-4.41 -18.2207,6.07 -7.2062,8.45 -11.5867,10.91 -19.3204,10.87 -7.4277,0 -10.1343,-1.97 -14.2871,-10.23 -3.613,-7.19 -5.4189,-14.36 -5.8515,-23.23 l -0.2676,-5.5 14.5,-0.65 c 14.6215,-0.66 27.0559,-2.84 40,-7.01 8.9461,-2.88 12.1664,-5.03 15.0371,-10.04 2.2579,-3.95 2.4561,-5.3 2.377,-16.3 -0.074,-10.27 -0.4747,-13.13 -2.7696,-19.83 -2.3529,-6.86 -6.7618,-14.88 -10.8437,-19.71 -4.1124,-4.87 -15.3855,-9.95 -25.4805,-11.48 -1.2823,-0.19 -2.6149,-0.26 -3.9824,-0.21 z m -1113.54884,11.81 c -1.50146,0 -3.12284,0.37 -4.76758,1.2 -2.7128,1.38 -6.97966,8.12 -7.00586,11.08 -0.01,1.03 1.9868,6.88 4.4336,13 7.9014,19.78 9.92154,31.62 9.83984,57.64 -0.048,15.33 -0.42658,20.04 -2.20898,27.5 -1.1827,4.95 -2.40003,10.17 -2.70703,11.61 -0.4252,1.99 0.20082,3.47 2.63672,6.25 2.6255,2.99 3.87847,3.64 7.00585,3.64 3.0157,0 4.33925,-0.63 6.36915,-3.05 5.90608,-7.01 8.37149,-21.56 9.52539,-56.23 0.8961,-26.92 2.01508,-32.2 8.16796,-38.49 5.4106,-5.53 9.04857,-5.47 15.91407,0.26 5.1975,4.35 8.03597,4.45 11.41797,0.43 4.6648,-5.54 2.96179,-17.66 -3.27539,-23.3 -1.9347,-1.75 -5.4877,-2.81 -14.1543,-4.24 -8.0794,-1.33 -18.11493,4.24 -22.73633,12.62 -1.509,2.73 -3.03151,4.98 -3.38281,4.99 -0.3513,0 -0.95139,-1.66 -1.33399,-3.7 -0.9328,-4.97 -6.09428,-16.2 -8.74218,-19.02 -1.33251,-1.42 -3.06564,-2.16 -4.9961,-2.19 z m 1176.36324,0 c -2.3265,0 -4.7693,1.28 -7.3066,3.95 -5.0924,5.36 -5.0632,8.76 0.1875,21.03 4.7349,11.07 6.5769,17.82 7.4766,27.43 0.3606,3.85 1.3588,9.61 2.2187,12.8 1.2351,4.59 1.4311,8.68 0.9336,19.5 -0.6426,13.98 -3.3772,32.04 -5.418,35.78 -1.3201,2.42 0.4245,6.75 3.8965,9.67 2.7976,2.35 8.3583,2.25 10.8067,-0.2 6.652,-6.65 9.0057,-19.02 10.0019,-52.55 0.837,-28.18 1.5589,-33.01 6.0254,-40.26 2.7372,-4.45 7.777,-7.46 11.3555,-6.79 1.5569,0.29 4.6751,2.11 6.9297,4.04 2.2546,1.93 4.9492,3.51 5.9863,3.51 4.9347,0 8.7539,-5.13 8.7539,-11.75 0,-5.06 -4.4568,-13.93 -7.8535,-15.63 -4.0482,-2.03 -14.9037,-3.83 -18.4668,-3.06 -7.3929,1.59 -14.0238,7.11 -19.2871,16.05 -0.9582,1.63 -1.3398,1.08 -2.8379,-4.07 -3.7321,-12.84 -8.2839,-19.38 -13.4024,-19.45 z m -429.1386,0 c -3.8188,-0.1 -7.909,2.73 -10.0664,6.96 -2.5063,4.91 -2.1671,6.97 3.1621,19.27 5.8269,13.44 9.0716,31.91 9.6015,54.63 0.3188,13.67 0.061,16.91 -2.1894,27.5 -1.4027,6.6 -2.7915,12.9 -3.086,14 -0.3534,1.32 0.5276,3.27 2.5879,5.75 2.6142,3.14 3.7474,3.75 6.961,3.75 3.0276,0 4.365,-0.63 6.334,-2.97 2.9519,-3.51 6.1045,-12.78 7.6582,-22.53 0.6136,-3.85 1.4942,-18.48 1.957,-32.5 0.876,-26.54 1.439,-30.01 6.0879,-37.53 2.3595,-3.82 8.1646,-6.89 11.4609,-6.06 1.2719,0.31 4.2013,2.15 6.5098,4.08 4.3588,3.65 7.3806,4.31 10.0937,2.23 6.0307,-4.63 4.9574,-18.85 -1.8906,-25.04 -3.2544,-2.95 -15.4651,-5.06 -21.2383,-3.67 -5.6327,1.35 -12.0364,6.47 -16.0859,12.85 -1.7644,2.79 -2.9843,3.92 -3.2656,3.04 -0.2469,-0.77 -1.4296,-4.46 -2.627,-8.2 -2.6751,-8.36 -7.5294,-15.08 -11.2051,-15.51 -0.2515,0 -0.5051,0 -0.7597,0 z m -455.54886,10.67 c 6.88497,0.11 13.48428,2.49 17.93164,6.76 3.9757,3.82 9.65108,16.5 10.33008,23.08 0.3072,2.97 0.94462,5.65 1.41602,5.94 1.4775,0.91 0.98421,23.5 -0.65039,29.78 -3.6091,13.85 -10.84857,23.62 -20.94727,28.24 -5.7594,2.64 -16.29411,3.91 -20.60351,2.5 -3.8559,-1.26 -6.94141,-3.07 -6.94141,-4.07 0,-0.49 -1.54469,-3.52 -3.43359,-6.72 -5.7209,-9.7 -7.00857,-16.34 -7.03907,-36.32 -0.018,-11.63 0.43587,-19.35 1.35157,-23 3.2326,-12.9 10.47041,-22.29 19.19531,-24.91 3.07237,-0.92 6.26109,-1.33 9.39062,-1.28 z m 573.03516,0.22 c 8.0666,0 13.3861,2.01 18.2031,6.83 3.889,3.89 9.0633,14.59 9.8379,20.36 0.3168,2.35 1.2876,6.71 2.1582,9.68 1.9831,6.77 1.2294,21.74 -1.5488,30.73 -4.1464,13.42 -12.4949,23.57 -22.1055,26.89 -5.7856,1.99 -15.6101,2.71 -19.7324,1.44 -3.9162,-1.21 -6.3628,-4.23 -10.832,-13.39 -6.3794,-13.06 -8.3226,-36.02 -4.584,-54.13 4.0888,-19.81 12.7719,-28.44 28.6035,-28.41 z m -381.50586,0 c 3.69228,0.1 5.41976,0.63 8.78711,2.34 11.7854,5.97 18.6353,23.51 18.5957,47.61 -0.029,17.84 -4.12253,28.91 -14.04883,37.98 -7.84068,7.17 -20.32527,10.47 -29.66796,7.86 -7.7941,-2.19 -15.16663,-18.43 -16.64063,-36.66 -0.983,-12.16 0.13224,-29.22 2.39844,-36.68 2.5216,-8.3 7.50595,-15.57 13.00195,-18.96 4.2217,-2.61 6.08045,-3.09 13.09375,-3.39 1.8008,-0.1 3.24971,-0.11 4.48047,-0.1 z m 632.99216,0.54 c 3.3606,0 6.8004,0.83 8.9199,2.34 3.5759,2.55 8.6927,12.11 9.6661,18.07 0.3146,1.92 1.0806,4.54 1.7031,5.81 1.9429,3.98 -0.1144,5.46 -11.8809,8.56 -8.6843,2.28 -13.8047,2.97 -25.2343,3.38 -13.8178,0.49 -14.2992,0.44 -13.2637,-1.37 0.591,-1.04 2.2162,-5.25 3.6113,-9.37 4.3663,-12.89 10.8304,-21.54 19.4395,-26.02 1.8586,-0.97 4.4252,-1.42 7.039,-1.4 z m -1284.4863,193.99 c 22.8497,-0.11 34.84085,2.86 51.96875,12.85 6.5492,3.82 24.53125,19.78 24.53125,21.76 0,0.5 -3.7125,-1.1 -8.25,-3.55 -8.5374,-4.63 -18.8646,-8.43 -29.25,-10.78 -4.011,-0.91 -12.4642,-1.34 -25.5,-1.29 -17.6822,0.1 -20.3856,0.3 -29,2.63 -27.1324,7.33 -48.92419,20.27 -67.70898,40.2 -16.1065,17.08 -26.59275,37.3 -32.46485,62.6 -1.6066,6.92 -1.55076,31.01 0.0859,36.85 1.4491,5.17 0.81696,6.48 -1.21093,2.49 l -0.002,0 c -3.40829,-6.69 -6.9183,-19.31 -8.4414,-30.33 -1.4195,-10.27 -1.46379,-13.15 -0.33789,-21.68 1.3804,-10.45 5.39473,-26.18 7.74023,-30.33 l 1.41211,-2.5 -0.70703,2.5 c -1.4382,5.08 0.16449,9 3.67969,9 2.7752,0 7.73264,-4.71 8.46484,-8.05 1.8567,-8.45 21.05324,-31.78 32.74024,-39.79 3.5298,-2.42 4.75,-3.9 4.75,-5.75 0,-2.72 -4.02647,-7.41 -6.35547,-7.41 -2.3132,0 -12.80518,8.37 -19.83008,15.81 -7.1083,7.54 -16.60682,21.2 -19.88281,28.61 -1.1543,2.61 -2.31508,4.53 -2.58008,4.26 -0.5805,-0.58 4.53641,-10.88 8.38281,-16.87 19.13174,-29.81 47.37337,-50.42 80.26567,-58.56 9.1326,-2.26 12.7138,-2.61 27.5,-2.67 z m 20.03516,28.57 c 26.79106,0 54.30173,11.16 70.29492,28.7 4.3663,4.78 11.11492,15.06 15.10742,23 8.1763,16.26 9.30725,41.77 2.82227,63.65 -8.2286,27.76 -29.82754,54.920004 -56.30274,70.770004 -17.075,10.23 -33.56893,15.97 -52.45703,18.27 -13.9621,1.7 -19.85081,1.68 -31.25781,-0.1 -28.7911,-4.48 -51.96879,-18.8 -66.27149,-40.940004 -4.99699,-7.74 -6.58046,-13 -9.22656,-30.66 -1.3616,-9.08 -1.41039,-11.96 -0.33789,-19.5 4.2456,-29.86 15.62721,-52.93 36.34961,-73.69 24.4769,-24.52 53.01385,-37.59 85.93555,-39.37 1.77605,-0.1 3.55767,-0.14 5.34375,-0.13 z m 447.19922,10.71 c -2.8147,0 -5.66626,0.52 -6.12696,1.72 -0.8307,2.17 -0.7747,76.92 0.0586,77.75 0.3667,0.37 11.79503,0.67 25.39453,0.67 21.62468,0 24.80113,-0.2 25.33203,-1.58 1.066,-2.78 0.6518,-8.14 -0.7168,-9.27 -0.8237,-0.69 -8.0968,-1.21 -19.25,-1.38 l -17.92578,-0.27 -0.20508,-32 c -0.1122,-17.6 -0.40745,-32.79 -0.65625,-33.75 -0.3131,-1.21 -3.08961,-1.85 -5.90429,-1.89 z m 454.72852,0.1 c -3.2605,0 -6.4173,0.48 -6.7774,1.42 -0.2898,0.76 5.9635,11.1 13.8946,22.99 l 14.4199,21.62 0,15.43 c 0,8.48 0.2716,16.14 0.6055,17.01 0.4567,1.19 2.0409,1.58 6.3945,1.58 4.3536,0 5.9359,-0.39 6.3926,-1.58 0.3339,-0.87 0.6132,-8.41 0.6211,-16.75 l 0.014,-15.17 9.0586,-13 c 17.6011,-25.26 21.0619,-30.67 20.5215,-32.08 -0.3957,-1.03 -2.3566,-1.42 -7.1191,-1.42 l -6.5723,0 -10.9922,16.75 c -6.0455,9.21 -11.313,16.55 -11.707,16.31 -0.3941,-0.24 -5.1112,-7.18 -10.4805,-15.41 -5.3693,-8.24 -10.2605,-15.58 -10.8711,-16.31 -0.7762,-0.94 -4.1418,-1.4 -7.4023,-1.39 z m -160.41798,0 -0.5957,2.38 c -0.328,1.3 -0.45144,3.9 -0.27344,5.76 l 0.32422,3.39 12.5,0.5 12.5,0.5 0.26367,33.8 0.26367,33.8 6.23633,-0.3 6.23633,-0.3 0.5,-33.5 0.5,-33.5 12,-0.5 12,-0.5 0,-5.5 0,-5.5 -31.22656,-0.26 -31.22852,-0.27 z m -216.74414,20.07 c -7.01802,-0.14 -13.94151,2.51 -19.2793,7.84 -5.89618,5.9 -8.27222,12.47 -8.32812,23.03 -0.088,16.6 7.59459,27.27 21.65039,30.05 6.2183,1.23 7.70446,1.18 14.06836,-0.48 3.208,-0.84 7.18218,-2.48 8.83008,-3.65 3.6587,-2.61 8.75781,-10.42 8.75781,-13.42 0,-2.64 -1.71554,-3.41 -7.55664,-3.41 -3.8395,0 -4.58224,0.37 -5.89844,2.91 -2.5099,4.86 -6.20827,7.09 -11.73047,7.09 -2.7031,0 -6.23621,-0.68 -7.85351,-1.52 -3.0858,-1.6 -6.96094,-7.96 -6.96094,-11.44 0,-1.98 0.54401,-2.04 18.80859,-2.04 22.9535,0 22.7963,0.1 21.8418,-9.1 -0.9213,-8.85 -4.70131,-16.19 -10.50781,-20.41 -4.86824,-3.54 -10.38334,-5.34 -15.8418,-5.45 z m -583.02734,0.1 c -2.42672,0 -5.34391,0.88 -8.4668,2.58 -7.0696,3.85 -9.68294,9.57 -6.15234,13.47 2.2994,2.54 3.98309,2.32 11.62109,-1.52 8.5166,-4.29 9.72461,-5.33 9.72461,-8.44 0,-4.04 -2.68203,-6.17 -6.72656,-6.09 z m 1167.86136,0 c -6.3731,0.15 -12.6637,2.45 -17.5157,7.15 -6.4747,6.28 -8.9175,13.64 -8.4218,25.37 0.4796,11.35 3.8925,19.06 10.4882,23.7 7.7597,5.45 19.2911,6.75 27.9532,3.15 4.7781,-1.99 10.9815,-8.09 13.5351,-13.31 3.2207,-6.59 3.3476,-23.43 0.2285,-30.2 -4.7958,-10.41 -15.6457,-16.11 -26.2675,-15.86 z m -426.12894,0.1 c -3.71174,0 -7.53614,0.87 -11.05274,2.71 -4.87908,2.54 -4.60278,2.53 -5.24218,0.1 -0.4229,-1.62 -1.36537,-2 -4.91797,-2 -2.4165,0 -4.93375,0.54 -5.59375,1.2 -1.3296,1.33 -1.79528,55.87 -0.48828,57.18 0.3906,0.39 3.2031,0.57 6.25,0.41 l 5.53906,-0.29 0.50391,-19.5 c 0.5494,-21.26 1.32205,-24.46 6.46875,-26.81 4.5203,-2.06 10.31096,-1.5 13.07226,1.26 2.4354,2.44 2.45525,2.61 2.46875,21.75 0.01,10.62 0.29061,20.33 0.62891,21.6 0.562,2.09 1.09943,2.27 6.23633,2 l 5.62109,-0.3 0.2793,-22 c 0.233,-18.33 0.009,-22.71 -1.33985,-26.27 -2.64158,-6.96 -10.26776,-11.06 -18.43359,-11.03 z m -41.03125,0 c -0.44622,0 -0.89067,0 -1.33008,0 -2.92936,0.15 -5.65358,1.12 -7.43164,2.78 -2.1358,1.99 -2.13878,1.99 -3.23828,-0.1 -0.9124,-1.7 -1.90131,-2 -5.78711,-1.75 l -4.6875,0.3 -0.26562,27.99 c -0.1464,15.39 -0.0478,28.55 0.21874,29.25 0.3081,0.8 2.45834,1.26 5.89844,1.26 4.77,0 5.48638,-0.27 6.01758,-2.25 0.3316,-1.24 0.60969,-9.55 0.61719,-18.48 0.019,-22.8 1.8843,-26.72 12.1582,-25.56 l 4.5,0.51 1.77344,-4.64 c 2.1029,-5.51 1.35893,-6.97 -4.43945,-8.7 -1.30779,-0.4 -2.66525,-0.61 -4.00391,-0.65 z m -57.54492,0.27 c -9.2352,0 -10.56072,0.25 -15.97852,3.02 -5.1146,2.62 -6.30472,3.8 -8.85742,8.79 -3.4435,6.73 -2.85646,8.03 4.08984,9.07 4.058,0.6 4.26845,0.5 7.03125,-3.63 3.5088,-5.24 8.6808,-7.37 15.42578,-6.36 5.949,0.9 9.07272,3.76 8.66602,7.95 l -0.30664,3.16 -12.74414,2.15 c -15.3598,2.59 -20.50106,5.13 -23.66016,11.65 -4.1061,8.48 -1.63242,17.42 6.14258,22.19 3.9485,2.42 4.96112,2.59 13.76172,2.28 7.7949,-0.28 10.26653,-0.77 13.76953,-2.75 l 4.26953,-2.41 1.53711,2.19 c 1.2693,1.82 2.50595,2.2 7.09375,2.2 l 5.55664,0 -0.69531,-3.25 c -0.3823,-1.79 -0.99558,-12.48 -1.36328,-23.75 -0.7667,-23.51 -1.41165,-25.61 -9.21875,-30 -3.9268,-2.21 -5.63043,-2.5 -14.51953,-2.5 z m 250.07031,0 c -7.0831,0 -8.6295,0.37 -13.4746,3.11 -11.9332,6.74 -16.7582,21.4 -12.4824,37.92 4.1722,16.12 21.5865,24.42 37.4023,17.83 5.6416,-2.35 9.4279,-5.81 12.5801,-11.5 2.8154,-5.08 2.9746,-5.98 2.9746,-16.87 0,-10.52 -0.2259,-11.93 -2.6504,-16.5 -5.2232,-9.85 -12.4561,-14.01 -24.3496,-13.99 z m 162,0 c -6.6635,0 -8.8353,0.4 -13,2.54 -10.038,5.16 -15.0812,15.86 -14.293,30.34 0.8364,15.36 8.1212,24.88 21.1192,27.59 5.0568,1.06 12.8177,0.38 17.3418,-1.51 10.0992,-4.22 15.2397,-12.46 16.0703,-25.78 0.9099,-14.58 -3.7266,-24.64 -13.9375,-30.24 -4.5837,-2.52 -6.3827,-2.92 -13.3008,-2.94 z m 78.6621,0.47 c -2.5843,0 -5.2664,0.42 -5.9883,1.29 -0.589,0.71 -3.7992,8.92 -7.1347,18.25 -3.3355,9.33 -6.3143,17.64 -6.6192,18.46 -0.8126,2.2 -1.4765,0.74 -8.4902,-18.62 -3.3613,-9.29 -6.5932,-17.46 -7.1817,-18.18 -0.6883,-0.83 -2.8867,-1.19 -6.1601,-1 -4.3258,0.26 -5.1332,0.62 -5.3926,2.44 -0.1679,1.18 4.2436,14 9.8047,28.5 9.936,25.9 10.0887,26.43 8.8164,30.35 -1.9233,5.93 -3.9831,7.51 -9.7578,7.51 -2.7175,0 -5.2197,0.45 -5.5606,1 -0.3409,0.56 -0.3106,3.07 0.066,5.58 0.5019,3.35 1.2563,4.81 2.8105,5.44 2.9927,1.2 7.9986,1.17 11.3086,-0.1 l 0,0 c 3.9813,-1.5 7.1503,-4.72 9.8008,-9.93 3.6791,-7.24 25.6366,-68.24 25.0821,-69.68 -0.3348,-0.88 -2.822,-1.32 -5.4063,-1.32 z m -239.9297,10 c 4.0735,0 9.1129,3.51 11.4922,8.01 1.772,3.35 2.2754,5.93 2.2754,11.68 0,8.64 -1.5177,12.88 -5.9414,16.61 -4.2525,3.57 -12.3453,3.83 -16.5488,0.53 -7.7217,-6.08 -8.9239,-24.05 -2.1211,-31.71 2.4219,-2.73 7.4872,-5.12 10.8437,-5.12 z m 274.9414,0.27 c 3.5672,0 7.1961,1.45 10.0254,4.5 3.2533,3.51 4.8019,8.24 4.7949,14.63 -0.01,7.4 -1.7474,12.55 -5.498,16.3 -2.9333,2.94 -3.9061,3.3 -8.8203,3.3 -4.5433,0 -6.0918,-0.48 -8.7344,-2.7 -1.767,-1.49 -3.8279,-4.18 -4.5781,-5.97 -1.8772,-4.5 -1.738,-16.35 0.25,-21.32 2.2642,-5.66 7.3469,-8.74 12.5605,-8.74 z m -585.96677,0 c 4.11408,0 8.07327,1.99 10.5625,5.69 4.0544,6.01 3.30662,6.47 -10.95508,6.79 -7.203,0.16 -12.91174,-0.13 -13.24414,-0.67 -0.9962,-1.61 1.11225,-5.67 4.37305,-8.41 2.76999,-2.33 6.06383,-3.44 9.26367,-3.4 z m 472.30077,0 c 3.0224,-0.1 5.8021,1.04 8.5977,3.39 4.3115,3.63 5.899,7.95 5.873,15.98 -0.041,12.58 -5.1051,19.28 -14.5781,19.28 -4.5282,0 -5.8596,-0.46 -8.8418,-3.08 -4.1186,-3.62 -5.545,-7.95 -5.5527,-16.85 -0.01,-9.09 2.8059,-14.66 8.7441,-17.28 2.0439,-0.91 3.9444,-1.39 5.7578,-1.44 z m -990.166,2.83 c -22.99791,0.11 -46.75833,10 -65.08203,27.26 -13.6248,12.83 -20.59023,24.13 -25.45313,41.27 -3.0705,10.83 -3.0858,26.92 -0.0332,36.8 3.6895,11.93 11.54885,22.760004 21.84765,30.110004 16.7414,11.95 40.32542,15.83 63.125,10.38 18.1762,-4.34 34.51026,-13.53 47.66016,-26.830004 18.6407,-18.85 26.51695,-37.87 25.31055,-61.12 -0.8988,-17.33 -5.65786,-27.91 -17.75586,-39.47 -12.5325,-11.97 -25.54395,-17.25 -45.03125,-18.29 -1.52458,-0.1 -3.0547,-0.11 -4.58789,-0.11 z m -90.81055,3.58 c -0.85465,0 -1.73363,0.18 -2.61328,0.56 -10.3555,4.48 -25.1286,27.5 -31.25,48.68 -2.7394,9.48 -4.79246,24.06 -3.97656,28.23 1.3674,6.99 10.03298,10.13 15.67968,5.69 3.7844,-2.97 4.61077,-5 5.60547,-13.72 0.4866,-4.26 1.83043,-10.28 2.98633,-13.37 2.0055,-5.36 3.62672,-7.84 11.54492,-17.66 3.7063,-4.59 4.57679,-9.46 2.33399,-13.05 -0.959,-1.54 -0.6306,-2.61 1.9082,-6.24 4.6167,-6.6 5.84237,-10.87 4.13867,-14.43 -1.45162,-3.02 -3.79347,-4.69 -6.35742,-4.69 z m 107.4082,9.55 c 0.0401,0 0.0606,0 0.0606,0 0,0.28 -1.35,1.47 -3,2.64 -1.65,1.18 -3,1.91 -3,1.64 0,-0.28 1.35,-1.46 3,-2.64 1.44375,-1.03 2.6585,-1.72 2.93945,-1.69 z m -7.52148,5.39 c 0.10031,0 -0.007,0.26 -0.33594,0.66 -1.3317,1.64 -5.08203,4.12 -5.08203,3.36 0,-0.19 1.4625,-1.41 3.25,-2.72 1.25694,-0.92 2.00079,-1.36 2.16797,-1.3 z m 579.80664,0.62 -0.4668,4.85 c -0.5406,5.62 -2.59541,8.35 -8.25781,10.95 -4.3594,2 -8.54597,2.26 -12.60547,0.77 -3.3355,-1.23 -5.15849,-5.07 -3.93359,-8.29 1.2477,-3.28 1.49876,-3.39 14.13476,-5.99 l 11.12891,-2.29 z m -733.31055,1.13 c -2.84398,0.1 -4.91406,3.76 -4.91406,9.4 0,4.46 1.57559,6.34 4.99219,5.94 1.931,-0.22 2.80352,-1.2 3.79492,-4.23 1.53,-4.69 0.76282,-9.19 -1.79688,-10.56 -0.72271,-0.39 -1.41986,-0.57 -2.07617,-0.55 z m 145.44141,4.31 c 0.0401,0 -0.0937,0.22 -0.35547,0.5 -1.5357,1.64 -27.2978,20.73 -62,45.95 -10.725,7.8 -20.9625,15.27 -22.75,16.6 -1.7875,1.34 -3.23881,2.04 -3.22461,1.56 0.025,-0.85 12.89163,-10.42 57.47461,-42.74 22.56288,-16.37 29.82436,-21.56 30.75586,-21.86 0.0537,0 0.0862,0 0.0996,0 z m 16.57812,1.48 c 0.043,0 0.0664,0 0.0664,0.1 0,0.25 -1.65268,1.71 -3.67188,3.25 -2.01908,1.54 -3.35454,2.29 -2.96874,1.67 0.74173,-1.2 5.92865,-5.08 6.57421,-4.99 z m 32.70508,2.29 c 0.0859,0 0.084,0.11 -0.0176,0.27 -0.6843,1.11 -40.47601,31.08 -93.12109,70.15 -12.1,8.98 -23.98636,17.84 -26.41406,19.69 -4.2146,3.210004 -6.81782,4.350004 -5.66602,2.490004 0.296,-0.480004 3.2752,-2.840004 6.6211,-5.250004 3.3458,-2.41 7.96838,-5.78 10.27148,-7.5 2.303,-1.72 14.3125,-10.62 26.6875,-19.78 12.375,-9.15 24.525,-18.2 27,-20.1 6.0597,-4.64 47.62029,-35.44 51.92969,-38.47 1.4151,-1 2.45137,-1.56 2.70898,-1.5 z m 6.03906,9.96 c 0.075,0 0.0704,0.11 -0.0273,0.27 -0.3909,0.63 -2.12863,2.16 -3.86133,3.39 -1.7327,1.23 -2.83045,1.73 -2.43945,1.09 0.3909,-0.63 2.12863,-2.16 3.86133,-3.39 1.29952,-0.93 2.24177,-1.43 2.46679,-1.36 z m -61.67773,4.51 c 0.0516,0.1 -0.25115,0.46 -0.87305,1.25 -1.3064,1.66 -2.12695,2.2 -2.12695,1.37 0,-0.21 0.7875,-0.99 1.75,-1.75 0.79305,-0.62 1.19839,-0.92 1.25,-0.87 z m 53.71289,1.19 c 0.0765,0 0.13989,0 0.1875,0 0.0635,0 0.0996,0.1 0.0996,0.16 0,0.8 -109.5656,82.570004 -114,85.080004 -1.3333,0.75 -1.3333,0.68 0,-0.64 1.2909,-1.28 18.4351,-14.120004 54.5,-40.800004 16.5566,-12.26 56.9849,-42.28 58.25,-43.26 0.38671,-0.31 0.73341,-0.49 0.96289,-0.54 z m -93.71289,6.81 c 0.0516,0.1 -0.25115,0.46 -0.87305,1.25 -1.3064,1.66 -2.12695,2.2 -2.12695,1.37 0,-0.21 0.7875,-0.99 1.75,-1.75 0.79305,-0.62 1.19839,-0.92 1.25,-0.87 z m 27.7793,8.46 c 0.0251,0 0.0193,0.1 -0.0215,0.12 -0.3261,0.53 -2.73496,2.5 -5.35156,4.38 -2.6166,1.88 -4.49016,2.98 -4.16406,2.46 0.3261,-0.53 2.73496,-2.5 5.35156,-4.38 2.28952,-1.64 4.00954,-2.7 4.18555,-2.58 z m -29.7793,21.54 c 0.0516,0.1 -0.25115,0.46 -0.87305,1.25 -1.3064,1.66 -2.12695,2.2 -2.12695,1.37 0,-0.21 0.7875,-0.99 1.75,-1.75 0.79305,-0.62 1.19839,-0.92 1.25,-0.87 z m -7.37695,5.55 c 0.10258,0 0.11402,0.1 0.0176,0.22 -0.79118,1.28 -6.64062,5.61 -6.64062,4.92 0,-0.25 1.65278,-1.71 3.67188,-3.25 1.51438,-1.16 2.64341,-1.87 2.95117,-1.89 z m 49.67383,4.53 c 0.07,0 0.12454,0 0.16015,0 0.2849,0.29 -0.93805,1.56 -2.71875,2.83 l -3.23828,2.31 2.71875,-2.83 c 1.30882,-1.36 2.58794,-2.32 3.07813,-2.35 z m -57.67383,1.47 c 0.10258,0 0.11402,0.1 0.0176,0.22 -0.79118,1.28 -6.64062,5.61 -6.64062,4.92 0,-0.25 1.65278,-1.71 3.67188,-3.25 1.51438,-1.16 2.64341,-1.87 2.95117,-1.89 z m -10.94532,7.94 c 0.075,0 0.0704,0.11 -0.0273,0.27 -0.3909,0.63 -2.12863,2.16 -3.86133,3.39 -1.7327,1.23 -2.83045,1.73 -2.43945,1.09 0.3909,-0.63 2.12863,-2.16 3.86133,-3.39 1.29952,-0.93 2.24177,-1.43 2.46679,-1.36 z m 53.88282,2.05 c 0.59705,-0.1 -1.28393,1.64 -5.1543,4.42 -2.6166,1.88 -4.43065,2.89 -4.03125,2.24 0.3994,-0.65 2.79828,-2.6 5.33008,-4.34 2.24704,-1.55 3.49724,-2.26 3.85547,-2.32 z m -11.66797,8.72 c 0.0702,0 0.10742,0 0.10742,0 0,0.36 -5.954,4.96 -20.75,16.040004 -0.6875,0.51 -1.25,0.68 -1.25,0.37 0,-0.57 7.0356,-6.05 16.75,-13.060004 2.52656,-1.83 4.6509,-3.21 5.14258,-3.36 z m 47.93945,9.950004 c 0.10678,0 0.16797,0 0.16797,0.14 0,0.23 -1.18035,1.19 -2.62305,2.14 -1.4427,0.94 -2.31871,1.22 -1.94531,0.62 0.62423,-1.01 3.65296,-2.92 4.40039,-2.9 z m -9.83203,6.79 c 0.0516,0.1 -0.25115,0.46 -0.87305,1.25 -1.3064,1.66 -2.12695,2.2 -2.12695,1.37 0,-0.21 0.7875,-0.99 1.75,-1.75 0.79305,-0.62 1.19839,-0.92 1.25,-0.87 z m -61.30469,0.32 c 0.54849,0.1 -1.09691,1.83 -3.72461,3.7 -1.6334,1.16 -2.9707,1.8 -2.9707,1.41 0,-0.78 2.45989,-2.86 5.37109,-4.55 0.7157,-0.41 1.14139,-0.58 1.32422,-0.56 z m 54.30469,4.68 c 0.0516,0.1 -0.25115,0.46 -0.87305,1.25 -1.3064,1.66 -2.12695,2.2 -2.12695,1.37 0,-0.21 0.7875,-0.99 1.75,-1.75 0.79305,-0.62 1.19839,-0.92 1.25,-0.87 z m -4.5,3.84 -3,2.57 c -1.65,1.42 -3.41182,2.58 -3.91602,2.59 -0.5041,0 -0.7291,-0.15 -0.5,-0.33 0.2292,-0.17 1.99102,-1.33 3.91602,-2.58 l 3.5,-2.25 z"
       id="rect4766"
       inkscape:connector-curvature="0" />
  </g>
</svg>
