<?xml version="1.0" encoding="UTF-8" standalone="no"?>
<!-- Created with Inkscape (http://www.inkscape.org/) -->

<svg
   xmlns:dc="http://purl.org/dc/elements/1.1/"
   xmlns:cc="http://creativecommons.org/ns#"
   xmlns:rdf="http://www.w3.org/1999/02/22-rdf-syntax-ns#"
   xmlns:svg="http://www.w3.org/2000/svg"
   xmlns="http://www.w3.org/2000/svg"
   xmlns:sodipodi="http://sodipodi.sourceforge.net/DTD/sodipodi-0.dtd"
   xmlns:inkscape="http://www.inkscape.org/namespaces/inkscape"
   width="577.99121mm"
   height="577.99115mm"
   viewBox="0 0 2048.0004 2048.0001"
   id="svg4203"
   version="1.1"
   inkscape:version="0.91 r13725"
   sodipodi:docname="ic_menu_yoyothrower.svg">
  <defs
     id="defs4205" />
  <sodipodi:namedview
     id="base"
     pagecolor="#ffffff"
     bordercolor="#666666"
     borderopacity="1.0"
     inkscape:pageopacity="0.0"
     inkscape:pageshadow="2"
     inkscape:zoom="0.24748737"
     inkscape:cx="682.74172"
     inkscape:cy="718.73506"
     inkscape:document-units="px"
     inkscape:current-layer="layer1"
     showgrid="false"
     fit-margin-top="0"
     fit-margin-left="0"
     fit-margin-right="0"
     fit-margin-bottom="0"
     inkscape:window-width="1920"
     inkscape:window-height="1017"
     inkscape:window-x="-8"
     inkscape:window-y="-8"
     inkscape:window-maximized="1" />
  <metadata
     id="metadata4208">
    <rdf:RDF>
      <cc:Work
         rdf:about="">
        <dc:format>image/svg+xml</dc:format>
        <dc:type
           rdf:resource="http://purl.org/dc/dcmitype/StillImage" />
        <dc:title></dc:title>
      </cc:Work>
    </rdf:RDF>
  </metadata>
  <g
     inkscape:label="Calque 1"
     inkscape:groupmode="layer"
     id="layer1"
     transform="translate(849.71425,788.78082)">
    <path
       style="fill:#000000;fill-opacity:1"
       d="M 556.48828 659.10156 C 555.19625 659.0913 553.73355 659.13355 552 659.2168 C 537.8762 659.89506 526.88739 666.22165 523.68359 675.51953 C 522.48089 679.00963 521.8903 679.53292 518.9043 679.77148 C 511.68369 680.34836 499.95346 683.12936 494.35156 685.5918 C 483.79866 690.23047 469.73147 700.41104 461.04688 709.69336 C 451.31248 720.09777 444.86756 729.63888 437.53516 744.5 C 425.79286 768.2992 420.80333 791.44414 420.61523 823 C 420.55023 833.94891 421.1578 849.07776 422 857.5 C 424.9969 887.46898 423.43507 915.01065 417.35547 939.4043 C 408.59597 974.55095 396.81343 996.29167 374.49023 1018.5 C 360.90934 1032.011 351.84234 1038.0841 336.83594 1043.7207 C 322.55504 1049.0849 315.05697 1050.2125 292.66797 1050.3652 L 272.83789 1050.5 L 270.16797 1047.3789 C 268.69987 1045.6625 265.25 1040.2983 262.5 1035.459 C 251.7624 1016.5632 233.49307 1001.8119 211.60938 994.36719 C 190.58438 987.2146 160.6433 987.1311 139 994.16406 C 96.574105 1007.9504 62.846633 1041.7522 50.052734 1083.3105 C 45.271135 1098.8424 44.6298 1102.8786 44.6875 1117 C 44.7795 1139.4406 50.654983 1158.7618 62.175781 1174.5 C 64.591481 1177.8 67.853881 1182.75 69.425781 1185.5 C 80.27118 1204.4744 100.48958 1221.0982 121.61328 1228.4102 C 127.57568 1230.474 137.4734 1232.8936 146 1234.373 C 152.4759 1235.4966 176.98462 1234.5186 185.41992 1232.7988 C 212.50932 1227.276 234.51231 1215.7855 254.63281 1196.6543 C 260.11401 1191.4425 267.43414 1183.2011 270.89844 1178.3398 C 279.10144 1166.8291 287.2544 1150.028 290.7168 1137.5 C 293.2489 1128.338 293.47589 1126.0754 293.42969 1110.5 C 293.38269 1094.6248 293.19351 1092.9376 290.57031 1085 C 289.02541 1080.325 285.56506 1072.1201 282.88086 1066.7676 C 280.19666 1061.4151 278 1056.8868 278 1056.7031 C 278 1056.5194 282.0214 1056.5015 286.9375 1056.6641 C 297.3961 1057.0107 314.15622 1055.5713 324.16992 1053.4648 C 332.30362 1051.7538 347.5697 1045.3391 357 1039.6699 C 372.9344 1030.0905 387.87261 1014.6366 400.66211 994.5 C 422.80731 959.6329 433.12634 906.62772 427.43164 857 C 425.43734 839.62018 425.44868 809.89831 427.45508 795.62891 C 431.22318 768.83803 438.90982 748.36946 453.04102 727.5 C 463.19181 712.50895 476.7189 700.46631 492.2168 692.62109 C 501.3076 688.01918 508.70099 686.027 516.75 686.01172 C 522.6842 686.00042 523.19597 686.19591 526.88477 689.88477 C 536.49846 699.49844 555.59787 700.70015 569.48047 692.56445 C 574.60787 689.55957 578.23173 685.12133 579.95703 679.73633 C 581.01943 676.42013 580.90544 675.43849 578.99414 671.49023 C 576.35014 666.0285 573.55611 663.73174 566.16602 660.94531 C 562.69869 659.63799 560.36436 659.13234 556.48828 659.10156 z M 552.7168 669.02148 C 557.7153 669.05048 564.63223 672.26571 565.48633 674.95703 C 567.65183 681.77971 553.10203 688.50856 544.01953 684.88477 C 538.12703 682.53375 536.06011 677.06616 539.78711 673.69336 C 542.58481 671.16145 548.5721 668.99741 552.7168 669.02148 z M 296.00977 738.23242 C 295.06562 738.24304 293.90717 738.3475 292.76172 738.54102 C 282.38872 740.29353 266.79694 763.6971 251.64844 800.25586 C 248.17434 808.64002 243.60524 820.675 241.49414 827 C 239.38304 833.325 237.36411 838.84605 237.00781 839.26953 C 236.65161 839.69301 235.08153 836.31801 233.51953 831.76953 C 226.33933 810.86127 216.93423 791.53668 204.67383 772.5 C 187.48183 745.80606 182.2417 741.1998 173.5625 745.1543 C 168.3624 747.52362 164.64401 759.79346 160.57031 788.0293 C 156.20991 818.25275 154.23013 855.0319 153.70703 915.57227 L 153.5 939.64258 L 156.20312 943.72852 C 159.83832 949.22443 165.03168 951.09734 168.85938 948.29297 C 170.31177 947.22887 172.29503 944.81559 173.26562 942.92969 C 174.89512 939.76336 174.97919 936.66653 174.37109 902.5 C 173.69739 864.65062 174.64098 837.62069 177.52148 812.21289 C 179.34018 796.17164 181.96961 782 183.12891 782 C 184.77451 782 191.93172 794.12279 200.54492 811.5 C 209.84552 830.26404 217.00583 850.57632 221.51953 871 C 225.10623 887.22898 228.14669 891.9077 235.14648 891.96875 C 239.80878 892.00945 244.08403 887.43953 245.95703 880.41602 C 256.58753 840.55338 263.82328 819.32085 273.11328 800.7207 C 278.21038 790.51517 283.89884 781 284.90234 781 C 285.31854 781 286.18919 786.5125 286.83789 793.25 C 287.48659 799.9875 288.57511 809.775 289.25781 815 C 290.08541 821.33321 290.5 839.33393 290.5 869 C 290.5 913.18319 289.28605 938.80059 286.87695 945.46289 C 285.37075 949.62822 286.25913 952.9953 289.89062 956.88281 C 293.82902 961.09897 298.94739 961.20691 302.99609 957.1582 C 304.55919 955.59511 306.30174 952.55761 306.86914 950.4082 C 310.23504 937.65684 311.8599 892.26489 310.8457 839.2832 C 309.7215 780.55896 304.8934 742.76088 297.9707 738.48242 C 297.68365 738.30502 296.95392 738.2218 296.00977 738.23242 z M 581.20117 744.01562 C 576.01597 743.98113 573.41623 746.58226 569.51953 755.70508 C 555.90493 787.57912 540.2758 814.32669 523.125 835.10547 C 515.23099 844.66931 512 847.37925 512 844.43555 C 512 843.60936 509.36007 838.56084 506.13477 833.2168 C 492.43907 810.524 484.80396 791.18992 479.03906 764.61523 C 477.38226 756.97828 475.19925 749.32828 474.18945 747.61523 C 472.49325 744.73787 471.95013 744.50494 467.04883 744.55078 C 460.49423 744.61208 458.84016 746.32739 457.00586 754.9707 C 455.88066 760.27319 455.93464 762.25476 457.39844 769.70508 C 462.57784 796.06554 482.23617 840.89683 498.16797 862.67773 C 500.25087 865.52523 502.41632 868.13887 502.97852 868.48633 C 504.45242 869.39728 504.3804 942.64653 502.9043 943.55859 C 501.5442 944.39915 502.60394 952.33548 504.58984 956.17578 C 507.82624 962.43433 514.33784 963.81446 518.93555 959.2168 C 523.54115 954.61119 524.20819 947.52174 524.08789 904.3457 L 523.98047 866.18945 L 531.56836 857.92578 C 559.39306 827.61924 590 774.67306 590 756.8457 C 590 749.80777 586.05057 744.04791 581.20117 744.01562 z M 992.76953 749 C 983.88723 749 982.81151 753.17046 977.41602 808.5 C 976.50222 817.87021 975.65705 839.20984 975.37695 860 C 975.11385 879.525 974.87842 896.175 974.85352 897 C 974.67152 903.02947 976.03862 922.79412 977.04492 928.6875 C 977.95792 934.03368 979.0349 936.80104 981.25 939.48828 C 983.9767 942.79621 984.61097 943.07559 988.76367 942.80078 C 992.39687 942.56034 993.71564 941.93622 995.39844 939.66211 C 997.29444 937.09995 997.47276 935.68736 997.22656 925.16211 C 997.07656 918.7484 996.51472 907.65 995.97852 900.5 C 995.44242 893.35 995.00325 874.86932 995.00195 859.43164 C 995.00195 825.49927 995.41613 823.35075 1003.5254 815.43359 C 1006.4957 812.53362 1010.888 809.44394 1013.416 808.47852 C 1019.0597 806.32316 1027.0239 806.88517 1030.8242 809.70703 C 1034.4946 812.43245 1038.7167 821.23133 1039.9629 828.75 C 1040.5327 832.1875 1041.5625 837.8125 1042.25 841.25 C 1043.8081 849.04059 1043.7911 881.05501 1042.2246 890 C 1041.5984 893.575 1040.1183 902.01628 1038.9355 908.75781 C 1037.7528 915.49935 1036.3836 921.26298 1035.8926 921.56641 C 1032.1897 923.85497 1038.7771 934.50997 1044.5684 935.59961 C 1056.0081 937.75201 1064.0139 909.06288 1063.9902 866.00586 C 1063.9752 837.96752 1060.3904 816.6517 1053.3477 802.71484 C 1050.7534 797.58105 1044.8608 790.53262 1041.7891 788.88867 C 1038.4779 787.11658 1025.6395 784.04778 1021.4316 784.02344 C 1015.2884 783.98794 1007.6239 786.64135 1002.4434 790.5957 C 999.8911 792.54392 997.66329 793.99348 997.49219 793.81836 C 997.32109 793.64324 997.55984 791.25 998.02344 788.5 C 999.40384 780.30957 1001 765.57767 1001 761.02344 C 1001 758.50632 1000.1099 755.18808 998.81641 752.88672 C 996.86771 749.41991 996.21413 749 992.76953 749 z M 758.82031 771.02734 C 757.46534 770.94829 756.00968 771.41888 754.45508 772.4375 C 750.59228 774.96853 749.36898 778.52576 746.52148 795.50195 C 742.38898 820.13892 737.36635 842.85403 735.28125 846.33008 C 734.49465 847.64148 724.81016 826.00536 718.57227 809 C 709.80427 785.09745 709.72029 784.91323 705.99219 780.93164 C 703.04639 777.78555 702.00569 777.27141 699.49219 777.72656 C 695.48239 778.45264 694.19059 779.61798 691.83789 784.62305 L 689.84766 788.85742 L 692.39258 798.17773 C 695.22978 808.5681 701.55892 824.87598 708.04102 838.5 C 714.43401 851.93682 723.02487 867.39391 724.60547 868.30078 C 725.37207 868.74061 726 869.88603 726 870.84766 C 726 871.8093 722.0206 881.3503 717.1582 892.04883 C 712.2958 902.74737 707.08191 914.875 705.57031 919 C 704.05871 923.125 701.92899 928.83793 700.83789 931.69531 C 698.94479 936.653 698.93269 937.05447 700.55469 940.47266 C 704.24699 948.25357 710.68947 950.15625 715.85547 944.99023 C 717.81817 943.0275 720.61071 937.54631 723.87891 929.24023 C 726.63591 922.23344 732.54165 907.5 737.00195 896.5 C 754.35215 853.7109 765.13375 814.95192 766.62695 790 C 767.14985 781.26143 767.00054 780.13932 764.77344 776 C 763.06025 772.81589 761.0786 771.15911 758.82031 771.02734 z M 1285.5508 776 C 1273.8775 776 1270.2102 790.37893 1269.7383 838 C 1269.5153 860.49885 1269.6256 862.05383 1272.3262 874.5 C 1275.8003 890.51065 1282.2268 904.58783 1290.0332 913.28711 C 1296.7887 920.81533 1301.7129 923.37769 1309.5684 923.44727 C 1316.9357 923.51257 1321.9563 920.63963 1327.7402 913.05273 C 1329.8074 910.34122 1331.7872 908.20877 1332.1387 908.3125 C 1332.4902 908.41624 1334.7402 911.37698 1337.1387 914.89258 C 1344.4154 925.55848 1351.4071 929.86906 1361.5723 929.95703 C 1364.3618 929.98113 1368.7689 929.27593 1371.3672 928.39062 C 1378.062 926.10948 1384.9536 919.01966 1389.3398 909.90039 C 1396.6727 894.65478 1399.5828 874.08455 1398.6758 843.92578 C 1397.722 812.2098 1393.5958 790.82009 1386.8535 782.64062 C 1384.4475 779.72165 1383.1625 779 1380.3613 779 C 1375.6124 779 1373.3861 780.38198 1371.4023 784.5625 C 1369.8017 787.93553 1369.8458 788.88735 1372.3398 805.29883 C 1373.7775 814.75947 1375.2448 825.65 1375.5996 829.5 C 1375.9543 833.35 1376.8631 838.95788 1377.6211 841.96094 C 1379.4623 849.25619 1379.4104 871.6749 1377.5293 881.50586 C 1376.1328 888.80476 1372.6575 897.62253 1369.8086 901.0957 C 1366.66 904.93423 1357.578 907.376 1354.4141 905.23438 C 1353.8172 904.8303 1352.115 901.82596 1350.6309 898.55664 C 1346.0661 888.50037 1344.9279 878.29016 1344.6387 844.77148 C 1344.4144 818.79296 1344.1426 814.05351 1342.7129 811.3457 C 1339.8264 805.87851 1338.3228 804.92806 1333.6777 805.63672 C 1328.4508 806.43416 1326.3355 807.50299 1324.9824 810.03125 C 1322.2785 815.08348 1321.0223 838.33815 1323.1543 843.875 C 1323.7102 845.3185 1324.4184 852.39545 1324.7266 859.59961 C 1325.2174 871.07252 1325.0258 873.55582 1323.1836 879.62109 C 1319.7703 890.85851 1312.9806 897.11537 1306.1387 895.32617 C 1303.3993 894.60982 1296.8933 881.50085 1294.0664 871 C 1290.1398 856.41424 1288.9524 833.04899 1291.041 811.5 C 1293.5662 785.44529 1293.553 784.43419 1290.6328 780.02148 C 1288.7439 777.16718 1287.2692 776 1285.5508 776 z M 926.45117 777 C 925.67477 777 923.28944 777.70196 921.14844 778.55859 C 916.72244 780.32953 913.61284 785.19043 909.99414 796 C 907.25574 804.17989 906.80121 804.69866 901.69141 805.50391 C 888.01991 807.65841 878.92103 812.38559 875.42383 819.14844 C 873.40533 823.05172 872.29745 822.72754 871.49805 817.99609 C 870.18435 810.22042 862.43246 796.24558 855.72656 789.56641 C 850.09496 783.9572 848.67321 783.1074 840.85352 780.68164 C 816.39422 773.09412 794.56337 781.85028 783.16797 803.81641 C 776.74327 816.2009 774.88756 824.60621 773.03516 849.71484 C 772.03806 863.22859 772.10887 864.51059 774.48047 875.71484 C 777.27407 888.91336 780.6934 896.66928 787.5293 905.3125 C 795.6703 915.60578 805.2361 920 819.5 920 C 845.601 920 864.73415 902.61554 872.21875 872.09766 C 873.96005 864.99798 874.34266 860.23034 874.41406 844.72656 C 874.46406 833.92717 874.85057 826.74071 875.32617 827.80664 C 876.52367 830.49004 881.28418 833 885.17578 833 C 887.02778 833 891.63336 832.14299 895.41016 831.0957 L 902.27734 829.19141 L 901.62305 836.8457 C 898.81405 869.7012 898.80337 872.82789 901.47656 885.37109 C 902.93106 892.19624 905.1736 899.4228 906.75 902.37109 C 910.6223 909.61318 919.50426 918.31464 925.00586 920.25586 C 931.49756 922.54645 945.36182 922.4737 950.54102 920.12109 C 960.54231 915.57815 964.11998 903.50892 957.83398 895.51758 C 956.00298 893.18984 955.24425 892.91875 952.15625 893.49805 C 950.19615 893.86578 946.90214 895.0299 944.83594 896.08398 C 940.56744 898.26163 933.16326 898.61247 930.78906 896.75 C 928.47256 894.93285 923.34744 882.45832 922.08594 875.56641 C 919.93364 863.80757 921.46693 830.77008 924.33203 827.16016 C 926.00573 825.05129 935.29548 826.64208 944.70508 830.64844 C 949.25588 832.58603 954.11262 833.99817 955.60742 833.82031 C 965.01322 832.70122 963.9862 812.79103 954.3418 809.28516 C 947.9851 806.97439 940.17596 805.02982 934.69727 804.39062 C 929.89877 803.83079 929.0118 803.43589 929.5625 802.10742 C 931.5021 797.42892 933.1208 789.13023 932.6543 786.25586 C 932.0209 782.35235 928.43347 777 926.45117 777 z M 636.05859 778 C 616.9427 778 602.58787 787.36105 593.88867 805.5 C 587.28147 819.27677 585.08944 831.42343 584.77344 856.00391 C 584.60454 869.1444 584.91288 872.85068 586.80078 880.38477 C 589.54828 891.349 593.60203 899.11471 600.64062 906.89258 C 610.47412 917.75905 616.45 920.14906 632.5 919.63477 C 640.7188 919.37142 644.8905 918.74147 649 917.14258 C 664.8774 910.96499 677.538 895.17298 683.1875 874.5 C 685.0963 867.51528 685.37305 863.9618 685.37305 846.5 C 685.37305 829.19761 685.08896 825.46999 683.25586 818.85742 C 679.40356 804.9609 671.08158 791.10012 663.39648 785.77734 C 657.04829 781.38056 645.16689 778 636.05859 778 z M 1211.7969 778.06641 C 1210.3436 778.06817 1208.7 778.13452 1206.6992 778.24609 C 1191.7269 779.08102 1181.283 784.52767 1172.6621 795.99609 C 1163.5044 808.17844 1159.7678 821.67473 1158.0605 848.73242 C 1157.1273 863.52263 1157.2159 865.86064 1159.0566 875.04297 C 1161.6037 887.74857 1164.0152 893.86492 1169.5137 901.57031 C 1176.0266 910.69738 1183.4106 916.4422 1192 919.06445 C 1197.2615 920.67074 1212.5667 920.06836 1219.2949 917.99023 C 1246.7459 909.51146 1262.506 877.10581 1258.9727 836.40625 C 1257.6028 820.62653 1254.9083 810.79023 1249.2773 801 C 1242.4102 789.06075 1236.4553 784.14292 1224.2637 780.3418 C 1218.8055 778.64002 1216.1567 778.06111 1211.7969 778.06641 z M 1457.3379 778.27539 C 1447.765 778.65006 1436.4785 784.91457 1428.7129 794.5 C 1417.2444 808.65592 1410.5257 828.57479 1408.8105 853.5 C 1407.3856 874.20557 1407.4374 877.29303 1409.377 887 C 1411.4053 897.15091 1415.4835 905.99534 1421.0527 912.32227 C 1429.6552 922.09523 1436.9914 925.14219 1451 924.75977 C 1459.3445 924.53197 1461.3355 924.10347 1467.373 921.24414 C 1472.0939 919.00837 1476.204 915.99449 1480.4941 911.61914 C 1490.4975 901.41686 1492.356 893.26618 1486.4473 885.51953 C 1481.887 879.54066 1477.1706 881.11417 1468.2266 891.5957 C 1461.0204 900.04078 1456.6399 902.5051 1448.9062 902.46484 C 1441.4784 902.42614 1438.7719 900.48748 1434.6191 892.22852 C 1431.0061 885.04307 1429.2002 877.87335 1428.7676 869 L 1428.5 863.5 L 1443 862.84766 C 1457.6215 862.19028 1470.0559 860.01404 1483 855.8457 C 1491.9461 852.9648 1495.1664 850.81206 1498.0371 845.79883 C 1500.295 841.8557 1500.4932 840.50559 1500.4141 829.5 C 1500.3401 819.23541 1499.9394 816.36766 1497.6445 809.67188 C 1495.2916 802.80658 1490.8827 794.79203 1486.8008 789.95898 C 1482.6884 785.08993 1471.4153 780.01298 1461.3203 778.48242 C 1460.038 778.288 1458.7054 778.22187 1457.3379 778.27539 z M 343.78906 790.08008 C 342.2876 790.05314 340.66622 790.45099 339.02148 791.2832 C 336.30868 792.65582 332.04182 799.40415 332.01562 802.36328 C 332.00563 803.38739 334.00242 809.23739 336.44922 815.36328 C 344.35062 835.14528 346.37076 846.98061 346.28906 873 C 346.24106 888.33401 345.86248 893.04021 344.08008 900.5 C 342.89738 905.45 341.68005 910.67419 341.37305 912.10938 C 340.94785 914.09792 341.57387 915.58505 344.00977 918.35938 C 346.63527 921.34968 347.88823 922 351.01562 922 C 354.03132 922 355.35487 921.36742 357.38477 918.95508 C 363.29086 911.93603 365.75626 897.3868 366.91016 862.72266 C 367.80626 835.80022 368.92523 830.5258 375.07812 824.23242 C 380.48872 818.69836 384.12669 818.7582 390.99219 824.49414 C 396.18969 828.83653 399.02816 828.94316 402.41016 824.92383 C 407.07496 819.37997 405.37196 807.26189 399.13477 801.62109 C 397.20007 799.8714 393.64707 798.80684 384.98047 797.37891 C 376.90107 796.04774 366.86554 801.61661 362.24414 809.99609 C 360.73514 812.73218 359.21263 814.97841 358.86133 814.98633 C 358.51003 814.99433 357.90994 813.33233 357.52734 811.29297 C 356.59454 806.32109 351.43306 795.09 348.78516 792.27148 C 347.45265 790.85312 345.71952 790.11471 343.78906 790.08008 z M 1520.1523 790.09375 C 1517.8258 790.06492 1515.383 791.37575 1512.8457 794.04297 C 1507.7533 799.39618 1507.7825 802.79695 1513.0332 815.07031 C 1517.7681 826.13818 1519.6101 832.89462 1520.5098 842.5 C 1520.8704 846.35 1521.8686 852.11168 1522.7285 855.30273 C 1523.9636 859.88605 1524.1596 863.98167 1523.6621 874.80273 C 1523.0195 888.78024 1520.2849 906.83653 1518.2441 910.58008 C 1516.924 913.0017 1518.6686 917.32992 1522.1406 920.25 C 1524.9382 922.60285 1530.4989 922.50113 1532.9473 920.05273 C 1539.5993 913.40079 1541.953 901.03495 1542.9492 867.5 C 1543.7862 839.32484 1544.5081 834.49429 1548.9746 827.24023 C 1551.7118 822.79474 1556.7516 819.78319 1560.3301 820.45312 C 1561.887 820.74459 1565.0052 822.56231 1567.2598 824.49219 C 1569.5144 826.42206 1572.209 828 1573.2461 828 C 1578.1808 828 1582 822.87166 1582 816.24609 C 1582 811.18956 1577.5432 802.3203 1574.1465 800.61719 C 1570.0983 798.58738 1559.2428 796.78981 1555.6797 797.55859 C 1548.2868 799.1537 1541.6559 804.6727 1536.3926 813.61328 C 1535.4344 815.24096 1535.0528 814.69424 1533.5547 809.54102 C 1529.8226 796.70298 1525.2708 790.15718 1520.1523 790.09375 z M 1091.0137 790.14062 C 1087.1949 790.08356 1083.1047 792.87256 1080.9473 797.10156 C 1078.441 802.01419 1078.7802 804.07495 1084.1094 816.36914 C 1089.9363 829.81155 1093.181 848.27605 1093.7109 871 C 1094.0297 884.67332 1093.7715 887.9142 1091.5215 898.5 C 1090.1188 905.1 1088.73 911.4 1088.4355 912.5 C 1088.0821 913.81973 1088.9631 915.7755 1091.0234 918.25 C 1093.6376 921.3897 1094.7708 922 1097.9844 922 C 1101.012 922 1102.3494 921.37321 1104.3184 919.0332 C 1107.2703 915.52505 1110.4229 906.24992 1111.9766 896.5 C 1112.5902 892.65 1113.4708 878.025 1113.9336 864 C 1114.8096 837.457 1115.3726 833.98882 1120.0215 826.4668 C 1122.381 822.64902 1128.1861 819.57894 1131.4824 820.40625 C 1132.7543 820.72549 1135.6837 822.56545 1137.9922 824.49414 C 1142.351 828.13582 1145.3728 828.80176 1148.0859 826.71875 C 1154.1166 822.08849 1153.0433 807.86876 1146.1953 801.67578 C 1142.9409 798.73263 1130.7302 796.6248 1124.957 798.00977 C 1119.3243 799.36103 1112.9206 804.4798 1108.8711 810.86523 C 1107.1067 813.64731 1105.8868 814.78111 1105.6055 813.90234 C 1105.3586 813.13079 1104.1759 809.44017 1102.9785 805.69922 C 1100.3034 797.34127 1095.4491 790.62093 1091.7734 790.18945 C 1091.5219 790.15993 1091.2683 790.14443 1091.0137 790.14062 z M 635.46484 800.80859 C 642.34981 800.92096 648.94912 803.30135 653.39648 807.57227 C 657.37218 811.39022 663.04756 824.06736 663.72656 830.64648 C 664.03376 833.62327 664.67118 836.29656 665.14258 836.58789 C 666.62008 837.50107 666.12679 860.09352 664.49219 866.36914 C 660.88309 880.2257 653.64362 889.98602 643.54492 894.60938 C 637.78552 897.24607 627.25081 898.5255 622.94141 897.11328 C 619.08551 895.84971 616 894.03838 616 893.03711 C 616 892.54588 614.45531 889.52419 612.56641 886.32227 C 606.84551 876.6244 605.55784 869.98031 605.52734 850 C 605.50934 838.37347 605.96321 830.65405 606.87891 827 C 610.11151 814.10098 617.34932 804.70974 626.07422 802.0957 C 629.14659 801.1752 632.33531 800.75752 635.46484 800.80859 z M 1208.5 801.03125 C 1216.5666 801.04525 1221.8861 803.04041 1226.7031 807.85742 C 1230.5921 811.74636 1235.7664 822.45462 1236.541 828.2168 C 1236.8578 830.57287 1237.8286 834.93185 1238.6992 837.9043 C 1240.6823 844.67473 1239.9286 859.63758 1237.1504 868.62891 C 1233.004 882.04858 1224.6555 892.20436 1215.0449 895.51953 C 1209.2593 897.51529 1199.4348 898.23176 1195.3125 896.95898 C 1191.3963 895.74982 1188.9497 892.72764 1184.4805 883.57422 C 1178.1011 870.50857 1176.1579 847.55354 1179.8965 829.43945 C 1183.9853 809.62811 1192.6684 801.00367 1208.5 801.03125 z M 826.99414 801.05469 C 830.68642 801.10727 832.4139 801.68232 835.78125 803.38867 C 847.56665 809.36078 854.41655 826.89918 854.37695 851 C 854.34795 868.84364 850.25442 879.91227 840.32812 888.98438 C 832.48743 896.15035 820.00285 899.45419 810.66016 896.83594 C 802.86606 894.65166 795.49353 878.41137 794.01953 860.18164 C 793.03653 848.02544 794.15177 830.96212 796.41797 823.5 C 798.93957 815.19665 803.92392 807.9284 809.41992 804.53711 C 813.64162 801.9321 815.50037 801.45135 822.51367 801.1543 C 824.31447 801.07802 825.76338 801.03716 826.99414 801.05469 z M 1459.9863 801.58984 C 1463.3469 801.61528 1466.7866 802.42428 1468.9062 803.93359 C 1472.4821 806.47983 1477.5989 816.0428 1478.5723 822 C 1478.8869 823.925 1479.6529 826.54115 1480.2754 827.81445 C 1482.2183 831.78857 1480.161 833.27112 1468.3945 836.36914 C 1459.7102 838.65562 1454.5898 839.3414 1443.1602 839.74805 C 1429.3424 840.23967 1428.861 840.18928 1429.8965 838.37891 C 1430.4875 837.34567 1432.1127 833.13026 1433.5078 829.01172 C 1437.8741 816.12204 1444.3382 807.47025 1452.9473 802.99219 C 1454.8059 802.02539 1457.3725 801.57006 1459.9863 801.58984 z M 175.5 995.57617 C 198.3497 995.47426 210.34085 998.44052 227.46875 1008.4336 C 234.01795 1012.2547 252 1028.2067 252 1030.1953 C 252 1030.6957 248.2875 1029.0943 243.75 1026.6367 C 235.2126 1022.0127 224.8854 1018.2066 214.5 1015.8574 C 210.489 1014.9502 202.0358 1014.5239 189 1014.5684 C 171.3178 1014.6294 168.6144 1014.8727 160 1017.2012 C 132.8676 1024.5354 111.07581 1037.4718 92.291016 1057.3965 C 76.184518 1074.4805 65.698271 1094.7019 59.826172 1120 C 58.219572 1126.9218 58.27541 1151.0102 59.912109 1156.8516 C 61.361209 1162.0247 60.729072 1163.3272 58.701172 1159.3438 L 58.699219 1159.3438 C 55.290919 1152.6489 51.780912 1140.0351 50.257812 1129.0137 C 48.838313 1118.7423 48.794022 1115.8607 49.919922 1107.334 C 51.300322 1096.88 55.314657 1081.1485 57.660156 1077 L 59.072266 1074.5 L 58.365234 1077 C 56.927035 1082.0787 58.529722 1086 62.044922 1086 C 64.820122 1086 69.777566 1081.2886 70.509766 1077.9551 C 72.366465 1069.5012 91.563001 1046.1691 103.25 1038.1602 C 106.7798 1035.7413 108 1034.2621 108 1032.4062 C 108 1029.6922 103.97353 1025 101.64453 1025 C 99.331332 1025 88.839352 1033.3676 81.814453 1040.8145 C 74.706154 1048.3497 65.20764 1062.0158 61.931641 1069.4219 C 60.777341 1072.0313 59.616562 1073.9506 59.351562 1073.6855 C 58.771063 1073.105 63.887975 1062.802 67.734375 1056.8086 C 86.866073 1026.9979 115.1077 1006.3953 148 998.25195 C 157.1326 995.9909 160.7138 995.64212 175.5 995.57617 z M 195.53516 1024.1465 C 222.32623 1024.2047 249.83689 1035.3116 265.83008 1052.8477 C 270.19638 1057.6352 276.945 1067.9108 280.9375 1075.8516 C 289.1138 1092.1139 290.24476 1117.6179 283.75977 1139.5 C 275.53117 1167.2656 253.93223 1194.4181 227.45703 1210.2754 C 210.38203 1220.5024 193.8881 1226.2454 175 1228.541 C 161.0379 1230.2378 155.14919 1230.219 143.74219 1228.4434 C 114.95109 1223.9619 91.773401 1209.6426 77.470703 1187.5 C 72.473704 1179.7638 70.89024 1174.5031 68.244141 1156.8438 C 66.882541 1147.7569 66.83375 1144.8858 67.90625 1137.3438 C 72.151849 1107.4852 83.533462 1084.4125 104.25586 1063.6523 C 128.73276 1039.1306 157.26971 1026.0573 190.19141 1024.2832 C 191.96746 1024.1875 193.74908 1024.1426 195.53516 1024.1465 z M 642.73438 1034.8574 C 639.91968 1034.8181 637.06812 1035.3815 636.60742 1036.582 C 635.77672 1038.7468 635.83272 1113.501 636.66602 1114.334 C 637.03272 1114.7007 648.46105 1115 662.06055 1115 C 683.68524 1115 686.86168 1114.8014 687.39258 1113.418 C 688.45858 1110.64 688.04438 1105.2824 686.67578 1104.1465 C 685.85208 1103.463 678.57898 1102.9437 667.42578 1102.7734 L 649.5 1102.5 L 649.29492 1070.5 C 649.18272 1052.9 648.88747 1037.7125 648.63867 1036.75 C 648.32557 1035.5387 645.54907 1034.8968 642.73438 1034.8574 z M 1097.4629 1034.9512 C 1094.2024 1034.9594 1091.0456 1035.4347 1090.6855 1036.373 C 1090.3957 1037.1284 1096.649 1047.4744 1104.5801 1059.3633 L 1119 1080.9805 L 1119 1096.4082 C 1119 1104.8939 1119.2716 1112.548 1119.6055 1113.418 C 1120.0622 1114.6082 1121.6464 1115 1126 1115 C 1130.3536 1115 1131.9359 1114.6082 1132.3926 1113.418 C 1132.7265 1112.548 1133.0058 1105.0105 1133.0137 1096.668 L 1133.0273 1081.5 L 1142.0859 1068.5 C 1159.687 1043.2407 1163.1478 1037.8321 1162.6074 1036.4238 C 1162.2117 1035.3927 1160.2508 1035 1155.4883 1035 L 1148.916 1035 L 1137.9238 1051.75 C 1131.8783 1060.9625 1126.6108 1068.3027 1126.2168 1068.0605 C 1125.8227 1067.8184 1121.1056 1060.883 1115.7363 1052.6484 C 1110.367 1044.4137 1105.4758 1037.0736 1104.8652 1036.3379 C 1104.089 1035.4025 1100.7234 1034.9429 1097.4629 1034.9512 z M 937.04492 1034.9727 L 936.44922 1037.3477 C 936.12122 1038.6544 935.99778 1041.2477 936.17578 1043.1113 L 936.5 1046.5 L 949 1047 L 961.5 1047.5 L 961.76367 1081.2969 L 962.02734 1115.0957 L 968.26367 1114.7969 L 974.5 1114.5 L 975 1081 L 975.5 1047.5 L 987.5 1047 L 999.5 1046.5 L 999.5 1041 L 999.5 1035.5 L 968.27344 1035.2363 L 937.04492 1034.9727 z M 720.30078 1055.041 C 713.28276 1054.8974 706.35927 1057.547 701.02148 1062.8848 C 695.12529 1068.7811 692.74926 1075.347 692.69336 1085.9082 C 692.60536 1102.5151 700.28795 1113.1781 714.34375 1115.959 C 720.56205 1117.1892 722.04821 1117.138 728.41211 1115.4805 C 731.62011 1114.6449 735.59429 1113.0015 737.24219 1111.8281 C 740.90089 1109.2229 746 1101.4115 746 1098.4121 C 746 1095.7751 744.28446 1095 738.44336 1095 C 734.60386 1095 733.86112 1095.3669 732.54492 1097.9121 C 730.03502 1102.7657 726.33665 1105 720.81445 1105 C 718.11135 1105 714.57824 1104.3168 712.96094 1103.4805 C 709.87514 1101.8848 706 1095.5171 706 1092.041 C 706 1090.0602 706.544 1090 724.80859 1090 C 747.76209 1090 747.60489 1090.0665 746.65039 1080.8984 C 745.72909 1072.0496 741.94908 1064.7091 736.14258 1060.4902 C 731.27434 1056.9531 725.75924 1055.1528 720.30078 1055.041 z M 137.27344 1055.1172 C 134.84672 1055.1624 131.92953 1056.0015 128.80664 1057.7012 C 121.73704 1061.549 119.1237 1067.2706 122.6543 1071.1719 C 124.9537 1073.7127 126.63739 1073.4913 134.27539 1069.6484 C 142.79199 1065.3634 144 1064.316 144 1061.207 C 144 1057.1737 141.31797 1055.0418 137.27344 1055.1172 z M 1305.1348 1055.1328 C 1298.7617 1055.2834 1292.4711 1057.5765 1287.6191 1062.2832 C 1281.1444 1068.564 1278.7016 1075.9227 1279.1973 1087.6523 C 1279.6769 1099.0008 1283.0898 1106.7101 1289.6855 1111.3457 C 1297.4452 1116.7995 1308.9766 1118.1013 1317.6387 1114.5 C 1322.4168 1112.5135 1328.6202 1106.4133 1331.1738 1101.1875 C 1334.3945 1094.5965 1334.5214 1077.7561 1331.4023 1070.9883 C 1326.6065 1060.5823 1315.7566 1054.8818 1305.1348 1055.1328 z M 879.00586 1055.1992 C 875.29412 1055.2109 871.46972 1056.0733 867.95312 1057.9062 C 863.07403 1060.4492 863.35034 1060.4452 862.71094 1058 C 862.28804 1056.3828 861.34557 1056 857.79297 1056 C 855.37647 1056 852.85922 1056.5392 852.19922 1057.1992 C 850.86962 1058.5288 850.40394 1113.07 851.71094 1114.377 C 852.10154 1114.7676 854.91404 1114.9545 857.96094 1114.793 L 863.5 1114.5 L 864.00391 1095 C 864.55331 1073.7392 865.32596 1070.5403 870.47266 1068.1953 C 874.99296 1066.1357 880.78362 1066.6939 883.54492 1069.4551 C 885.98032 1071.8905 886.00017 1072.0603 886.01367 1091.2051 C 886.02367 1101.8176 886.30428 1111.534 886.64258 1112.7969 C 887.20458 1114.8951 887.74201 1115.0674 892.87891 1114.7969 L 898.5 1114.5 L 898.7793 1092.5 C 899.0123 1074.1667 898.78875 1069.7884 897.43945 1066.2324 C 894.79787 1059.2695 887.17169 1055.1736 879.00586 1055.1992 z M 836.64453 1055.2422 C 833.71517 1055.394 830.99095 1056.3611 829.21289 1058.0176 C 827.07709 1060.0074 827.07411 1060.006 825.97461 1057.9512 C 825.06221 1056.2464 824.0733 1055.9467 820.1875 1056.1973 L 815.5 1056.5 L 815.23438 1084.4863 C 815.08798 1099.8789 815.18653 1113.0414 815.45312 1113.7363 C 815.76122 1114.539 817.91146 1115 821.35156 1115 C 826.12156 1115 826.83794 1114.7321 827.36914 1112.75 C 827.70074 1111.5125 827.97883 1103.1959 827.98633 1094.2695 C 828.00533 1071.4732 829.87063 1067.5549 840.14453 1068.7129 L 844.64453 1069.2207 L 846.41797 1064.5781 C 848.52087 1059.0717 847.77691 1057.6123 841.97852 1055.875 C 840.2348 1055.3526 838.40215 1055.1511 836.64453 1055.2422 z M 780.42969 1055.5 C 771.19449 1055.5 769.86897 1055.7507 764.45117 1058.5215 C 759.33657 1061.1372 758.14645 1062.3173 755.59375 1067.3086 C 752.15025 1074.0418 752.73729 1075.3425 759.68359 1076.3789 C 763.74159 1076.9844 763.95204 1076.876 766.71484 1072.752 C 770.22364 1067.5147 775.39563 1065.383 782.14062 1066.3945 C 788.08962 1067.2866 791.21334 1070.1512 790.80664 1074.3418 L 790.5 1077.5 L 777.75586 1079.6523 C 762.39606 1082.2452 757.2548 1084.7769 754.0957 1091.3027 C 749.9896 1099.7848 752.46328 1108.717 760.23828 1113.4883 C 764.18678 1115.9114 765.1994 1116.0786 774 1115.7676 C 781.7949 1115.4922 784.26653 1114.9997 787.76953 1113.0215 L 792.03906 1110.6094 L 793.57617 1112.8047 C 794.84547 1114.6169 796.08212 1115 800.66992 1115 L 806.22656 1115 L 805.53125 1111.75 C 805.14895 1109.9625 804.53567 1099.275 804.16797 1088 C 803.40127 1064.4887 802.75632 1062.3871 794.94922 1058 C 791.02242 1055.7933 789.31879 1055.5 780.42969 1055.5 z M 1030.5 1055.5137 C 1023.4169 1055.5247 1021.8705 1055.8799 1017.0254 1058.6172 C 1005.0922 1065.359 1000.2672 1080.0209 1004.543 1096.541 C 1008.7152 1112.6605 1026.1295 1120.9643 1041.9453 1114.375 C 1047.5869 1112.0245 1051.3732 1108.5624 1054.5254 1102.8711 C 1057.3408 1097.7879 1057.5 1096.8854 1057.5 1086 C 1057.5 1075.4827 1057.2741 1074.0727 1054.8496 1069.5 C 1049.6264 1059.6488 1042.3935 1055.495 1030.5 1055.5137 z M 1192.5 1055.5293 C 1185.8365 1055.5053 1183.6647 1055.9298 1179.5 1058.0703 C 1169.462 1063.2296 1164.4188 1073.9349 1165.207 1088.4082 C 1166.0434 1103.7667 1173.3282 1113.287 1186.3262 1116.0039 C 1191.383 1117.0608 1199.1439 1116.3844 1203.668 1114.4941 C 1213.7672 1110.2744 1218.9077 1102.0285 1219.7383 1088.7148 C 1220.6482 1074.1295 1216.0117 1064.0666 1205.8008 1058.4668 C 1201.2171 1055.953 1199.4181 1055.5545 1192.5 1055.5293 z M 1271.1621 1055.998 C 1268.5778 1055.9921 1265.8957 1056.4211 1265.1738 1057.291 C 1264.5848 1058.0006 1261.3746 1066.2131 1258.0391 1075.541 C 1254.7036 1084.8688 1251.7248 1093.175 1251.4199 1094 C 1250.6073 1096.1989 1249.9434 1094.7415 1242.9297 1075.375 C 1239.5684 1066.0937 1236.3365 1057.9163 1235.748 1057.2031 C 1235.0597 1056.369 1232.8613 1056.0123 1229.5879 1056.2031 C 1225.2621 1056.4553 1224.4547 1056.8208 1224.1953 1058.6406 C 1224.0274 1059.8181 1228.4389 1072.6431 1234 1087.1406 C 1243.936 1113.0433 1244.0887 1113.5704 1242.8164 1117.4902 C 1240.8931 1123.4157 1238.8333 1125 1233.0586 1125 C 1230.3411 1125 1227.8389 1125.4523 1227.498 1126.0039 C 1227.1571 1126.5556 1227.1874 1129.0654 1227.5645 1131.582 C 1228.0664 1134.9292 1228.8208 1136.3879 1230.375 1137.0156 C 1233.3677 1138.2241 1238.3736 1138.1879 1241.6836 1136.9336 L 1241.6855 1136.9336 C 1245.6668 1135.4251 1248.8358 1132.2129 1251.4863 1127 C 1255.1654 1119.7643 1277.1229 1058.7614 1276.5684 1057.3164 C 1276.2336 1056.4441 1273.7464 1056.004 1271.1621 1055.998 z M 1031.2324 1066 C 1035.3059 1066 1040.3453 1069.5145 1042.7246 1074.0137 C 1044.4966 1077.3647 1045 1079.9449 1045 1085.6895 C 1045 1094.3335 1043.4823 1098.5746 1039.0586 1102.2969 C 1034.8061 1105.8751 1026.7133 1106.1346 1022.5098 1102.8281 C 1014.7881 1096.7542 1013.5859 1078.7855 1020.3887 1071.1211 C 1022.8106 1068.3925 1027.8759 1066 1031.2324 1066 z M 1306.1738 1066.2734 C 1309.741 1066.2762 1313.3699 1067.7226 1316.1992 1070.7734 C 1319.4525 1074.2815 1321.0011 1079.0071 1320.9941 1085.4004 C 1320.9841 1092.7968 1319.2467 1097.9525 1315.4961 1101.7031 C 1312.5628 1104.6364 1311.59 1105 1306.6758 1105 C 1302.1325 1105 1300.584 1104.5206 1297.9414 1102.2969 C 1296.1744 1100.8101 1294.1135 1098.1236 1293.3633 1096.3281 C 1291.4861 1091.8352 1291.6253 1079.9765 1293.6133 1075.0078 C 1295.8775 1069.3491 1300.9602 1066.2694 1306.1738 1066.2734 z M 720.20703 1066.2969 C 724.32111 1066.345 728.2803 1068.2926 730.76953 1071.9863 C 734.82393 1078.0027 734.07615 1078.4647 719.81445 1078.7793 C 712.61145 1078.9382 706.90271 1078.6512 706.57031 1078.1133 C 705.57411 1076.5013 707.68256 1072.445 710.94336 1069.7012 C 713.71335 1067.3704 717.00719 1066.2595 720.20703 1066.2969 z M 1192.5078 1066.3535 C 1195.5302 1066.2727 1198.3099 1067.3918 1201.1055 1069.7441 C 1205.417 1073.3719 1207.0045 1077.6871 1206.9785 1085.7188 C 1206.9375 1098.3022 1201.8734 1105 1192.4004 1105 C 1187.8722 1105 1186.5408 1104.5365 1183.5586 1101.918 C 1179.44 1098.3019 1178.0136 1093.9715 1178.0059 1085.0664 C 1177.9959 1075.9751 1180.8118 1070.4138 1186.75 1067.7871 C 1188.7939 1066.8829 1190.6944 1066.402 1192.5078 1066.3535 z M 202.3418 1069.1836 C 179.34389 1069.2878 155.58348 1079.1768 137.25977 1096.4375 C 123.63497 1109.2718 116.66954 1120.5675 111.80664 1137.7109 C 108.73614 1148.5358 108.72084 1164.6339 111.77344 1174.5078 C 115.46294 1186.4419 123.32229 1197.2739 133.62109 1204.623 C 150.36249 1216.5694 173.9465 1220.4475 196.74609 1215.002 C 214.92229 1210.6607 231.25635 1201.4652 244.40625 1188.1699 C 263.04695 1169.3231 270.9232 1150.3023 269.7168 1127.0469 C 268.818 1109.7214 264.05894 1099.1423 251.96094 1087.584 C 239.42844 1075.6105 226.41699 1070.3272 206.92969 1069.2949 C 205.40511 1069.2142 203.87499 1069.1766 202.3418 1069.1836 z M 111.53125 1072.7559 C 110.6766 1072.7551 109.79762 1072.9396 108.91797 1073.3203 C 98.56247 1077.8026 83.789368 1100.8153 77.667969 1122 C 74.928569 1131.4803 72.875506 1146.0557 73.691406 1150.2266 C 75.058806 1157.2166 83.724394 1160.3636 89.371094 1155.9219 C 93.155493 1152.9451 93.981863 1150.924 94.976562 1142.2031 C 95.463162 1137.9366 96.806991 1131.9175 97.962891 1128.8281 C 99.96839 1123.4681 101.58961 1120.9871 109.50781 1111.1719 C 113.21411 1106.5776 114.0846 1101.7104 111.8418 1098.1191 C 110.8828 1096.5835 111.2112 1095.5139 113.75 1091.8828 C 118.3667 1085.2797 119.59237 1081.0064 117.88867 1077.4531 C 116.43705 1074.4257 114.0952 1072.7583 111.53125 1072.7559 z M 218.93945 1082.3066 C 218.97959 1082.3105 219 1082.3289 219 1082.3633 C 219 1082.6383 217.65 1083.8251 216 1085 C 214.35 1086.1749 213 1086.9117 213 1086.6367 C 213 1086.3617 214.35 1085.1749 216 1084 C 217.44375 1082.972 218.6585 1082.2794 218.93945 1082.3066 z M 211.41797 1087.7012 C 211.51828 1087.7393 211.41102 1087.9582 211.08203 1088.3633 C 209.75033 1090.003 206 1092.4822 206 1091.7227 C 206 1091.5318 207.4625 1090.3066 209.25 1088.998 C 210.50694 1088.0779 211.25079 1087.6376 211.41797 1087.7012 z M 791.22461 1088.3164 L 790.75781 1093.168 C 790.21721 1098.7938 788.1624 1101.5189 782.5 1104.1191 C 778.1406 1106.1209 773.95403 1106.3765 769.89453 1104.8867 C 766.55903 1103.6625 764.73604 1099.8235 765.96094 1096.6016 C 767.20864 1093.3199 767.4597 1093.2133 780.0957 1090.6094 L 791.22461 1088.3164 z M 57.914062 1089.4512 C 55.070081 1089.5262 53 1093.2063 53 1098.8477 C 53 1103.3156 54.575588 1105.1922 57.992188 1104.793 C 59.923187 1104.5673 60.795709 1103.5952 61.787109 1100.5586 C 63.317109 1095.8727 62.549934 1091.366 59.990234 1089.9961 C 59.267516 1089.6093 58.570366 1089.4339 57.914062 1089.4512 z M 203.25586 1093.7676 C 203.47082 1093.6972 203.34903 1093.887 203 1094.2598 C 201.4643 1095.9001 175.7022 1114.9943 141 1140.2129 C 130.275 1148.0069 120.0375 1155.476 118.25 1156.8105 C 116.4625 1158.1451 115.01119 1158.8469 115.02539 1158.3691 C 115.05039 1157.5204 127.91701 1147.9521 172.5 1115.625 C 195.06288 1099.2647 202.32436 1094.0726 203.25586 1093.7676 z M 219.93359 1095.2402 C 219.97663 1095.2464 220 1095.271 220 1095.3145 C 220 1095.5617 218.34732 1097.0225 216.32812 1098.5625 C 214.30903 1100.1026 212.97358 1100.8527 213.35938 1100.2285 C 214.10112 1099.0283 219.28803 1095.1482 219.93359 1095.2402 z M 252.63867 1097.5293 C 252.72454 1097.5494 252.72269 1097.6383 252.62109 1097.8027 C 251.93679 1098.9098 212.14509 1128.8842 159.5 1167.9492 C 147.4 1176.928 135.51364 1185.7893 133.08594 1187.6387 C 128.87134 1190.8492 126.26812 1191.9925 127.41992 1190.1289 C 127.71592 1189.6499 130.69512 1187.2874 134.04102 1184.8789 C 137.38682 1182.4704 142.0094 1179.0951 144.3125 1177.377 C 146.6155 1175.6588 158.625 1166.7609 171 1157.6035 C 183.375 1148.446 195.525 1139.4007 198 1137.5039 C 204.0597 1132.86 245.62029 1102.0643 249.92969 1099.0254 C 251.34479 1098.0274 252.38106 1097.469 252.63867 1097.5293 z M 258.67773 1107.4883 C 258.75274 1107.5118 258.74814 1107.5997 258.65039 1107.7578 C 258.25949 1108.3903 256.52176 1109.9166 254.78906 1111.1504 C 253.05636 1112.3842 251.95861 1112.8767 252.34961 1112.2441 C 252.74051 1111.6116 254.47824 1110.0834 256.21094 1108.8496 C 257.51046 1107.9243 258.45271 1107.4176 258.67773 1107.4883 z M 197 1112 C 197.05161 1112.0516 196.74885 1112.457 196.12695 1113.25 C 194.82055 1114.9157 194 1115.4461 194 1114.623 C 194 1114.4154 194.7875 1113.6279 195.75 1112.873 C 196.54305 1112.2511 196.94839 1111.9484 197 1112 z M 250.90039 1113.1973 C 250.96387 1113.2192 251 1113.2696 251 1113.3516 C 251 1114.153 141.4344 1195.9254 137 1198.4336 C 135.6667 1199.1878 135.6667 1199.1172 137 1197.793 C 138.2909 1196.5109 155.4351 1183.675 191.5 1156.9883 C 208.0566 1144.7371 248.4849 1114.7126 249.75 1113.7285 C 250.26562 1113.3274 250.70996 1113.1316 250.90039 1113.1973 z M 157 1120 C 157.05161 1120.0516 156.74885 1120.457 156.12695 1121.25 C 154.82055 1122.9157 154 1123.4461 154 1122.623 C 154 1122.4154 154.7875 1121.6279 155.75 1120.873 C 156.54305 1120.2511 156.94839 1119.9484 157 1120 z M 184.7793 1128.4609 C 184.80444 1128.4775 184.79857 1128.518 184.75781 1128.584 C 184.43171 1129.1116 182.02285 1131.0799 179.40625 1132.959 C 176.78965 1134.8381 174.91609 1135.9437 175.24219 1135.416 C 175.56829 1134.8884 177.97715 1132.9201 180.59375 1131.041 C 182.88327 1129.3968 184.60329 1128.3448 184.7793 1128.4609 z M 155 1150 C 155.05161 1150.0516 154.74885 1150.457 154.12695 1151.25 C 152.82055 1152.9157 152 1153.4461 152 1152.623 C 152 1152.4154 152.7875 1151.6279 153.75 1150.873 C 154.54305 1150.2511 154.94839 1149.9484 155 1150 z M 147.62305 1155.5527 C 147.72563 1155.5462 147.73707 1155.6154 147.64062 1155.7715 C 146.84943 1157.0517 141 1161.3821 141 1160.6875 C 141 1160.4403 142.65278 1158.9775 144.67188 1157.4375 C 146.18627 1156.2824 147.31529 1155.5724 147.62305 1155.5527 z M 197.29688 1160.0781 C 197.3669 1160.0739 197.42142 1160.0894 197.45703 1160.125 C 197.74193 1160.4099 196.51898 1161.6826 194.73828 1162.9531 L 191.5 1165.2617 L 194.21875 1162.4336 C 195.52757 1161.0726 196.80669 1160.1075 197.29688 1160.0781 z M 139.62305 1161.5527 C 139.72563 1161.5462 139.73707 1161.6154 139.64062 1161.7715 C 138.84943 1163.0517 133 1167.3821 133 1166.6875 C 133 1166.4403 134.65278 1164.9775 136.67188 1163.4375 C 138.18627 1162.2824 139.31529 1161.5724 139.62305 1161.5527 z M 128.67773 1169.4883 C 128.75274 1169.5118 128.74814 1169.5997 128.65039 1169.7578 C 128.25949 1170.3903 126.52176 1171.9166 124.78906 1173.1504 C 123.05636 1174.3842 121.95861 1174.8767 122.34961 1174.2441 C 122.74051 1173.6116 124.47824 1172.0834 126.21094 1170.8496 C 127.51046 1169.9243 128.45271 1169.4176 128.67773 1169.4883 z M 182.56055 1171.5391 C 183.1576 1171.4437 181.27662 1173.1795 177.40625 1175.959 C 174.78965 1177.8381 172.9756 1178.8474 173.375 1178.2012 C 173.7744 1177.5549 176.17328 1175.6014 178.70508 1173.8594 C 180.95212 1172.3134 182.20232 1171.5963 182.56055 1171.5391 z M 170.89258 1180.2598 C 170.96282 1180.2378 171 1180.2411 171 1180.2715 C 171 1180.6319 165.046 1185.2331 150.25 1196.3086 C 149.5625 1196.8232 149 1196.9918 149 1196.6816 C 149 1196.1136 156.0356 1190.6257 165.75 1183.6172 C 168.27656 1181.7944 170.4009 1180.4136 170.89258 1180.2598 z M 218.83203 1190.2129 C 218.93881 1190.2162 219 1190.2592 219 1190.3496 C 219 1190.5807 217.81965 1191.543 216.37695 1192.4883 C 214.93425 1193.4336 214.05824 1193.7135 214.43164 1193.1094 C 215.05587 1192.0993 218.0846 1190.1897 218.83203 1190.2129 z M 209 1197 C 209.05161 1197.0516 208.74885 1197.457 208.12695 1198.25 C 206.82055 1199.9157 206 1200.4461 206 1199.623 C 206 1199.4154 206.7875 1198.6279 207.75 1197.873 C 208.54305 1197.2511 208.94839 1196.9484 209 1197 z M 147.69531 1197.3242 C 148.2438 1197.3891 146.5984 1199.1504 143.9707 1201.0215 C 142.3373 1202.1846 141 1202.8171 141 1202.4277 C 141 1201.6493 143.45989 1199.568 146.37109 1197.8828 C 147.08679 1197.4685 147.51248 1197.3026 147.69531 1197.3242 z M 202 1202 C 202.05161 1202.0516 201.74885 1202.457 201.12695 1203.25 C 199.82055 1204.9157 199 1205.4461 199 1204.623 C 199 1204.4154 199.7875 1203.6279 200.75 1202.873 C 201.54305 1202.2511 201.94839 1201.9484 202 1202 z M 197.5 1205.8359 L 194.5 1208.4121 C 192.85 1209.8298 191.08818 1210.9934 190.58398 1210.9961 C 190.07988 1210.9961 189.85488 1210.8539 190.08398 1210.6758 C 190.31318 1210.4977 192.075 1209.3361 194 1208.0938 L 197.5 1205.8359 z M 1283.625 1255.8145 C 1280.8206 1256.0176 1278.0065 1260.5896 1273.5586 1271.0254 C 1270.8688 1277.3362 1268.3648 1282.8544 1267.9961 1283.2871 C 1267.6273 1283.7199 1264.9421 1278.4484 1262.0293 1271.5723 C 1259.1165 1264.6961 1255.9718 1258.3793 1255.0391 1257.5352 C 1252.4804 1255.2196 1249.3941 1255.6846 1246.9844 1258.748 C 1243.9231 1262.6398 1244.6684 1265.7399 1253.4883 1285.7793 L 1261 1302.8438 L 1261 1316.7871 C 1261 1329.3787 1261.2006 1330.9858 1263.0723 1333.3652 C 1265.5276 1336.4867 1267.9114 1336.7003 1271.1387 1334.0898 C 1273.3948 1332.2648 1273.5228 1331.478 1274.0156 1316.3398 L 1274.5312 1300.5 L 1281.8867 1284.5 C 1289.9041 1267.0591 1291.0221 1261.8924 1287.5957 1258.1055 C 1286.1726 1256.5327 1284.8997 1255.7221 1283.625 1255.8145 z M 1617.127 1255.877 C 1607.7138 1255.8728 1598.3856 1262.1749 1593.9238 1273.5 C 1591.8048 1278.8784 1591.5565 1281.1057 1591.5293 1295 C 1591.5053 1307.0358 1591.8922 1311.7703 1593.2578 1316.1836 C 1598.1005 1331.8343 1612.9058 1339.8523 1626 1333.916 C 1632.0324 1331.1812 1634.6731 1328.5512 1637.9629 1322 C 1642.8558 1312.2567 1644.6981 1299.4106 1642.9922 1286.9512 C 1641.4101 1275.3964 1638.6352 1268.6462 1633.1309 1262.9727 C 1628.4542 1258.1522 1622.7748 1255.8795 1617.127 1255.877 z M 925.54883 1256 C 922.41253 1256 918.99721 1260.3781 919.00781 1264.3848 C 919.01881 1268.4708 928.67317 1325.4796 930.07227 1329.7188 C 932.09627 1335.8515 937.39773 1337.6921 941.42773 1333.6621 C 943.97153 1331.1183 945.06242 1326.9499 949.54492 1302.6289 C 951.05232 1294.4501 952.60168 1288.3751 952.98828 1289.1289 C 953.37478 1289.8827 954.26093 1293.875 954.95703 1298 C 958.06283 1316.4067 961.16266 1330.6007 962.53516 1332.6953 C 966.31026 1338.4569 973.63039 1335.7538 975.62109 1327.8633 C 976.23759 1325.4197 978.65981 1311.9637 981.00391 1297.9609 C 983.34791 1283.958 985.57503 1272.1542 985.95312 1271.7305 C 986.33122 1271.3068 988.77612 1283.6549 991.38672 1299.1719 C 993.99732 1314.6889 996.75603 1328.8716 997.51562 1330.6895 C 1000.308 1337.3727 1007.6889 1337.3832 1010.4785 1330.707 C 1011.2345 1328.8977 1013.4978 1318.6616 1015.5078 1307.9609 C 1017.5178 1297.2602 1019.3276 1288.3385 1019.5312 1288.1348 C 1020.0198 1287.6462 1020.5267 1289.9539 1023.4551 1306 C 1027.5603 1328.4943 1027.8863 1329.897 1029.5957 1332.5059 C 1030.503 1333.8907 1032.3174 1335.2938 1033.6289 1335.623 C 1036.5234 1336.3495 1040.7378 1333.8204 1041.9512 1330.6289 C 1042.4252 1329.3822 1044.9698 1315.8472 1047.6074 1300.5508 C 1050.7196 1282.5026 1052.6779 1273.3987 1053.1836 1274.6191 C 1053.6122 1275.6534 1055.7998 1287.525 1058.0449 1301 C 1062.7331 1329.1373 1063.595 1332.6033 1066.4004 1334.5684 C 1069.4355 1336.6942 1071.8372 1336.3207 1074.8711 1333.25 C 1077.2968 1330.7948 1078.0077 1328.2753 1081.5059 1309.75 C 1083.6609 1298.3375 1085.7009 1289 1086.0391 1289 C 1086.3774 1289 1087.1988 1292.0375 1087.8652 1295.75 C 1093.3067 1326.063 1094.2846 1330.1844 1096.7129 1333.0703 C 1101.1209 1338.3088 1106.8442 1336.0699 1108.9004 1328.3027 C 1109.4541 1326.2112 1112.2244 1310.8081 1115.0547 1294.0723 C 1119.9405 1265.1827 1120.1207 1263.4761 1118.6289 1260.3477 C 1116.6713 1256.2425 1112.7806 1254.9839 1109.9551 1257.541 C 1107.4701 1259.7899 1106.7098 1262.8986 1103.9727 1282 C 1102.7511 1290.525 1101.4131 1297.8723 1101 1298.3262 C 1100.5869 1298.78 1099.927 1296.98 1099.5332 1294.3262 C 1099.1395 1291.6723 1097.5456 1283.0427 1095.9902 1275.1504 C 1093.8292 1264.1858 1092.6294 1260.2346 1090.9062 1258.4004 C 1088.1796 1255.498 1085.108 1255.3393 1081.8125 1257.9316 C 1078.7956 1260.3046 1077.855 1263.4497 1074.4531 1282.5 C 1072.9799 1290.75 1071.4752 1297.828 1071.1094 1298.2285 C 1070.7435 1298.629 1069.4064 1291.879 1068.1387 1283.2285 C 1065.4266 1264.7216 1064.3622 1260.1143 1062.252 1257.75 C 1060.1987 1255.4495 1056.74 1255.5268 1054.5742 1257.9199 C 1052.8624 1259.8115 1052.8096 1259.8115 1050.918 1257.9199 C 1047.282 1254.2839 1042.5594 1256.1352 1041.1035 1261.7676 C 1040.5728 1263.8208 1039.1885 1271.8 1038.0273 1279.5 C 1035.5088 1296.2004 1034.9332 1299.2673 1034.4219 1298.7559 C 1034.2092 1298.5432 1032.476 1290.1433 1030.5703 1280.0898 C 1028.6646 1270.0362 1026.4022 1260.7362 1025.541 1259.4219 C 1022.3792 1254.5964 1014.9771 1255.3663 1012.8848 1260.7383 C 1012.293 1262.2576 1010.3207 1271.2927 1008.5039 1280.8164 C 1006.6871 1290.3401 1004.9908 1298.3413 1004.7344 1298.5977 C 1004.478 1298.8541 1003.2931 1292.6383 1002.0996 1284.7832 C 999.18605 1265.6077 998.18745 1260.9375 996.43555 1258.2637 C 994.56165 1255.4037 991.29874 1255.3706 988.30664 1258.1816 L 985.98633 1260.3613 L 983.95312 1258.1816 C 981.29353 1255.3268 977.45708 1255.372 975.55078 1258.2812 C 974.72868 1259.5359 972.92166 1267.7485 971.53516 1276.5312 C 968.07406 1298.4567 967.92672 1299.2607 967.45312 1298.7871 C 967.22353 1298.5575 965.46597 1290.0872 963.54688 1279.9629 C 961.27088 1267.956 959.40449 1260.6756 958.17969 1259.0273 C 954.79629 1254.4738 947.94791 1255.464 945.84961 1260.8105 C 945.26921 1262.2896 943.30257 1271.301 941.48047 1280.834 C 939.65837 1290.367 937.96424 1298.3697 937.71484 1298.6191 C 937.46544 1298.8685 936.27978 1292.6445 935.08008 1284.7871 C 931.15638 1259.0878 930.13323 1256 925.54883 1256 z M 1380.9277 1256 C 1377.7486 1256 1375.6932 1258.9785 1370.5586 1271.0254 C 1367.8688 1277.3362 1365.373 1282.8462 1365.0137 1283.2695 C 1364.6544 1283.6928 1361.9812 1278.4307 1359.0723 1271.5762 C 1356.1635 1264.7217 1353.0087 1258.4129 1352.0625 1257.5566 C 1349.6755 1255.3964 1346.6597 1255.6128 1344.4043 1258.1055 C 1340.9951 1261.8733 1342.1173 1267.0334 1350.3848 1285.6035 L 1358 1302.707 L 1358 1316.7188 C 1358 1329.3799 1358.1995 1330.9844 1360.0723 1333.3652 C 1362.6609 1336.6561 1365.3765 1336.7132 1368.5449 1333.5449 C 1370.9206 1331.1691 1370.9999 1330.6316 1371.0117 1316.7949 C 1371.0237 1302.5823 1371.0441 1302.4536 1374.5879 1294.5 C 1383.9939 1273.3901 1387 1265.9331 1387 1263.6992 C 1387 1260.559 1383.4047 1256 1380.9277 1256 z M 1679.1914 1256.0996 C 1676.1992 1256.199 1673.3422 1258.4119 1672.123 1262.2539 C 1671.2429 1265.0276 1667.7922 1282.3715 1665.5391 1295.3516 C 1665.1713 1297.4703 1664.6981 1299.0322 1664.4863 1298.8203 C 1664.2745 1298.6085 1662.7462 1290.0987 1661.0918 1279.9102 C 1657.7274 1259.1898 1657.4997 1258.3387 1654.9473 1256.9727 C 1650.2432 1254.4552 1646 1258.0375 1646 1264.5254 C 1646 1268.346 1655.2589 1324.9453 1656.6289 1329.5 C 1657.5627 1332.6046 1661.1259 1336 1663.4512 1336 C 1664.608 1336 1666.5209 1335.3247 1667.7012 1334.498 C 1670.4207 1332.5932 1671.299 1329.7371 1674.4766 1312.5 C 1678.2712 1291.916 1679.1334 1287.7993 1679.5547 1288.2207 C 1679.7635 1288.4295 1681.5377 1297.1285 1683.498 1307.5508 C 1687.6982 1329.8816 1688.4585 1332.5085 1691.2988 1334.498 C 1694.2705 1336.5795 1696.4503 1336.3796 1699.4883 1333.75 C 1701.9135 1331.6508 1702.4526 1329.3887 1707.541 1300 C 1710.5407 1282.675 1712.9968 1266.8731 1712.998 1264.8848 C 1712.998 1257.471 1705.9083 1253.1559 1702.4336 1258.459 C 1701.4947 1259.8918 1699.5356 1268.964 1697.7383 1280.1895 C 1695.5055 1294.1353 1694.438 1298.7725 1693.877 1296.9785 C 1693.4507 1295.6151 1691.6636 1286.8753 1689.9043 1277.5566 C 1687.3042 1263.7849 1686.2736 1260.1818 1684.3984 1258.3066 C 1682.832 1256.7402 1680.9867 1256.04 1679.1914 1256.0996 z M 1527.1406 1256.1035 C 1525.834 1256.1868 1524.5391 1256.8485 1523.4043 1258.0996 C 1521.8096 1259.8577 1521.4186 1262.2603 1521 1272.8496 L 1520.5 1285.5 L 1511.25 1285.7871 L 1502 1286.0762 L 1501.9902 1275.7871 C 1501.9802 1263.3369 1500.7792 1258.3145 1497.4355 1256.791 C 1494.2187 1255.3253 1490.2999 1257.0671 1488.9746 1260.5527 C 1488.4066 1262.0467 1487.9961 1276.9961 1487.9961 1296.1152 C 1487.9961 1323.2704 1488.257 1329.6045 1489.4746 1331.959 C 1491.9162 1336.6806 1495.4905 1337.2297 1499.0586 1333.4316 L 1499.0645 1333.4316 C 1501.3411 1331.0082 1501.4974 1330.0519 1501.8496 1316.4316 L 1502.2227 1302 L 1511.6113 1302 L 1521 1302 L 1521 1316.5449 C 1521 1330.6548 1521.0736 1331.1638 1523.4551 1333.5449 C 1526.6235 1336.7132 1529.3391 1336.6561 1531.9277 1333.3652 C 1533.9341 1330.8145 1534 1329.6215 1534 1296 C 1534 1262.3785 1533.9343 1261.1855 1531.9277 1258.6348 C 1530.5211 1256.8465 1528.8205 1255.9964 1527.1406 1256.1035 z M 1316.2168 1256.1582 C 1310.6234 1256.2718 1305.012 1258.3081 1300.6973 1262.3672 C 1290.2674 1272.179 1287.0084 1299.6894 1294.0547 1318.4414 C 1296.6504 1325.3493 1303.6151 1332.9474 1309 1334.7461 C 1314.5561 1336.602 1323.2962 1335.6031 1328.5781 1332.5078 C 1333.6523 1329.5341 1337.9378 1323.5659 1340.7168 1315.6055 C 1342.1278 1311.5639 1342.4926 1307.3756 1342.4668 1295.5 C 1342.4308 1278.8889 1341.1214 1273.6083 1334.9082 1265.0312 C 1330.5698 1259.0422 1323.4083 1256.0121 1316.2168 1256.1582 z M 1912.2793 1256.1582 C 1909.3462 1256.193 1907.5754 1256.8299 1904 1258.6699 C 1894.0912 1263.7688 1889.2819 1273.8579 1888.291 1291.623 C 1887.0678 1313.5512 1894.0444 1329.9122 1906.6152 1334.5898 C 1911.2769 1336.3245 1920.4091 1335.8741 1924.6074 1333.7031 C 1935.7106 1327.9614 1941.9443 1311.4005 1940.6797 1291 C 1939.3366 1269.3351 1930.7618 1257.4203 1915.709 1256.3008 C 1914.3633 1256.2007 1913.257 1256.1466 1912.2793 1256.1582 z M 1860.8008 1256.1816 C 1855.8472 1256.3185 1851.7568 1258.1822 1847.4688 1262.1348 C 1840.09 1268.9363 1836 1280.9984 1836 1295.9531 C 1836 1315.9815 1842.7579 1330.3494 1854.2383 1334.7266 C 1859.6326 1336.7833 1868.629 1335.639 1873.4043 1332.2891 C 1886.1866 1323.3224 1888.1032 1297.8033 1875.6348 1302.5879 C 1874.7938 1302.9106 1873.1491 1306.0468 1871.9805 1309.5586 C 1868.581 1319.7742 1862.4536 1323.5046 1856.6152 1318.9121 C 1852.8236 1315.9297 1851.1539 1312.1448 1849.9785 1303.8574 C 1847.6095 1287.1535 1853.3465 1271 1861.6465 1271 C 1864.8789 1271 1869.5361 1275.383 1871.4727 1280.2461 C 1874.601 1288.1016 1878.0621 1289.9379 1882.1113 1285.8887 C 1883.8987 1284.1013 1884.1584 1282.8822 1883.8027 1277.9648 C 1883.0055 1266.9444 1874.5757 1257.5669 1864.3809 1256.3594 C 1863.1326 1256.2116 1861.9439 1256.1501 1860.8008 1256.1816 z M 1413.1895 1256.1973 C 1412.7726 1256.2091 1412.3592 1256.2343 1411.9492 1256.2715 C 1402.8301 1257.0984 1396.8839 1261.2994 1392.5312 1269.9922 C 1388.8973 1277.2496 1387.5041 1284.6743 1387.5605 1296.5 C 1387.6525 1315.7376 1392.9687 1327.6442 1404.0059 1333.3301 C 1408.6498 1335.7225 1410.3614 1336.0878 1415.0723 1335.6914 C 1418.1371 1335.4335 1422.5308 1334.2599 1424.8359 1333.084 C 1429.7842 1330.5595 1434.0974 1324.9592 1437.1133 1317.1445 C 1439.8422 1310.0732 1440.871 1291.1349 1439.0371 1281.7207 C 1437.6481 1274.5902 1434.011 1266.714 1430.3105 1262.8223 C 1426.3504 1258.6573 1419.4424 1256.0205 1413.1895 1256.1973 z M 1955.791 1256.9531 C 1953.4564 1257.0672 1951.1097 1257.8602 1949.3047 1259.4121 L 1946.5 1261.8242 L 1946.1973 1293.6621 C 1946.0308 1311.1728 1946.1672 1326.9884 1946.502 1328.8066 C 1947.6911 1335.267 1952.9491 1337.9197 1956.5938 1333.8984 C 1958.2575 1332.0626 1958.5633 1329.6888 1959 1315.1484 C 1959.5357 1297.313 1959.7094 1297.3716 1962.9941 1316.5 C 1964.1274 1323.1 1965.4705 1329.4889 1965.9805 1330.6973 C 1967.3639 1333.9753 1971.5192 1336.3371 1974.5586 1335.5742 C 1977.9752 1334.7167 1979.3452 1331.1786 1981.9434 1316.498 C 1985.3279 1297.3744 1985.465 1297.3304 1986 1315.2246 C 1986.4668 1330.8394 1986.648 1332.0979 1988.7285 1334.1758 C 1990.5858 1336.0307 1991.4185 1336.2392 1993.7285 1335.4277 C 1998.6821 1333.6875 1999.1098 1330.2089 1998.7891 1294.2168 L 1998.5 1261.8242 L 1995.6934 1259.4121 C 1990.8816 1255.275 1982.2317 1256.5319 1980.1797 1261.666 C 1979.5567 1263.2247 1977.6781 1271.8951 1976.0059 1280.9336 C 1974.3337 1289.9721 1972.7915 1297.5426 1972.5781 1297.7559 C 1972.1286 1298.2054 1971.9186 1297.2166 1968.4844 1278.5 C 1967.0716 1270.8 1965.4135 1263.2247 1964.8008 1261.666 C 1963.5401 1258.4586 1959.6821 1256.763 1955.791 1256.9531 z M 1182.6582 1256.9746 C 1178.8529 1257.1328 1175.1588 1258.9762 1174.0859 1262.3984 C 1173.5509 1264.1049 1171.9456 1272.025 1170.5195 1280 C 1169.0933 1287.975 1167.5869 1295.3391 1167.1719 1296.3652 C 1166.6801 1297.5815 1165.2751 1292.0124 1163.1348 1280.3652 C 1161.3292 1270.5391 1159.2246 1261.5276 1158.459 1260.3379 C 1156.8109 1257.7768 1152.1754 1256.5571 1147.4512 1257.4434 C 1140.9977 1258.6541 1141 1258.6364 1141 1297.1836 C 1141 1331.632 1141.0169 1331.939 1143.1875 1333.9609 C 1146.1327 1336.7048 1148.4403 1336.5274 1150.9277 1333.3652 C 1152.8202 1330.9593 1153 1329.3955 1153 1315.3652 C 1153 1306.9144 1153.3632 1300 1153.8066 1300 C 1154.25 1300 1155.3904 1304.8375 1156.3418 1310.75 C 1159.2462 1328.8003 1160.2014 1332.0615 1163.248 1334.3359 C 1165.449 1335.9791 1166.5385 1336.1971 1168.7207 1335.4297 C 1172.4146 1334.1306 1174.3686 1328.7364 1177.209 1312 L 1179.5 1298.5 L 1180 1314.5 C 1180.315 1324.5798 1180.9612 1331.3068 1181.748 1332.6816 C 1184.2943 1337.1307 1190.1403 1336.3898 1192.0469 1331.375 C 1193.4307 1327.7351 1193.2878 1264.7289 1191.8887 1261.6582 C 1190.3783 1258.3434 1186.4635 1256.8164 1182.6582 1256.9746 z M 1211.9492 1256.9902 C 1206.3189 1256.9611 1205.587 1257.4514 1203.4336 1259.3027 L 1200.5 1261.8242 L 1200.1836 1292.6621 C 1200.01 1309.623 1200.1549 1325.4451 1200.5059 1327.8223 C 1201.4419 1334.1658 1204.9295 1337.1156 1209.4453 1335.3828 C 1212.6256 1334.1623 1213.4983 1330.5463 1214 1316.5 L 1214.5 1302.5 L 1217 1302.8105 C 1220.7137 1303.27 1223.0204 1306.6972 1228.0039 1319.1641 C 1232.8103 1331.1881 1235.992 1336 1239.1348 1336 C 1241.8899 1336 1246 1331.5682 1246 1328.5977 C 1246 1324.9145 1240.3381 1309.9258 1236.8984 1304.502 C 1234.0676 1300.0382 1234.0053 1299.7149 1235.7051 1298.4258 C 1236.6926 1297.6769 1237.8177 1297.0487 1238.207 1297.0312 C 1238.5964 1297.0143 1240.1714 1294.8625 1241.707 1292.25 C 1244.1717 1288.0571 1244.5 1286.503 1244.5 1279 C 1244.5 1271.7993 1244.1227 1269.8434 1242.0371 1266.2012 C 1237.8587 1258.9042 1234.6133 1257.6053 1219.4473 1257.1621 C 1216.2477 1257.0686 1213.826 1257 1211.9492 1256.9902 z M 1461.9785 1257 C 1452.0174 1257 1443.0451 1257.4401 1442.0391 1257.9785 C 1438.2162 1260.0245 1437.4053 1268.4311 1440.7617 1271.2207 C 1441.6091 1271.925 1445.0462 1272.725 1448.4004 1273 L 1454.5 1273.5 L 1455 1302.6465 C 1455.4607 1329.5039 1455.6489 1331.9587 1457.4043 1333.8965 C 1459.8362 1336.5811 1463.164 1336.5813 1465.5957 1333.8965 C 1467.3511 1331.9585 1467.5393 1329.5037 1468 1302.6465 L 1468.5 1273.5 L 1473.5 1273.2383 C 1481.0172 1272.8454 1482.547 1272.2882 1483.8281 1269.4766 C 1485.6507 1265.4765 1485.2224 1262.1326 1482.5449 1259.4551 C 1480.1195 1257.0298 1479.8744 1257 1461.9785 1257 z M 1738.6016 1257 C 1723.6714 1257 1723.0091 1257.0867 1720.3047 1259.4121 L 1717.5 1261.8242 L 1717.2441 1294.6621 C 1717.0483 1319.7444 1717.289 1328.086 1718.2637 1329.9805 C 1720.5862 1334.4948 1723.2131 1335.0651 1740.332 1334.7715 C 1754.6731 1334.5255 1756.2982 1334.3168 1757.582 1332.5586 C 1759.0898 1330.4936 1759.4733 1324.2916 1758.2148 1322.3125 C 1756.7373 1319.9888 1751.7281 1319 1741.4355 1319 L 1731 1319 L 1731 1310.5 L 1731 1302 L 1741.3887 1302 C 1753.7551 1302 1756.4004 1300.6995 1756.4004 1294.6152 C 1756.4004 1288.5163 1754.5284 1287.5498 1741.9668 1287.1621 L 1731 1286.8242 L 1731 1279.4121 L 1731 1272 L 1742.5449 1272 C 1753.4697 1272 1754.2223 1271.8675 1756.5449 1269.5449 C 1757.8949 1268.1949 1759 1265.925 1759 1264.5 C 1759 1263.075 1757.8949 1260.8051 1756.5449 1259.4551 C 1754.1501 1257.0604 1753.7141 1257 1738.6016 1257 z M 1562.0781 1257.125 C 1560.5221 1257.1096 1558.9256 1257.1223 1557.3711 1257.168 C 1548.1492 1257.4389 1545.7376 1257.8295 1544.2832 1259.2852 C 1542.652 1260.9177 1542.4754 1264.0489 1542.2129 1296.043 L 1541.9258 1331.0176 L 1544.418 1333.5078 C 1547.5504 1336.6402 1549.4408 1336.6489 1552.5449 1333.5449 C 1554.9179 1331.1718 1555 1330.624 1555 1317.0449 L 1555 1303 L 1557.9277 1303 C 1561.9537 1303 1563.8674 1305.7513 1569.9551 1320.2812 C 1575.0732 1332.4973 1577.5604 1336 1581.1113 1336 C 1584.1562 1336 1587 1332.3922 1587 1328.5293 C 1587 1324.2371 1581.8534 1309.8878 1578.4922 1304.8086 C 1577.1214 1302.7372 1576 1300.6674 1576 1300.209 C 1576 1299.7506 1577.3926 1298.3475 1579.0938 1297.0898 C 1583.7572 1293.6419 1585.9551 1287.844 1585.9551 1279 C 1585.9551 1266.947 1581.8258 1260.3773 1572.707 1257.9219 C 1571.0442 1257.4741 1566.7462 1257.1713 1562.0781 1257.125 z M 1782.6641 1257.5 C 1769.3312 1257.5 1768.7592 1257.5865 1766.9141 1259.8613 C 1765.1112 1262.0844 1765 1264.2203 1765 1296.4766 C 1765 1329.6166 1765.0667 1330.8161 1767.0723 1333.3652 C 1769.1812 1336.0463 1770.5697 1336.4862 1773.4453 1335.3828 C 1776.6256 1334.1623 1777.4983 1330.5463 1778 1316.5 L 1778.5 1302.5 L 1781 1302.8438 C 1785.0687 1303.4019 1786.4867 1305.4435 1792.084 1318.7969 C 1799.2726 1335.9468 1802.3019 1338.7879 1807.6699 1333.4199 C 1809.9264 1331.1634 1810.1724 1330.282 1809.6367 1326.373 C 1808.8428 1320.5815 1804.5165 1309.6898 1800.7832 1304.084 C 1798.0221 1299.9381 1797.9554 1299.605 1799.6719 1298.6543 C 1808.8612 1293.5646 1812.025 1278.3128 1806.25 1266.9453 C 1801.9618 1258.5045 1799.4524 1257.5 1782.6641 1257.5 z M 1316.3945 1270.9883 C 1318.1733 1270.9759 1320.0514 1271.6129 1321.9609 1272.9727 C 1332.5988 1280.5475 1331.9385 1313.8442 1321.0391 1319.4805 C 1317.4933 1321.3141 1316.2502 1321.3505 1313.0293 1319.7207 C 1306.8666 1316.6023 1303.4629 1306.1024 1304.2188 1292.541 C 1304.9539 1279.3516 1310.0418 1271.0326 1316.3945 1270.9883 z M 1413.4473 1271.0703 C 1415.8947 1271.0617 1418.4885 1272.3107 1421.0098 1275.0098 C 1424.832 1279.1015 1426.5114 1285.9238 1426.4297 1297.0176 C 1426.3707 1305.0434 1425.9535 1307.4207 1423.7676 1312.1953 C 1420.2531 1319.8721 1415.4877 1322.4827 1410.0293 1319.7207 C 1403.8783 1316.6082 1400.4777 1306.1449 1401.1953 1292.541 C 1401.8924 1279.3259 1407.1927 1271.0924 1413.4473 1271.0703 z M 1617.0176 1271.1504 C 1621.3164 1271.1408 1625.4146 1274.7766 1627.6641 1281.2793 C 1629.8677 1287.649 1630.1217 1302.3645 1628.1445 1309.166 C 1625.5575 1318.0646 1618.8195 1322.8136 1613.0957 1319.7754 C 1607.0295 1316.5554 1603.4346 1305.4507 1604.2656 1292.5 C 1604.8719 1283.0508 1607.1001 1276.9354 1611.1875 1273.4961 C 1613.0697 1271.9123 1615.0636 1271.1547 1617.0176 1271.1504 z M 1914.2168 1271.2637 C 1918.3055 1271.2042 1921.6925 1273.7392 1924.1465 1278.7227 C 1926.2361 1282.9663 1926.5 1284.8963 1926.5 1296 C 1926.5 1307.0031 1926.2333 1308.9984 1924.2773 1312.6562 C 1921.8397 1317.2146 1917.6392 1321.022 1915.1152 1320.9609 C 1914.2269 1320.9389 1912.1004 1320.3126 1910.3906 1319.5684 C 1905.1626 1317.2927 1902.6173 1310.5658 1902.1641 1297.832 C 1901.6029 1282.0637 1905.2037 1272.8033 1912.4219 1271.4492 C 1913.0339 1271.3344 1913.6327 1271.2722 1914.2168 1271.2637 z M 1214 1272 L 1220.9434 1272 C 1226.9848 1272 1228.0889 1272.2889 1229.4434 1274.2227 C 1230.2996 1275.4451 1231 1278.301 1231 1280.5684 C 1231 1286.3118 1228.7251 1288.0917 1220.5488 1288.748 L 1214 1289.2734 L 1214 1280.6367 L 1214 1272 z M 1555 1272 L 1561.9277 1272 C 1569.6354 1272 1571.4039 1273.0125 1572.5117 1278.0566 C 1573.4704 1282.4211 1571.4327 1286.6538 1567.7559 1287.9355 C 1564.3627 1289.1184 1556.7029 1289.371 1555.666 1288.334 C 1555.2993 1287.9674 1555 1284.1424 1555 1279.834 L 1555 1272 z M 1778 1272 L 1784.9434 1272 C 1790.9848 1272 1792.0889 1272.2889 1793.4434 1274.2227 C 1795.7314 1277.4892 1795.467 1284.2671 1792.9629 1286.5332 C 1790.8339 1288.4599 1780.1785 1289.882 1778.75 1288.4297 C 1778.3375 1288.0103 1778 1284.1424 1778 1279.834 L 1778 1272 z M 1821.8691 1317.4355 C 1821.3594 1317.4248 1820.8822 1317.4925 1820.4707 1317.6504 C 1816.1192 1319.3203 1814.6415 1329.0037 1818.0723 1333.3652 C 1820.592 1336.5685 1823.5951 1336.7295 1826.6855 1333.8262 C 1829.2385 1331.4278 1829.9044 1324.5581 1827.9395 1320.8867 C 1826.924 1318.9893 1824.0779 1317.4823 1821.8691 1317.4355 z M 1125.5801 1317.6504 C 1123.2049 1317.5454 1121.3021 1319.2558 1120.0938 1322.6641 C 1116.9952 1331.4043 1124.1702 1339.8298 1129.8633 1334.1367 C 1134.1897 1329.8103 1133.1968 1320.9029 1128.1055 1318.3652 C 1127.2168 1317.9223 1126.3718 1317.6854 1125.5801 1317.6504 z "
       transform="translate(-849.71425,-788.781)"
       id="rect4766" />
  </g>
</svg>
