<?xml version="1.0" encoding="UTF-8" standalone="no"?>
<svg
   xmlns:dc="http://purl.org/dc/elements/1.1/"
   xmlns:cc="http://creativecommons.org/ns#"
   xmlns:rdf="http://www.w3.org/1999/02/22-rdf-syntax-ns#"
   xmlns:svg="http://www.w3.org/2000/svg"
   xmlns="http://www.w3.org/2000/svg"
   xmlns:sodipodi="http://sodipodi.sourceforge.net/DTD/sodipodi-0.dtd"
   xmlns:inkscape="http://www.inkscape.org/namespaces/inkscape"
   viewBox="0 0 360 360"
   height="360"
   width="360"
   xml:space="preserve"
   version="1.1"
   id="svg2"
   inkscape:version="0.91 r13725"
   sodipodi:docname="ic_menu_clyw.svg"><sodipodi:namedview
     pagecolor="#ffffff"
     bordercolor="#666666"
     borderopacity="1"
     objecttolerance="10"
     gridtolerance="10"
     guidetolerance="10"
     inkscape:pageopacity="0"
     inkscape:pageshadow="2"
     inkscape:window-width="1920"
     inkscape:window-height="1017"
     id="namedview9"
     showgrid="false"
     inkscape:zoom="1.3111111"
     inkscape:cx="487.25564"
     inkscape:cy="168.66696"
     inkscape:window-x="-8"
     inkscape:window-y="-8"
     inkscape:window-maximized="1"
     inkscape:current-layer="svg2"
     borderlayer="true" /><metadata
     id="metadata8"><rdf:RDF><cc:Work
         rdf:about=""><dc:format>image/svg+xml</dc:format><dc:type
           rdf:resource="http://purl.org/dc/dcmitype/StillImage" /><dc:title></dc:title></cc:Work></rdf:RDF></metadata><defs
     id="defs6" /><path
     id="path16"
     style="fill:#000000;fill-opacity:1;fill-rule:nonzero;stroke:none"
     d="m 308.40125,319.3725 c -1.14125,0.0635 -2.2875,0.13238 -3.435,0.20762 -1.14875,0.0761 -2.2075,0.0897 -3.17625,0.0434 0.0238,0.48387 0.0462,0.93413 0.07,1.35012 0.0225,0.415 0.0462,0.7725 0.0687,1.07275 0.035,0.35838 0.0688,0.67625 0.10375,0.95113 0.6225,-0.0928 1.28125,-0.144 1.97375,-0.15625 0.69125,-0.009 1.41875,-0.004 2.18125,0.0186 0,0.56488 0.005,1.185 0.0163,1.86038 0.0112,0.67475 0.02,1.36712 0.0263,2.07712 0.006,0.71001 0.015,1.42238 0.025,2.13763 0.0125,0.71637 0.0213,1.39362 0.0275,2.03375 0.005,0.64012 0.009,1.2285 0.009,1.76612 0,0.53513 0,0.98388 0,1.34038 0.23,-0.0112 0.43375,-0.0264 0.61375,-0.0425 0.1775,-0.0176 0.38125,-0.0328 0.605,-0.044 0.22625,-0.0112 0.45875,-0.0288 0.70125,-0.0528 0.55375,-0.0459 1.1825,-0.0913 1.8875,-0.13713 l -0.415,-10.80137 c 0.80625,0.025 1.6,0.01 2.37875,-0.0424 0.77875,-0.0528 1.53125,-0.16512 2.25875,-0.3375 -0.035,-0.289 -0.0463,-0.559 -0.035,-0.81387 0.0113,-0.254 0.0325,-0.49863 0.0613,-0.73488 0.0275,-0.23637 0.0575,-0.47262 0.0862,-0.71 0.0288,-0.23637 0.0488,-0.48137 0.06,-0.73537 -0.80625,-0.2075 -1.73875,-0.31738 -2.795,-0.32863 -1.055,-0.0111 -2.155,0.0138 -3.2975,0.0776 z m 24.6025,13.53475 c -0.006,-0.14363 -0.015,-0.29738 -0.0263,-0.4585 -0.0113,-0.0801 -0.0288,-0.31738 -0.0525,-0.71 -0.0225,-0.3925 -0.0513,-0.88863 -0.085,-1.48875 -0.035,-0.59862 -0.0762,-1.26513 -0.1225,-1.9975 -0.0462,-0.7325 -0.0887,-1.4815 -0.12875,-2.24125 -0.04,-0.76275 -0.085,-1.50738 -0.13,-2.23388 -0.0462,-0.72762 -0.0863,-1.3785 -0.12125,-1.95612 -0.035,-0.57612 -0.0637,-1.05025 -0.0875,-1.41888 -0.0225,-0.36962 -0.04,-0.57712 -0.0512,-0.62362 -0.12625,-0.0111 -0.2475,-0.02 -0.36375,-0.0249 -0.115,-0.006 -0.23625,-0.0102 -0.36375,-0.0102 -0.345,-0.0224 -0.68875,-0.0361 -1.02875,-0.041 -0.34,-0.008 -0.68375,-0.0151 -1.03,-0.0279 -0.185,-0.0121 -0.36875,-0.0185 -0.555,-0.0259 -0.18375,-0.005 -0.36875,-0.0141 -0.5525,-0.0254 -0.0588,0.128 -0.1125,0.25638 -0.165,0.38925 -0.0512,0.13325 -0.10625,0.2685 -0.165,0.40712 -0.52875,1.29151 -1.0175,2.56738 -1.4625,3.82526 -0.44375,1.25737 -0.9075,2.54487 -1.3925,3.85837 -0.1625,-0.726 -0.35125,-1.44725 -0.57125,-2.1635 -0.22,-0.71488 -0.45,-1.43125 -0.6925,-2.146 -0.2425,-0.71538 -0.48375,-1.43025 -0.7275,-2.1465 -0.24125,-0.71487 -0.46125,-1.43025 -0.65625,-2.145 -0.28875,0.0111 -0.66625,0.0239 -1.13375,0.0336 -0.4675,0.0128 -0.92875,0.02 -1.385,0.0264 -0.45625,0.005 -0.8625,0.0176 -1.22,0.0351 -0.3575,0.0161 -0.57125,0.0371 -0.64125,0.0611 -0.115,0.0464 -0.20125,0.0888 -0.25875,0.12887 -0.0588,0.041 -0.095,0.0859 -0.1125,0.13863 -0.0175,0.0513 -0.0263,0.11775 -0.0263,0.19875 0,0.081 0,0.18012 0,0.29487 0,0.149 -0.009,0.49275 -0.0263,1.03038 -0.0163,0.53612 -0.04,1.19325 -0.0687,1.97212 -0.0288,0.77875 -0.055,1.62988 -0.0775,2.55275 -0.0238,0.92475 -0.035,1.84125 -0.035,2.75238 0,0.91112 0.0112,1.7725 0.035,2.5875 0.0225,0.81387 0.0688,1.49112 0.1375,2.03362 0.415,0.0449 0.81375,0.0738 1.19375,0.0864 0.335,0.0113 0.67375,0 1.01375,-0.0336 0.33875,-0.0366 0.62,-0.11037 0.83875,-0.22662 0.0462,-0.21875 0.0675,-0.5995 0.0612,-1.141 -0.006,-0.5425 -0.0263,-1.14513 -0.0612,-1.80863 -0.0337,-0.66512 -0.075,-1.34625 -0.12125,-2.044 -0.0462,-0.69725 -0.08,-1.31737 -0.10375,-1.85987 0.0937,0.27737 0.22875,0.60262 0.40625,0.9785 0.18,0.375 0.375,0.7725 0.58875,1.19387 0.21375,0.42138 0.43375,0.84275 0.6575,1.26375 0.225,0.42138 0.43625,0.81638 0.6325,1.185 0.19625,0.37013 0.36875,0.69538 0.51875,0.979 0.15,0.28225 0.255,0.49363 0.3125,0.63088 0.0462,0.0913 0.0862,0.19037 0.12,0.294 0.0363,0.104 0.0763,0.2035 0.1225,0.29487 0.045,0.0913 0.10375,0.16888 0.1725,0.23238 0.0688,0.064 0.16125,0.10162 0.27625,0.11287 0.0813,0.0121 0.22875,0.0151 0.4425,0.01 0.21375,-0.007 0.4375,-0.0176 0.675,-0.0348 0.23625,-0.0175 0.46375,-0.0351 0.68375,-0.0526 0.2175,-0.0176 0.38,-0.0376 0.48375,-0.0601 0.1275,-0.0234 0.24,-0.04 0.3375,-0.0522 0.0987,-0.0113 0.185,-0.0288 0.26,-0.0513 0.0738,-0.0239 0.14125,-0.0664 0.19875,-0.13037 0.0575,-0.0635 0.11625,-0.15875 0.17375,-0.28463 0.0462,-0.105 0.10625,-0.29887 0.18125,-0.58162 0.075,-0.28225 0.165,-0.61075 0.26875,-0.98575 0.10375,-0.37413 0.21875,-0.78125 0.345,-1.22025 0.1275,-0.4375 0.25625,-0.86238 0.39,-1.2715 0.1325,-0.40875 0.265,-0.78463 0.3975,-1.126 0.13375,-0.33988 0.26875,-0.60888 0.40625,-0.80375 0.0937,0.61137 0.15625,1.315 0.19125,2.11137 0.035,0.79588 0.0588,1.55713 0.07,2.28375 0.01,0.84375 0.005,1.69625 -0.0175,2.5625 0.46125,0.0224 0.905,0.0272 1.3325,0.0175 0.3575,-0.0126 0.72,-0.0303 1.09,-0.0512 0.36875,-0.0254 0.6525,-0.0713 0.84875,-0.14012 0,-0.104 -0.006,-0.21875 -0.0175,-0.34625 -0.0112,-0.104 -0.02,-0.2275 -0.0262,-0.3715 z M 107.54688,270.335 C 103.4775,274.73387 82.377,296 76.65575,302.57125 c -1.965375,2.25637 -6.13525,5.6035 -4.792,7.90875 3.131875,4.99362 10.92925,11.706 13.285625,10.50725 3.4415,-1.69862 18.820375,-21.7245 21.426745,-24.64838 12.84825,-14.40387 38.03638,-45.28512 50.72638,-59.60737 4.2225,-4.76775 11.315,-12.919 18.42,-21.09025 l -8.46125,-9.3825 C 147.31625,227.6 120.05025,256.815 107.54688,270.335 Z M 145.865,159.17625 c -3.25,-3.6 -6.3975,-7.31875 -9.73875,-10.8525 -6.67875,-7.06625 -26.41725,-29.4225 -29.4925,-33.66625 -3.25338,-4.49125 -4.33438,-10.695 -8.411625,-14.5275 -4.057125,4.3 -11.267,10.8825 -16.908125,14.24875 13.325625,8.5025 43.96225,40.99375 43.96225,41.4575 1.6625,0.65625 67.2,71.1325 73.73375,79.57738 8.345,8.5625 30.495,34.47987 39.97375,45.31 3.4925,4.48387 27.68125,31.77249 28.6625,33.38862 3.19625,3.254 4.8725,6.70662 10.01375,5.564 2.66125,-0.58888 9.01125,-7.29 9.74,-8.90237 0.76875,-1.70163 -0.17,-3.1875 -1.1125,-4.45163 C 283.22,302.206 269.0725,288.19238 266.25125,285.73 270.5,285.79637 209.47,227.48375 210.975,228.73625 c -9.80625,-9.39 -34.92125,-37.145 -35.05875,-37.28375 C 170.9925,186.505 149.1175,162.77625 145.865,159.17625 Z m 203.69375,-0.5275 c -0.002,-0.65 -0.0412,-1.33125 -0.0637,-1.995 l -1.13,0.0412 1.13,-0.045 c -0.18125,-3.0925 -2.975,-8.715 -6.25125,-14.7575 -3.2825,-5.98 -7.0525,-12.075 -9.2125,-15.2175 -3.57375,-5.195 -11.0225,-13.63125 -14.5225,-18.20375 l -0.025,-0.0337 -0.04,-0.0438 c -2.72125,-2.9775 -6.09125,-6.59625 -8.9375,-9.51875 -1.42625,-1.46 -2.7175,-2.7475 -3.74625,-3.70375 -0.38625,-0.35875 -0.73375,-0.67125 -1.04375,-0.9325 1.29,-1.45 3.18375,-3.74125 3.65125,-4.3525 1.86375,-2.525 4.965,-5.2875 6.265,-8.50375 l 0.1975,-0.5 -0.2525,-0.47125 c -3.6975,-6.93 -8.02125,-12.4175 -14.0275,-16.9825 -0.99625,-0.7575 -2.33125,-1.7675 -3.69,-2.60875 -1.16625,-0.6975 -2.295,-1.29375 -3.47125,-1.49375 -0.08,-0.01875 -0.15125,-0.01875 -0.22875,-0.03125 -0.145,-0.0175 -0.2875,-0.05625 -0.43375,-0.06 -0.0288,0 -0.085,0.0038 -0.13,0.005 -0.002,0 -0.006,-0.0012 -0.01,-0.0012 -0.005,0 -0.01,0.0025 -0.015,0.0025 -0.0325,0.0012 -0.0475,-0.0025 -0.0913,0.0025 -1.8825,0.15125 -3.35125,1.4525 -4.65375,2.775 -1.28875,1.3425 -2.4075,2.84875 -3.17125,3.6575 -2.29875,2.465 -3.21125,4.15 -5.05875,5.6225 -5.56125,-3.72875 -10.755,-7.98125 -16.7725,-11.4575 -6.175,-3.5625 -21.52125,-13.6725 -44.64,-21.245 -4.0375,-1.3075 -7.39625,-2.70125 -10.34125,-2.99625 -0.33375,-0.0375 -0.6575,-0.06125 -0.9675,-0.06375 -0.0125,0 -0.0275,-0.0025 -0.0412,-0.0025 -0.105,0 -0.20875,0.01 -0.3125,0.0125 -0.0937,0.005 -0.19,0.005 -0.2825,0.0125 -0.75125,0.055 -1.4825,0.2175 -2.1625,0.54375 -0.5875,0.16375 -1.2725,0.88875 -1.22625,1.65 0.0425,0.8925 0.47125,1.38125 0.91875,1.92625 1.39,1.55625 4.02375,3.2975 6.14625,4.505 26.58,13.48625 43.905,28.5075 49.15875,33.0325 1.45125,1.15875 4.13875,4.2075 4.1525,5.445 0.01,0.1 0.015,0.19875 0.015,0.30375 0.0275,1.1475 -0.8175,2.43375 -1.8975,3.8025 -1.025,1.3725 -2.33,2.76125 -2.38375,4.76875 -0.005,1.09625 0.49,2.15375 1.43375,3.11625 -4.42,4.56625 -7.505,10.05 -11.475,14.5275 l -0.0875,0.0962 -0.0613,0.1125 c -2.82125,5.17625 -15.2775,19.5525 -29.7,35.415 -14.08375,15.50625 -30.12,32.5825 -41.29375,44.57 -4.89375,-5.1975 -9.36125,-9.955 -12.47375,-13.285 -12.08125,-12.93 -32.03875,-35.30375 -33.31125,-36.9175 -1.57875,-1.995 -6.11125,-7.19125 -10.24075,-11.965 -2.41262,-3.26625 -4.94975,-6.3475 -7.67675,-9.14125 -4.6065,-6.05 -8.71587,-12.62 -13.6655,-18.73 0.21825,-0.70125 0.32763,-1.3475 0.32763,-1.9575 -0.007,-2.3575 -1.64313,-3.58125 -2.739755,-4.57625 -1.145,-1.06375 -2.01175,-1.91125 -2.15575,-3.93125 0.115625,-0.3375 1.041,-1.6675 2.378875,-3.12625 4.2715,-4.78375 12.875,-12.6275 17.36225,-16.16125 2.61338,-2.06 14.02725,-10.55875 25.7085,-16.69 3.59375,-1.8875 8.835,-4.0575 13.19125,-6.08625 2.18125,-1.01625 4.1425,-1.99375 5.6175,-2.92625 0.74125,-0.47125 1.36,-0.9225 1.8475,-1.4125 0.47125,-0.49 0.9125,-1.04375 0.9375,-1.89875 0.001,-0.34375 -0.1025,-0.7025 -0.285,-0.99625 -0.39,-0.5875 -0.895,-0.74625 -1.32625,-0.8625 -0.45125,-0.10375 -0.93,-0.1375 -1.48125,-0.14 -0.24625,0.0012 -0.51375,0.0125 -0.79625,0.02875 -0.14,0.0075 -0.29375,0.02125 -0.4425,0.0325 -0.15375,0.0125 -0.305,0.02375 -0.46625,0.03875 -0.11,0.01125 -0.225,0.02375 -0.33875,0.0375 -9.1,0.97625 -30.095,7.0725 -35.80562,9.4875 C 111.1455,53.255 95.77,63.32 82.36575,74.89125 79.1895,71.4725 76.315375,66.28625 72.601625,62.89 L 72.28325,62.6 71.8535,62.59125 c -0.07712,-0.0025 -0.168,-0.005 -0.269,-0.005 -0.17825,0.0012 -0.337375,0.02875 -0.50975,0.03875 -0.216875,0.0125 -0.437,0.01875 -0.644125,0.04625 -3.19375,0.3975 -5.3105,2.3075 -7.088375,3.36375 -3.2685,1.9925 -6.867625,5.36875 -9.128875,7.6925 -3.168,3.2675 -6.045375,6.70125 -8.434125,9.84125 l -0.461375,0.60375 0.3735,0.66625 c 3.05575,5.37125 8.005375,8.50125 11.80175,12.3625 -1.2685,1.03375 -3.27775,2.7875 -4.436,4.10875 -0.13275,0.17 -2.0015,1.875 -4.6665,4.5575 C 40.311,114.01375 23.92575,132.1575 14.24225,156.33 l -0.01225,0.0312 -0.01175,0.0437 c -1.369125,4.2925 -4.3618,10.765 -4.385725,16.32 0,0.61375 0.036125,1.22125 0.1264625,1.82 l 0.2475505,1.7 1.482425,-0.8675 c 3.000037,-1.75875 5.244662,-4.59125 7.054662,-7.31125 C 28.71825,153.02625 40.6445,139.3725 50.398,129.5 c 4.877875,-4.93625 9.21425,-8.92875 12.480875,-11.67125 1.630875,-1.37125 2.997625,-2.42875 4.00975,-3.12625 0.5045,-0.34875 0.921875,-0.60625 1.215875,-0.75875 0.1445,-0.075 0.25775,-0.125 0.318875,-0.145 0.711875,0.0875 1.380375,0.92 2.120125,2.2875 0.79875,1.33 1.421875,3.12125 3.373,3.78125 0.376,0.10875 0.747125,0.1525 1.09475,0.1525 1.67375,-0.0625 2.747,-0.80125 3.380375,-0.73 0.02687,0 0.05125,0 0.07612,0.002 6.312,5.17625 12.662125,10.62125 18.189,16.445 5.61575,5.91625 11.498,11.5125 17.26463,17.265 5.6445,5.6275 10.957,11.915 16.99237,17.5475 6.7325,6.27625 26.19625,27.59375 30.0575,31.895 0.49375,0.5475 1.5075,1.6725 2.90125,3.2125 -19.54375,21.72125 -43.15762,45.30875 -62.02237,64.6575 -9.545005,9.79237 -17.877005,18.4975 -23.863755,25.34762 -2.996625,3.42863 -5.40625,6.39113 -7.103125,8.82225 -1.6865,2.46138 -2.720125,4.25775 -2.834875,5.92388 l -0.002,0.0361 0,0.04 c 0.171375,3.26125 3.208,6.98638 6.430625,10.41888 1.624125,1.68262 3.317875,3.22512 4.786125,4.40137 1.506875,1.18125 2.61875,1.98 3.676375,2.27838 0.762125,0.19037 1.51025,0.27787 2.23575,0.27537 5.45025,-0.0664 9.251,-4.65137 11.956625,-7.76262 5.411125,-6.34238 45.875625,-54.49275 82.380625,-97.1525 11.0125,12.17487 23.14375,25.60112 25.1075,27.87612 7.02625,8.12501 26.9475,31.80663 34.73375,40.73238 3.80875,4.36037 19.4425,22.13137 27.2325,31.67525 1.69625,1.96 4.75375,4.46387 7.1525,4.86625 0.22625,0.0264 0.45125,0.04 0.67375,0.04 3.06375,-0.0498 5.95,-2.17525 8.5375,-4.54 2.56875,-2.38475 4.76875,-5.1275 5.985,-6.71875 1.1375,-1.5185 2.3275,-2.76763 2.92875,-4.15238 0.27875,-0.6675 0.40625,-1.38037 0.40625,-2.09025 -0.125,-4.56112 -4.585,-9.35987 -10.495,-15.1885 -5.94625,-5.77487 -13.52,-12.32762 -20.18125,-19.28762 C 260.575,275 256.4975,270.71725 251.385,265.39262 c -3.2475,-3.81737 -8.53125,-9.23487 -9.8075,-10.6075 -3.8175,-4.7065 -7.98625,-8.61525 -12.2675,-12.24262 -1.94375,-2 -3.47625,-3.57125 -4.3475,-4.45613 -5.40625,-5.49637 -10.87625,-10.80012 -15.81,-16.36512 -1.135,-1.28 -7.33375,-7.8725 -14.915,-15.9275 11.1325,-12.9225 21.305,-24.6075 29.2175,-33.48375 8.04625,-9.0375 13.86375,-15.24 15.6775,-16.63125 7.54375,-6.7725 20.7175,-25.59875 45.35375,-40.59 0.70375,0.3875 1.43375,0.5825 2.135,0.5775 1.88375,-0.0338 3.2075,-1.16 4.4225,-2.04 1.2225,-0.9275 2.32125,-1.64625 3.335,-1.66 l 0.006,-0.485 0,0.4825 c 0.035,0 0.035,0 0.035,0 l 0,-0.004 c 0.2725,0.001 1.39125,0.435 2.4775,1.085 1.1725,0.67375 2.44875,1.5225 3.4675,2.175 12.525,8.035 21.15125,19.72875 30.90625,30.52625 1.7625,1.94 8.915,10.57375 10.70625,12.42 2.5875,2.5625 3.82875,3.715 5.47875,3.84875 0.935,0.0463 1.70875,-0.78625 1.8575,-1.4075 0.215,-0.64 0.2375,-1.27375 0.245,-1.95875 z m 1.41875,2.05625 -0.0663,0.002 c -0.007,0.68875 -0.0263,1.5775 -0.35375,2.5625 l -0.34625,1.025 -0.11,-0.0562 c -0.65,1.0225 -1.8025,1.85375 -3.4025,1.93 -0.03,0 -0.1025,0 -0.2675,-0.009 -2.7225,-0.29 -4.2925,-2.00875 -6.8575,-4.50625 -1.94125,-2.01 -9.0575,-10.61 -10.75625,-12.475 -9.845,-10.92125 -18.37125,-22.41125 -30.4625,-30.1525 -1.0425,-0.66625 -2.2975,-1.4975 -3.4175,-2.1425 -0.50375,-0.31375 -1.1675,-0.60875 -1.49875,-0.73625 -0.009,0.003 -0.0188,0.006 -0.03,0.01 -0.1125,0.0413 -0.275,0.115 -0.465,0.22 -0.38375,0.20875 -0.8775,0.5375 -1.455,0.99 -1.07375,0.75 -2.87125,2.385 -5.65125,2.45 l -0.16,0.005 -0.0538,-0.006 c -0.605,-0.015 -1.20375,-0.1225 -1.78125,-0.3075 -23.675,14.685 -36.2725,32.7 -44.21625,39.87625 -1.39625,1.0325 -7.4075,7.37875 -15.37,16.345 -7.3675,8.26625 -16.72375,19.00125 -26.98125,30.8925 6.325,6.71875 11.205,11.9175 12.26375,13.11125 4.8575,5.48125 10.30375,10.76125 15.73375,16.27987 0.87125,0.88625 2.39,2.44 4.245,4.35988 4.325,3.66262 8.585,7.65775 12.4125,12.38387 1.23625,1.33 6.55,6.77388 9.785,10.58388 5.1275,5.34237 9.1675,9.58262 10.21,10.76612 6.56375,6.86288 14.11,13.39263 20.1425,19.24513 5.83,5.86625 10.7825,10.6915 11.13625,16.68262 0.23,0.816 0.3825,1.65725 0.42,2.56113 0.003,0.96775 -0.17125,1.975 -0.58875,2.96475 -0.84125,1.88137 -2.1625,3.19875 -3.19375,4.6065 -1.255,1.64012 -3.515,4.46487 -6.24875,7.00637 -2.685,2.41988 -5.8975,4.98975 -10.0125,5.11125 -0.31875,0 -0.635,-0.0215 -1.05125,-0.0727 -3.39375,-0.6675 -6.46375,-3.41012 -8.4675,-5.63862 -7.74125,-9.4815 -23.3775,-27.25738 -27.1875,-31.62013 C 229.06,285.99512 209.14,262.31737 202.1325,254.21 c -1.815,-2.09863 -12.87625,-14.34775 -23.405,-25.99 -36.06875,42.176 -75.414,88.99137 -80.78025,95.2815 -2.6645,2.996 -6.814,8.34225 -13.577625,8.50588 l -0.473125,0.002 -0.03225,-0.0122 c -0.753875,-0.0312 -1.525375,-0.1425 -2.36325,-0.34763 -1.6275,-0.48875 -2.88375,-1.4785 -4.436,-2.67475 -1.55225,-1.24662 -3.30525,-2.84037 -5.019125,-4.61775 -3.226,-3.52637 -6.6675,-7.33 -7.017125,-11.90712 l 0,-0.13925 0.005,-0.0336 0,-0.009 0.0054,-0.0585 c 8.75e-4,-0.0127 0.0024,-0.025 0.0039,-0.0361 -0.209,-0.68662 -0.3775,-1.40775 -0.43025,-2.22362 l 0,-0.15138 0.003,-0.0312 0.0029,-0.0553 c 0.211,-2.4585 1.518125,-4.49112 3.223625,-7.01212 1.774,-2.54788 4.224125,-5.55138 7.25,-9.01125 6.043,-6.91513 14.38775,-15.63775 23.944875,-25.4365 18.161625,-18.6275 40.681625,-41.1475 59.717875,-62.11375 -0.09,-0.10125 -0.1725,-0.19125 -0.2425,-0.27 -3.81375,-4.25375 -23.35625,-25.64 -29.92125,-31.75625 -6.15812,-5.75 -11.48875,-12.0625 -17.04538,-17.59625 -5.74262,-5.72875 -11.63912,-11.3375 -17.30562,-17.3075 -5.19,-5.46875 -11.1695,-10.64375 -17.1865,-15.5975 -0.06112,0.02 -0.1255,0.0413 -0.192875,0.0625 -0.61625,0.20375 -1.51225,0.4575 -2.67725,0.49875 -0.536125,0 -1.121625,-0.07 -1.80575,-0.26875 -3.046375,-1.06625 -3.932125,-3.825 -4.595625,-4.82625 -0.132375,-0.25375 -0.267125,-0.48125 -0.390625,-0.67 -0.03125,0.0212 -0.063,0.0425 -0.09575,0.065 -0.9165,0.63 -2.2465,1.65625 -3.839875,2.99625 -3.200625,2.68375 -7.496,6.63875 -12.332,11.535 -9.671375,9.78875 -21.522375,23.35625 -31.390125,38.24375 -1.88325,2.81625 -4.297375,5.935 -7.771962,7.98625 l -4.2851505,2.5 -0.1987375,-1.375 -0.169425,-1.15625 -0.049812,0.0312 -0.708,-4.89625 C 6.438475,173.60625 6.3964875,172.89 6.398925,172.18 c 0.062988,-6.26625 3.2192375,-12.885 4.459963,-16.88 l 0.03662,-0.14375 0.01806,-0.0475 0.02881,-0.0737 0.02099,-0.055 C 20.828125,130.3725 37.40775,112.05 45.59325,103.79 47.981,101.38625 49.836,99.6625 50.164125,99.33375 L 50.168,99.33 c 0.4795,-0.54375 1.045875,-1.11375 1.637125,-1.675 -3.00825,-2.63 -6.40225,-5.51 -8.8505,-9.78125 l -1.07675,-1.92125 -0.417375,-2.5 0.3735,-0.48875 0.4985,-0.655 L 42.793,81.71 c 2.432125,-3.2025 5.36325,-6.69875 8.6055,-10.04 2.33875,-2.4 5.98525,-5.85 9.588375,-8.05375 1.450125,-0.81625 3.991625,-3.14875 7.8955,-3.645 0.357375,-0.04875 0.646875,-0.0525 0.859375,-0.065 l 0,-0.0037 C 69.768125,59.9 69.812,59.895 69.86725,59.89 c 0.115125,-0.01125 0.271375,-0.02375 0.470125,-0.02375 0.133375,0 0.24325,0.0025 0.318875,0.0025 l 1.246125,0.02875 0.25875,0.235 0.347125,0.31375 0.32425,0.295 c 3.435125,3.17375 6.03275,7.4275 8.5225,10.5375 13.15425,-11.0975 27.86125,-20.63875 39.49163,-25.63625 6.08962,-2.54625 26.83962,-8.585 36.42462,-9.6475 0.09,-0.0087 0.2175,-0.02375 0.35375,-0.03375 0.1925,-0.02125 0.3625,-0.03375 0.51375,-0.045 0.1225,-0.01 0.29625,-0.02625 0.47875,-0.03625 0.31125,-0.01875 0.61875,-0.02875 0.9375,-0.03125 0.62625,0.0025 1.285,0.04 2.01125,0.20625 0.5575,0.13375 1.8,0.53125 2.6475,1.83375 0.39125,0.6375 0.605,1.375 0.60875,2.14 0,0 0,0.0075 0,0.0625 -0.005,0.19625 -0.0263,0.375 -0.055,0.5375 0.305,0.58 0.4675,1.22875 0.4725,1.9 0,0 0,0.005 0,0.0625 -0.0388,1.6725 -0.9875,2.79125 -1.575,3.38875 -0.66625,0.66375 -1.41875,1.2 -2.22625,1.71125 -1.6275,1.0325 -3.65,2.0275 -5.865,3.0625 -4.41,2.05375 -9.65125,4.23 -13.0975,6.04 -11.46625,6.0125 -22.85713,14.48625 -25.37375,16.475 -4.33888,3.4075 -12.9765,11.28875 -17.102,15.92125 -0.38825,0.41875 -0.73825,0.835 -1.036125,1.2075 0.081,0.07875 0.167,0.1625 0.25775,0.25125 0.898995,0.83 3.440995,2.6825 3.451245,6.19625 l 0,0.005 c -5e-4,0.06625 -0.003,0.12375 -0.006,0.17 0.21775,0.58 0.37012,1.23 0.41062,1.94875 4.4795,5.74375 8.28325,11.705 12.40675,17.12875 2.77925,2.85875 5.34575,5.98 7.67138,9.14125 4.135,4.78125 8.6425,9.94375 10.30625,12.0475 1.1,1.405 21.17875,23.925 33.18875,36.775 2.7675,2.96125 6.61,7.05 10.87,11.57625 11.07125,-11.87125 26.2725,-28.07375 39.6825,-42.83875 14.35625,-15.76 26.92625,-30.37 29.395,-34.98625 l 0.185,-0.3475 0.0825,-0.0863 0.0875,-0.0962 0.0787,-0.0913 c 3.32625,-3.725 6.15625,-8.4725 9.9725,-12.86375 -0.0387,-0.25375 -0.0662,-0.52125 -0.0662,-0.8 l 0,-0.0063 c 0,-0.01875 0,-0.05375 0.004,-0.09625 0.001,-0.035 0.002,-0.05875 0.002,-0.0675 0.004,-0.06125 0.009,-0.11375 0.0138,-0.16 -0.2675,-0.66625 -0.43625,-1.3875 -0.4375,-2.1475 0,-0.0025 0,-0.005 0,-0.0075 -0.002,-0.03125 -0.004,-0.07625 0.004,-0.13625 0.001,-0.025 0.002,-0.04625 0.004,-0.0575 0.14375,-2.93125 1.975,-4.74125 2.85625,-5.9825 0.40625,-0.4975 0.73,-0.96625 0.9675,-1.36875 -0.065,-0.08375 -0.13125,-0.16875 -0.19875,-0.25375 -0.745,-0.93 -1.74875,-1.94125 -2.34,-2.40625 -5.22125,-4.49625 -22.37125,-19.36375 -48.815,-32.78875 -2.23125,-1.285 -4.95375,-3.0325 -6.74625,-5.0075 -0.4,-0.48125 -1.33,-1.5275 -1.40875,-3.075 -0.0125,-0.10125 -0.0163,-0.1875 -0.0175,-0.26375 0,-0.0063 0,-0.0125 0,-0.0175 -0.001,-0.015 -0.002,-0.02625 -0.001,-0.0325 0,-0.0575 0.004,-0.11125 0.0113,-0.16125 0.0125,-0.125 0.0325,-0.2375 0.0537,-0.335 -0.2325,-0.47125 -0.4275,-1.05125 -0.4675,-1.7275 -0.009,-0.07125 -0.0138,-0.13375 -0.0138,-0.19 -0.001,-0.005 -0.001,-0.01 -0.001,-0.0175 -0.001,-0.01375 -0.001,-0.03625 -0.001,-0.07125 0.0125,-0.0025 -0.02,-0.03375 0.01,-0.17 0.10875,-1.4425 0.91875,-2.52875 1.9325,-3.125 l 0,-0.0075 0.0813,-0.03875 c 0.14875,-0.0825 0.3025,-0.155 0.4575,-0.2175 0.975,-0.46625 1.985,-0.67875 2.91875,-0.7475 0.195,-0.01625 0.35125,-0.01625 0.38375,-0.0175 0.02,0 0.20125,-0.01375 0.47,-0.01375 l 0.001,0.0025 c 0.4,0.0038 0.79,0.0325 1.1525,0.07375 3.44375,0.3675 6.84875,1.82875 10.80125,3.095 23.3675,7.645 38.9775,17.92625 45.055,21.43 5.6675,3.27875 10.51875,7.1375 15.46375,10.5575 0.9375,-1.03 1.92375,-2.43 3.68625,-4.3375 0.59375,-0.61125 1.78375,-2.2075 3.20375,-3.69 1.32875,-1.32625 3.15,-3.11375 5.86125,-3.395 0.12875,-0.02 0.2375,-0.02875 0.32125,-0.03125 l 0.12125,-0.01375 0.10125,0.01 0.005,0.0012 c 0.03,-0.0012 0.0663,-0.0012 0.1175,-0.0012 0.31625,0.01375 0.5625,0.06375 0.65125,0.07875 l 0,0.0025 0.84625,0.0525 0,0.1 c 1.41125,0.345 2.6025,1.01875 3.7125,1.67625 1.47625,0.915 2.86125,1.9675 3.86375,2.7275 6.28375,4.77125 10.835,10.565 14.63375,17.69625 l 0.72625,1.3575 0.42,2.5 -0.15875,0.40625 -0.2125,0.5375 -0.20625,0.525 c -1.60875,3.865 -4.91875,6.7225 -6.555,9.00625 -0.24625,0.32375 -0.75875,0.95375 -1.3725,1.69125 0.60375,0.6 1.24625,1.24875 1.925,1.9425 2.8725,2.9525 6.2525,6.57875 8.99,9.5725 l 0.125,0.14125 0.0362,0.05 0.04,0.0563 c 3.42,4.47125 10.85875,12.885 14.56875,18.2675 2.225,3.2375 6.0025,9.35125 9.33625,15.4175 2.74125,5.12375 5.21,9.81625 6.1475,13.54625 l 0.2875,-0.01 0.0337,0.9375 0.0437,1.28875 0,-0.0425 0.0138,0.215 c 0.01,0.0375 0.0188,0.0763 0.0288,0.11375 l 0.2975,-0.01 0.0337,0.9375 0.0412,1.17625 0,0.0163 0.12875,2.2175 z M 249.475,114.81625 c -5.725,7.28 -11.8275,14.47 -17.47875,21.305 -1.22875,1.4825 -34.4825,37.93875 -41.20625,44.995 -0.5225,0.54875 -4.36875,4.65375 -10.20125,10.88875 l 8.16125,8.77625 9.10625,-10.39625 c 3.35,-3.51375 6.675,-6.82 9.865,-10.4525 3.1825,-3.6225 6.2175,-7.215 9.57125,-10.70875 13.35375,-13.90875 25.99875,-28.60125 40.3475,-41.31125 3.6525,-3.23375 7.27125,-6.27625 10.76,-9.6775 3.53125,-3.445 8.49625,-4.62875 11.67,-8.62625 -5.12625,-4.1975 -14.90625,-13.74 -15.185,-13.72 -4.31375,6.8475 -10.30375,12.42625 -15.41,18.9275 z m 66.12625,-5.04375 C 306.355,98.94 296.72125,90.81 287.15125,80.45 c -7.7525,-6.65875 -15.6,-13.1275 -23.76125,-17.8875 -4.87125,-2.84125 -34.535,-20.99 -52.14625,-23.7375 5.01125,2.7975 25.31375,14.78 30.10375,17.99625 7.56625,5.0825 19.36875,14.1 19.8775,14.50875 2.7375,2.195 6.62875,5.40875 7.82875,8.6225 1.0375,2.78375 -4.70875,7.53875 -4.85375,10.06625 1.21125,1.9125 13.4325,12.6 14.2575,13.1775 2.44875,1.71 5.85375,5.53625 8.1675,5.5425 2.3775,0.006 4.8325,-3.34375 6.98125,-3.54375 2.66625,-0.25125 5.90625,2.1275 8.32625,3.86375 2.7775,1.98875 5.13875,3.7775 7.06625,5.62125 13.315,12.75125 24.73375,25.20125 35.7275,39.61625 -0.55,-3.755 -3.08875,-6.57625 -4.845,-9.66625 -7.37125,-12.98 -14.99375,-23.98 -24.28,-34.8575 z M 96.526375,96.17625 C 93.25,92.65875 88.767625,88.665 92.644,83.70125 c 5.424375,-6.9425 34.01975,-31.59 60.01475,-41.41125 -14.1525,2.0225 -30.52012,7.51125 -43.4215,15.9825 C 89.8535,71.00125 81.440875,77.88875 65.753875,93.96 c -7.889625,8.08125 -17.3295,14.65875 -23.84225,24.1175 -11.027875,12.99875 -19.695375,28.35875 -26.891125,45.18875 -0.06,0.35 -0.431625,0.56625 0.277375,0.55625 9.794875,-15.4525 23.09475,-31.2275 36.59425,-44.635 1.963375,-1.95125 4.4775,-4.3125 7.2075,-6.375 1.9185,-1.45125 6.522875,-5.09625 8.316875,-5.26875 4.410625,-0.4275 5.725625,5.27875 8.872125,6.375 7.910625,-4.74875 14.702125,-10.6175 20.23775,-17.7425 z M 79.61475,77.325 c -1.2085,-1.9625 -2.667,-3.10625 -4.435,-5.2675 -1.026375,-1.25625 -4.767625,-7.42625 -7.247125,-5.6 C 62.602,70.385 54.006375,76.27 51.0605,82.315 c 1.852125,2.9175 6.473625,7.25 10.812,11.09 6.161625,-5.1125 11.342875,-11.20625 17.74225,-16.08 z m 212.2115,4.965 c 2.755,2.7375 5.09625,4.59875 8.19,7.79 3.72875,-3.105 7.06875,-6.16875 9.775,-10.16 -1.13875,-4.8825 -5.1525,-6.4025 -8.23125,-10.02375 -2.915,-3.4275 -4.65625,-8.09625 -8.55375,-6.65375 -0.4275,0.10125 -8.18,7.10875 -9.51375,10.89375 0,0.29 5.6975,5.53375 8.33375,8.15375"
     inkscape:connector-curvature="0" /></svg>