<?xml version="1.0" encoding="UTF-8" standalone="no"?>
<svg
   xmlns:dc="http://purl.org/dc/elements/1.1/"
   xmlns:cc="http://creativecommons.org/ns#"
   xmlns:rdf="http://www.w3.org/1999/02/22-rdf-syntax-ns#"
   xmlns:svg="http://www.w3.org/2000/svg"
   xmlns="http://www.w3.org/2000/svg"
   xmlns:sodipodi="http://sodipodi.sourceforge.net/DTD/sodipodi-0.dtd"
   xmlns:inkscape="http://www.inkscape.org/namespaces/inkscape"
   width="1098"
   height="1098"
   id="svg2"
   version="1.1"
   inkscape:version="0.91 r13725"
   sodipodi:docname="blackhopfromvideo.svg">
  <metadata
     id="metadata22">
    <rdf:RDF>
      <cc:Work
         rdf:about="">
        <dc:format>image/svg+xml</dc:format>
        <dc:type
           rdf:resource="http://purl.org/dc/dcmitype/StillImage" />
        <dc:title></dc:title>
      </cc:Work>
    </rdf:RDF>
  </metadata>
  <defs
     id="defs20" />
  <sodipodi:namedview
     pagecolor="#ffffff"
     bordercolor="#666666"
     borderopacity="1"
     objecttolerance="10"
     gridtolerance="10"
     guidetolerance="10"
     inkscape:pageopacity="0"
     inkscape:pageshadow="2"
     inkscape:window-width="1920"
     inkscape:window-height="1017"
     id="namedview18"
     showgrid="false"
     fit-margin-top="0"
     fit-margin-left="0"
     fit-margin-right="0"
     fit-margin-bottom="0"
     inkscape:zoom="0.56257449"
     inkscape:cx="7.9102839"
     inkscape:cy="498.83555"
     inkscape:window-x="-8"
     inkscape:window-y="-8"
     inkscape:window-maximized="1"
     inkscape:current-layer="svg2" />
  <path
     style="fill:#030303;stroke:none"
     d="m 0,0 0,1098 1098,0 L 1098,0 0,0 Z"
     id="path4"
     inkscape:connector-curvature="0" />
  <path
     style="fill:#f9f9f9;stroke:none"
     d="M 122,231.4676 C 107.645,234.1583 93.4202,246.8654 89.5394,261 86.2617,272.9377 88,286.736 88,299 l 0,70 0,366 0,85 c 0,17.638 -1.2357,34.274 12.0903,47.96 C 116.615,884.931 141.541,881 163,881 l 151,0 453,0 139,0 42,0 c 9.712,0 19.526,0.502 29,-2.093 14.204,-3.892 25.798,-15.706 29.54,-29.907 3.16,-11.969 1.46,-25.729 1.46,-38 l 0,-70 0,-370 0,-80 c 0,-19.2418 0.41,-37.1516 -16.001,-50.5324 C 974.553,226.2435 947.974,231 927,231 l -155,0 -440,0 -141,0 -45,0 c -7.787,0 -16.325,-0.9709 -24,0.4676 z"
     id="path6"
     inkscape:connector-curvature="0" />
  <path
     style="fill:#030303;stroke:none"
     d="m 163,240 0,65 c 9.425,-2.214 17.795,-9.446 27,-12.816 21.871,-8.006 49.767,-7.657 71,2.125 52.017,23.965 79.337,87.952 49.572,139.691 -13.793,23.974 -33.921,37.378 -58.572,48 l 0,2 c 36.33,14.007 63.434,42.687 69.561,82 2.594,16.645 0.439,35.156 0.439,52 l 0,46 c 0,5.762 1.754,14.253 -6.005,14.941 -8.189,0.727 -16.773,0.115 -24.995,0.058 -3.564,-0.024 -7.549,0.07 -8.682,-4.058 C 280.14,667.01 282,656.216 282,648 l 0,-59 c 0,-13.032 0.484,-26.743 -6.669,-38.285 C 256.772,520.767 217.747,508.53 188,530.289 180.175,536.013 174.06,543.26 169.131,551.576 159.741,567.42 162,588.389 162,606 l 0,73 -28,0 c -3.101,0 -7.971,0.822 -10.397,-1.603 -2.07,-2.071 -1.598,-5.738 -1.603,-8.397 l 0,-19 0,-77 c 0,-108.709 1,-217.346 1,-326 -11.019,2.2277 -18.2924,15.9384 -20.9398,26 C 99.585,282.407 101,293.337 101,303 l 0,56 0,361 0,100 c 0,8.24 -0.1317,16.224 3.0046,24 1.3811,3.424 2.2964,6.922 5.9954,8 3.808,-14.634 23.944,-18.825 33.292,-6.957 7.025,8.92 4.138,16.514 0.708,25.957 l 78,0 c -3.495,-4.077 -8.592,-6.022 -13,-9.029 -6.374,-4.347 -12.639,-9.504 -17.92,-15.145 C 166.633,820.713 157.689,783.2 168.205,749 179.609,711.912 215.493,682.896 254,679.17 c 21.863,-2.116 43.902,3.512 63,13.911 9.06,4.933 17.223,11.169 24.996,17.918 4.18,3.629 8.627,6.919 11.004,12.001 -9.171,3.358 -17.624,9.801 -26,14.799 -3.171,1.893 -8.143,6.069 -11.999,5.899 -3.254,-0.144 -5.479,-3.501 -7.425,-5.695 -3.417,-3.852 -7.236,-7.129 -11.576,-9.913 -15.659,-10.041 -38.826,-12.905 -56,-4.967 -9.379,4.334 -17.157,11.071 -23.829,18.878 -5.702,6.67 -9.417,15.418 -11.077,23.999 -5.122,26.481 6.046,51.43 29.621,65.447 24.549,14.597 64.554,7.022 78.285,-19.447 11.558,5.756 20.2,16.749 32,22 -2.371,7.147 -8.416,12.745 -14,17.575 -8.421,7.283 -17.435,14.527 -28,18.425 3.959,1.661 8.74,1 13,1 l 23,0 83,0 c -5.256,-5.313 -13.064,-8.154 -19,-12.819 C 388.693,846.938 377.534,832.791 370.428,816 352.485,773.598 368.516,724.743 405,697.884 416.174,689.658 430.815,681.648 445,681 l 0,-2 c -20.276,0 -39.457,-3.182 -57,-14.066 C 335.897,632.611 322.42,560.392 364.171,514 380.937,495.37 402.809,482.607 428,480.17 c 11.048,-1.069 22.013,0.739 33,0.83 -5.081,-3.257 -10.865,-5.43 -16,-8.695 -14.18,-9.017 -27.543,-21.482 -35.688,-36.305 -9.946,-18.099 -15.213,-38.278 -13.141,-59 4.101,-41.023 36.449,-78.451 76.829,-87.765 19.741,-4.553 41.25,-2.519 60,4.932 8.063,3.204 14.91,8.871 23,11.833 l 0,-19 39,0 1,211 c 11.436,-4.335 20.946,-12.002 33,-15.441 15.352,-4.381 29.434,-2.569 45,-2.559 -5.708,-5.344 -13.706,-8.141 -20,-12.898 -14.11,-10.666 -25.398,-23.931 -32.688,-40.102 -5.761,-12.777 -9.822,-27.878 -9.272,-42 1.931,-49.557 41.51,-94.456 91.96,-97.911 25.267,-1.73 49.998,5.341 71,19.43 5.192,3.483 10.412,7.32 15,11.571 3.891,3.606 7.144,7.645 12,9.91 -3.851,4.919 -9.702,7.622 -15,10.8 -8.245,4.947 -16.705,11.517 -26,14.2 -10.599,-22.861 -45.559,-31.98 -68,-23.757 -24.514,8.983 -42.729,34.197 -40.911,60.757 2.87,41.912 49.187,69.225 86.911,50.24 8.686,-4.371 18.116,-11.066 22,-20.24 12.543,4.16 20.877,16.875 33,22 -2.896,6.841 -8.794,11.854 -14,16.996 -15.715,15.522 -37.949,25.403 -60,26.915 -9.419,0.645 -18.637,-0.885 -28,-0.911 5.762,5.185 14.486,8.137 21,12.721 13.344,9.389 24.836,22.52 31.88,37.279 4.66,9.763 8.508,20.211 9.834,31 4.997,40.667 -15.854,78.971 -50.714,99.597 -11.13,6.586 -24.963,11.835 -38,12.403 4.249,2.259 9.39,2.352 14,3.721 8.831,2.621 17.604,6.663 25,12.175 3.572,2.662 10.192,10.721 14.985,9.849 2.793,-0.509 5.139,-3.412 7.185,-5.169 3.713,-3.19 7.63,-6.287 11.83,-8.816 14.103,-8.491 33.545,-13.098 50,-10.435 31.152,5.042 58.884,27.579 67.076,58.675 4.357,16.54 2.924,34.053 2.924,51 l 0,82 77,0 c 16.434,0 32.069,0.92 44.985,-11.104 C 994.454,847.358 994,831.937 994,815 l 0,-56 0,-273 -39,0 c -5.507,0 -12.811,1.234 -18,-0.858 -7.696,-3.103 -14.743,-11.39 -21,-16.721 -13.628,-11.61 -27.399,-23.051 -41,-34.692 -7.398,-6.332 -14.96,-14.901 -24,-18.729 l 0,71 -40,0 0,-246 -325,0 -79,0 c -6.666,0 -13.334,-0.0452 -20,8e-4 -2.209,0.0153 -5.417,-0.3615 -6.972,1.6026 C 377.221,245.1476 379,254.6802 379,259 l 0,46 0,181 -40,0 0,-246 -176,0 m 688,0 0,118 c 8.655,-2.942 16.087,-11.734 23,-17.576 14.644,-12.372 29.2,-24.855 44,-37.039 5.829,-4.799 11.308,-11.366 18,-14.951 5.053,-2.708 12.44,-1.434 18,-1.434 l 40,0 c 0,-4.949 0.477,-10.167 -0.761,-15 C 988.918,255.1307 975.193,244.8301 959,240.76 947.95,237.9827 934.361,240 923,240 l -72,0 m 143,242 0,-190 c -11.31,4.381 -21.684,16.056 -31,23.75 -18.498,15.278 -37.296,30.225 -56,45.249 -8.815,7.081 -23.388,15.053 -22.941,28.001 0.406,11.8 15.728,19.744 23.941,26.211 19.082,15.024 38.036,30.219 57,45.389 8.884,7.107 18.309,17.287 29,21.4 M 212,327.439 c -40.418,6.362 -61.566,55.217 -40.91,89.561 14.273,23.73 39.66,32.189 65.91,27.855 C 271.334,439.186 291.266,397.137 279.536,366 269.209,338.587 240.592,322.939 212,327.439 m 272,10e-4 c -7.121,1.144 -13.982,4.361 -20,8.259 -22.217,14.39 -33.753,42.532 -26.022,68.301 3.563,11.875 11.633,21.903 21.023,29.714 6.563,5.459 13.751,8.916 21.999,10.785 6.339,1.437 12.457,3.007 19,2.073 11.515,-1.645 21.496,-4.484 31,-11.496 6.61,-4.878 12.305,-11.101 16.627,-18.076 17.693,-28.556 5.993,-66.601 -22.627,-82.826 -11.99,-6.798 -27.449,-8.912 -41,-6.734 M 554,467 c -13.975,10.741 -31.36,17.703 -49,18.911 -10.415,0.713 -20.648,-0.882 -31,-0.911 6.054,5.405 15.165,8.306 22,13.026 13.4,9.252 25.033,22.706 32.421,37.259 19.368,38.155 10.491,86.106 -20.436,115.625 -15.049,14.366 -32.974,22.461 -52.985,27.09 5.713,2.397 12.885,0.486 19,1.439 15.665,2.441 29.641,7.167 43,15.905 10.026,6.558 18.989,14.884 25.96,24.656 4.059,5.69 7.216,15.185 13.04,19 l 0,-190 c 0,-21.406 1.793,-43.746 -0.714,-65 -0.65,-5.503 0.87,-11.862 -1.286,-17 m -391,1 c 0,9.788 -2.769,21.632 0,31 9.94,-5.534 19.505,-13.021 31,-15 -2.314,-3.083 -6.539,-4.091 -10,-5.706 -6.915,-3.227 -13.566,-8.589 -21,-10.294 m 305,15 c 1.248,0.685 1.548,0.749 3,1 -1.248,-0.685 -1.548,-0.749 -3,-1 m -36,36.428 c -9.042,1.296 -17.338,3.825 -25,8.935 -7.419,4.948 -14.601,11.993 -19.239,19.637 -16.117,26.562 -8.956,61.992 16.239,80.215 12.478,9.024 28.843,12.47 44,10.496 8.174,-1.065 16.109,-4.102 23,-8.576 C 492.791,615.987 503.515,589.303 497.497,564 490.895,536.245 460.225,515.385 432,519.428 m 212,0.09 c -8.611,1.826 -16.981,5.696 -23.996,10.96 -18.205,13.662 -28.269,37.933 -23.486,60.522 6.429,30.364 38.419,53.661 69.482,46.985 9.801,-2.106 19.223,-5.833 27,-12.311 C 709.926,611.575 718.262,589.944 714.675,568 709.507,536.378 675.594,512.818 644,519.518 M 596,660 l 0,50 c 8.038,-4.29 13.368,-13.363 21,-18.619 9.94,-6.845 20.784,-8.818 32,-12.381 -3.172,-1.331 -6.608,-0.895 -10,-1.44 -5.316,-0.854 -10.927,-2.463 -16,-4.259 -9.492,-3.36 -17.506,-10.296 -27,-13.301 m -145,59.464 c -8.039,1.421 -15.384,4.854 -22,9.576 -18.177,12.974 -27.977,33.776 -25.83,55.96 2.943,30.417 33.207,58.488 64.83,53.561 11.187,-1.743 21.958,-4.969 31,-12.079 7.019,-5.519 13.383,-12.471 17.392,-20.482 C 538.487,761.844 499.634,710.867 451,719.464 M 619,871 l 80,0 0,-89 c 0,-14.534 2.521,-31.06 -5.468,-44 -15.941,-25.819 -56.946,-25.502 -70.268,3 -6.446,13.792 -4.264,30.221 -4.264,45 l 0,85 m 120,0 80,0 0,-90 c 0,-15.231 2.123,-31.721 -6.915,-45 -18.046,-26.514 -58.263,-20.545 -70.487,8 -5.152,12.03 -2.598,28.206 -2.598,41 l 0,86 m -236,-1 c 6.678,2.802 16.784,1 24,1 l 53,0 0,-73 c -4.648,0 -14.581,-1.885 -18.411,1.028 -3.019,2.295 -3.64,9.516 -4.794,12.972 -2.611,7.819 -6.804,15.264 -11.516,22 -11.082,15.839 -25.191,27.22 -42.279,36 z"
     id="path8"
     inkscape:connector-curvature="0" />
  <path
     style="fill:#f9f9f9;stroke:none"
     d="m 567,941 c 0,5.244 -1.117,12.024 1.417,16.811 2.951,5.572 10.518,5.058 12.84,-0.83 1.804,-4.577 -0.367,-10.392 -1.257,-14.981 6.76,-1.883 12.145,0.285 19,-0.04 4.143,-0.196 7.703,-2.493 11.714,-2.785 2.507,-0.182 4.835,1.277 7.29,1.609 6.649,0.899 9.617,-2.656 13.996,-6.784 2.702,9.179 9.31,5.611 16,4.1 3.538,-0.8 7.375,-0.429 11,-1.1 -2.992,5.773 -10.61,7.281 -12.423,14.001 -2.161,8.009 7.399,12.17 13.195,7.346 6.144,-5.112 3.353,-14.69 11.229,-18.717 4.127,-2.11 6.947,1.772 11.014,2.141 3.898,0.354 7.198,-2.05 10.985,-2.002 2.765,0.034 5.282,1.61 8,2.018 8.797,1.32 20.881,-1.768 22,-11.787 -7.209,2.131 -10.593,7.915 -19,7 2.901,-1.859 7.138,-3.561 8.377,-7.05 2.334,-6.571 -6.779,-8.634 -11.376,-7.297 -6.868,1.997 -7.122,8.103 -12.144,11.743 -1.931,1.399 -5.382,2.1 -7.146,0 -1.667,-1.986 -0.056,-4.559 0.993,-6.396 2.94,-5.152 7.141,-10.784 7.108,-17 -0.021,-4.164 -2.226,-8.016 -6.813,-7.808 -8.778,0.398 -11.85,13.798 -11.92,20.808 -0.027,2.598 0.833,5.43 -0.346,7.891 -1.18,2.464 -3.35,3.279 -5.733,4.109 0.009,-3.184 1.757,-9.756 -0.214,-12.377 -3.643,-4.844 -7.963,7.288 -8.786,9.377 -3.438,-1.896 -3.644,-10.364 -6.92,-10.364 -3.46,0 -4.605,18.75 -10.507,10.197 -0.556,-0.806 -0.778,-1.912 -1.025,-2.838 -0.346,-1.294 -0.315,-2.669 -0.222,-3.99 0.14,-2.006 0.516,-3.997 0.674,-6.005 4.176,-0.137 6.272,-0.638 7,-5 l -6,0 c -0.007,-1.913 0.206,-4.08 -0.318,-5.945 -0.742,-2.642 -3.532,-4.531 -5.504,-1.718 -1.476,2.106 -1.156,5.234 -1.178,7.663 -3.878,0.125 -6.072,0.502 -8,4 6.829,2.564 7.65,6.065 6,13 -1.44,-2.384 -2.795,-4.223 -5.055,-5.912 -2.411,-1.802 -7.36,-6.699 -10.663,-5.287 -2.908,1.243 -1.649,5.759 -2.52,8.195 -2.342,6.559 -9.423,8.995 -15.762,8.004 3.024,-1.793 7.121,-3.454 8.377,-7.039 2.49,-7.107 -7.738,-8.728 -12.373,-6.966 -5.333,2.028 -6.189,5.632 -8.977,9.943 -1.32,2.04 -3.443,3.695 -5.88,2.31 -6.871,-3.904 -0.215,-16.67 0.552,-22.248 0.369,-2.683 0.553,-8.049 -3.613,-7.534 -4.305,0.533 -3.964,7.439 -4.368,10.534 -1.028,7.887 -1.007,17.895 -9.718,21 -0.811,-4.369 -1,-8.564 -1,-13 -2.024,0.066 -4.546,-0.161 -5.978,1.603 -2.475,3.048 -4.762,14.278 -11.649,9.365 -2.581,-1.841 -0.557,-4.967 0.647,-6.968 3.297,-5.477 7.165,-11.252 6.701,-17.999 -0.262,-3.813 -2.59,-7.083 -6.726,-6.794 -4.326,0.302 -7.168,4.097 -8.712,7.793 -2.928,7.012 -4.369,19.484 0.37,25.956 5.777,7.89 10.979,2.486 18.347,2.917 5.565,0.326 9.147,2.213 15,1.127 m -13.396,-32.958 c -4.686,3.553 2.462,10.338 6.792,6.929 4.637,-3.65 -2.71,-10.023 -6.792,-6.929 z"
     id="path10"
     inkscape:connector-curvature="0" />
  <path
     style="fill:#030303;stroke:none"
     d="m 541,909 c -2.03,4.782 -2.778,9.823 -3,15 4.021,-4.302 4.952,-9.261 5,-15 l -2,0 m 138,14 c 4.088,-3.882 4.886,-8.524 5,-14 -4.888,2.695 -4.779,8.846 -5,14 z"
     id="path12"
     inkscape:connector-curvature="0" />
  <path
     style="fill:#f9f9f9;stroke:none"
     d="m 411,937 c -2.856,5.811 -10.341,7.522 -12.278,14.004 -2.285,7.65 7.56,12.044 13.064,7.482 6.251,-5.18 3.403,-15.488 12.215,-18.793 4.828,-1.811 10.784,1.287 15.999,-0.346 3.761,-1.177 6.963,-5.706 10.961,-5.713 2.834,-0.005 4.619,2.853 7.129,3.763 2.85,1.035 6.05,0.134 8.91,-0.397 -3.122,6.024 -11.887,7.8 -13.427,15 -1.751,8.185 9.431,10.405 14.213,5.772 5.234,-5.072 3.443,-13.59 10.233,-17.404 4.107,-2.307 9.46,-0.075 13.981,-0.462 4.592,-0.393 7.216,-2.94 11,-5.186 4.827,-2.865 9.244,-2.615 11,-8.72 -2.837,0.48 -6.124,2.012 -9,1.308 -6.509,-1.594 -10.497,-7.19 -17.985,-4.605 C 480.19,925.059 479.25,932.99 473,936 c 0.007,-2.505 2.256,-16.364 -3.742,-12.914 -3.401,1.957 -4.822,7.354 -8.258,9.914 -0.573,-2.406 -0.41,-11.529 -4.644,-10.249 -3.04,0.918 -3.418,5.349 -7.375,4.498 -2.69,-0.578 -4.564,-3.063 -6.981,-4.226 -3.503,-1.685 -8.574,-1.327 -11.985,0.434 -6.001,3.098 -6.83,10.296 -13.015,13.543 0.03,-3.671 1.495,-8.319 0.644,-11.851 -0.467,-1.935 -2.199,-3.207 -4.095,-2.063 -3.911,2.362 -3.896,7.619 -8.549,9.914 -0.289,-2.013 -0.285,-3.975 -0.483,-5.985 -0.281,-2.854 -3.067,-6.147 -5.49,-2.678 -2.399,3.436 -1.031,10.425 2.456,12.634 2.767,1.754 6.558,0.578 9.517,0.029 z"
     id="path14"
     inkscape:connector-curvature="0" />
  <path
     style="fill:#030303;stroke:none"
     d="m 434.279,929.175 c -3.296,1.667 -1.024,6.586 2.407,5.163 3.284,-1.362 0.739,-6.754 -2.407,-5.163 m 55.116,-0.089 c -3.645,2.279 -0.316,7.368 3.187,4.868 2.846,-2.031 -0.157,-6.763 -3.187,-4.868 M 592,932 c 2.843,-0.421 4.012,-0.939 6,-3 -3.248,-0.63 -5.025,-0.33 -6,3 m 109,0 c 2.435,-0.651 3.283,-1.16 5,-3 -3.092,-0.522 -4.14,-0.081 -5,3 m -85,-2 0,6 c 6.95,-0.531 6.95,-5.469 0,-6 m -42,13 c -1.34,4.533 -2.282,10.975 2,14 0.418,-5.3 1.543,-9.543 -2,-14 m -170,12 c 4.444,-0.709 5.665,-2.606 6,-7 -3.966,1.15 -5.367,2.939 -6,7 m 62,-7 c -1.321,0.27 -2.752,0.333 -3.892,1.177 -4.863,3.602 0.65,7.639 3.238,1.925 0.427,-0.941 0.475,-2.127 0.654,-3.102 m 192,0 c -1.321,0.27 -2.752,0.333 -3.892,1.177 -4.965,3.677 0.919,7.672 3.319,1.925 0.384,-0.922 0.423,-2.168 0.573,-3.102 z"
     id="path16"
     inkscape:connector-curvature="0" />
</svg>
